<svg xmlns="http://www.w3.org/2000/svg" width="89.26" height="89.26" viewBox="0 0 89.26 89.26">
  <g id="Grupo_2279" data-name="Grupo 2279" transform="translate(-1774 -811)">
    <circle id="Elipse_379" data-name="Elipse 379" cx="44.63" cy="44.63" r="44.63" transform="translate(1774 811)" fill="#78be20"/>
    <path id="Trazado_12713" data-name="Trazado 12713" d="M14.641,34.605H34.372l5.554,6.431a1.8,1.8,0,0,0,3.167-1.169V34.605H44.31a4.45,4.45,0,0,0,4.433-4.433V12.633A4.45,4.45,0,0,0,44.31,8.2H14.641a4.45,4.45,0,0,0-4.433,4.433V30.172A4.481,4.481,0,0,0,14.641,34.605ZM12.692,12.682a1.976,1.976,0,0,1,2-2H44.359a1.976,1.976,0,0,1,2,2V30.22a1.976,1.976,0,0,1-2,2H41.923A1.206,1.206,0,0,0,40.7,33.436v4.726l-4.774-5.554A1.384,1.384,0,0,0,35,32.169H14.641a1.976,1.976,0,0,1-2-2V12.682Zm2.679,29.133L9.818,48.246a1.813,1.813,0,0,1-1.364.633,2.851,2.851,0,0,1-.633-.1,1.725,1.725,0,0,1-1.169-1.656v-5.31H5.433A4.45,4.45,0,0,1,1,37.382V19.844A4.45,4.45,0,0,1,5.433,15.41a1.218,1.218,0,0,1,0,2.436,1.976,1.976,0,0,0-2,2V37.382a1.976,1.976,0,0,0,2,2H7.869A1.206,1.206,0,0,1,9.087,40.6v4.726l4.774-5.554a1.384,1.384,0,0,1,.926-.438H32.715a1.218,1.218,0,0,1,0,2.436H15.372ZM27.843,21.841A1.656,1.656,0,1,1,29.5,23.5,1.643,1.643,0,0,1,27.843,21.841Zm-5.505,0A1.656,1.656,0,1,1,23.995,23.5,1.643,1.643,0,0,1,22.338,21.841Zm11.01,0A1.656,1.656,0,1,1,35,23.5,1.643,1.643,0,0,1,33.349,21.841Z" transform="translate(1792.436 828.714)" fill="#fff"/>
  </g>
</svg>
