<svg xmlns="http://www.w3.org/2000/svg" width="42.127" height="25.355" viewBox="0 0 42.127 25.355">
  <g id="noun_Arrow_1569918" transform="translate(1 1)">
    <g id="noun_Arrow_2332726">
      <g id="Grupo_1607" data-name="Grupo 1607">
        <path id="Trazado_5052" data-name="Trazado 5052" d="M58.909,995.55,48.569,984.563a.664.664,0,0,0-.919-.03.68.68,0,0,0-.03.919l9.311,9.9H19.646a.646.646,0,0,0,0,1.293H56.93l-9.311,9.9a.675.675,0,0,0,.03.919.657.657,0,0,0,.919-.03l10.341-10.987a.694.694,0,0,0,0-.889Z" transform="translate(-19 -984.362)" fill="#78be20" stroke="#78be20" stroke-width="2"/>
      </g>
    </g>
  </g>
</svg>
