<svg xmlns="http://www.w3.org/2000/svg" width="53.611" height="31.131" viewBox="0 0 53.611 31.131">
  <g id="noun_Arrow_1569918" transform="translate(53.611 31.131) rotate(180)">
    <g id="noun_Arrow_2332726">
      <g id="Grupo_1607" data-name="Grupo 1607">
        <path id="Trazado_5052" data-name="Trazado 5052" d="M72.4,999.33,58.56,984.63a.888.888,0,0,0-1.23-.041.909.909,0,0,0-.041,1.23L69.747,999.06H19.865a.865.865,0,1,0,0,1.729H69.747L57.29,1014.03a.9.9,0,0,0,.041,1.229.879.879,0,0,0,1.23-.041l13.835-14.7a.929.929,0,0,0,0-1.189Z" transform="translate(-19 -984.362)" fill="#fff"/>
      </g>
    </g>
  </g>
</svg>
