<svg xmlns="http://www.w3.org/2000/svg" width="16.068" height="26.897" viewBox="0 0 16.068 26.897">
  <g id="noun_Arrow_1569918" transform="translate(0.5 26.397) rotate(-90)">
    <g id="noun_Arrow_2332726">
      <g id="Grupo_1607" data-name="Grupo 1607">
        <path id="Trazado_5052" data-name="Trazado 5052" d="M44.762,991.584l-6.675-7.092a.428.428,0,0,0-.593-.02.439.439,0,0,0-.02.593l6.01,6.388H19.417a.417.417,0,1,0,0,.834H43.484l-6.01,6.388a.436.436,0,0,0,.02.593.424.424,0,0,0,.593-.02l6.675-7.092a.448.448,0,0,0,0-.574Z" transform="translate(-19 -984.362)" fill="#78be20" stroke="#78be20" stroke-width="1"/>
      </g>
    </g>
  </g>
</svg>
