<svg xmlns="http://www.w3.org/2000/svg" width="99.442" height="99.442" viewBox="0 0 99.442 99.442">
  <g id="Grupo_2942" data-name="Grupo 2942" transform="translate(-163 -10182)">
    <g id="Grupo_2751" data-name="Grupo 2751" transform="translate(-21.442 -23)">
      <g id="Grupo_1748" data-name="Grupo 1748" transform="translate(184.442 10205)">
        <rect id="Rectángulo_1424" data-name="Rectángulo 1424" width="99.442" height="99.442" rx="14" transform="translate(0 0)" fill="#bebebe"/>
      </g>
    </g>
    <g id="Grupo_2709" data-name="Grupo 2709" transform="translate(177.789 10195.016)">
      <path id="Trazado_12993" data-name="Trazado 12993" d="M16.641,52.672A2.321,2.321,0,0,0,12,52.8v.014A16.428,16.428,0,0,0,27.976,68.984h.267A16.159,16.159,0,0,0,43.209,59.03a47.134,47.134,0,0,1,3.481-6.961l4.641-7.321c.7-1.16,1.5-2.32,2.32-3.481A23.2,23.2,0,1,0,13.3,19.63a2.32,2.32,0,1,0,4.33,1.669c.021-.053.039-.107.056-.161A18.563,18.563,0,1,1,49.949,38.472c-.986,1.288-1.833,2.634-2.587,3.829l-4.641,7.321a51.218,51.218,0,0,0-3.805,7.622,11.6,11.6,0,0,1-10.674,7.1h-.2A11.938,11.938,0,0,1,16.641,52.672Z" transform="translate(0 0)" fill="#fff"/>
      <path id="Trazado_12994" data-name="Trazado 12994" d="M22.32,38.684A2.32,2.32,0,0,0,20,41v6.381a2.32,2.32,0,1,0,4.641,0v-4.4a8.121,8.121,0,0,0,0-15.57V25.4a9.281,9.281,0,0,1,9.281-8.759,9.92,9.92,0,0,1,1.23.081,9.282,9.282,0,0,1,7.936,7.622,2.348,2.348,0,1,0,4.641-.719h0a14.015,14.015,0,0,0-11.95-11.509A14.606,14.606,0,0,0,33.922,12,13.922,13.922,0,0,0,20,25.133V29.4a2.32,2.32,0,0,0,2.32,2.32,3.481,3.481,0,1,1,0,6.961Z" transform="translate(1.281 1.296)" fill="#fff"/>
    </g>
  </g>
</svg>
