<svg xmlns="http://www.w3.org/2000/svg" width="57" height="57" viewBox="0 0 57 57">
  <g id="Grupo_3025" data-name="Grupo 3025" transform="translate(-1751 -760)">
    <g id="noun_Share_6296" transform="translate(1828.834 728.318)">
      <g id="Grupo_3018" data-name="Grupo 3018" transform="translate(-62.834 47.682)">
        <path id="Trazado_13045" data-name="Trazado 13045" d="M30.923,31.2a1.469,1.469,0,1,0,2.939,0,5.915,5.915,0,0,1,5.908-5.909h6.8l-4.159,4.159a1.469,1.469,0,1,0,2.078,2.077l6.666-6.666a1.492,1.492,0,0,0,.186-.227c.019-.029.032-.061.049-.09a1.378,1.378,0,0,0,.086-.163c.017-.04.025-.082.038-.123a1.432,1.432,0,0,0,.045-.151,1.464,1.464,0,0,0,.022-.22c0-.022.007-.044.007-.066s-.006-.039-.006-.06a1.52,1.52,0,0,0-.023-.227,1.263,1.263,0,0,0-.043-.143c-.013-.044-.023-.089-.04-.132a1.507,1.507,0,0,0-.079-.151c-.019-.034-.034-.07-.056-.1a1.453,1.453,0,0,0-.183-.224h0l-6.668-6.667a1.47,1.47,0,0,0-2.078,2.078l4.159,4.159h-6.8A8.858,8.858,0,0,0,30.923,31.2Z" transform="translate(-24.4 -15.682)" fill="#616a71"/>
        <path id="Trazado_13046" data-name="Trazado 13046" d="M38.882,31.919a1.47,1.47,0,0,0-1.469,1.469v5.434H16.1V18.939h9.246a1.469,1.469,0,1,0,0-2.939H16.1a2.939,2.939,0,0,0-2.939,2.939V38.823A2.939,2.939,0,0,0,16.1,41.762H37.413a2.939,2.939,0,0,0,2.939-2.939V33.389A1.47,1.47,0,0,0,38.882,31.919Z" transform="translate(-13.166 -15.883)" fill="#616a71"/>
      </g>
    </g>
    <g id="Elipse_461" data-name="Elipse 461" transform="translate(1751 760)" fill="none" stroke="#616a71" stroke-width="4">
      <circle cx="28.5" cy="28.5" r="28.5" stroke="none"/>
      <circle cx="28.5" cy="28.5" r="26.5" fill="none"/>
    </g>
  </g>
</svg>
