<svg xmlns="http://www.w3.org/2000/svg" width="99.442" height="99.442" viewBox="0 0 99.442 99.442">
  <g id="Grupo_2751" data-name="Grupo 2751" transform="translate(-184.442 -10205)">
    <g id="Grupo_1748" data-name="Grupo 1748" transform="translate(184.442 10205)">
      <rect id="Rectángulo_1424" data-name="Rectángulo 1424" width="99.442" height="99.442" rx="14" transform="translate(0 0)" fill="#649f19"/>
    </g>
    <g id="Grupo_2708" data-name="Grupo 2708" transform="translate(207.443 10220)">
      <path id="Trazado_12990" data-name="Trazado 12990" d="M22.389,26.266a5.213,5.213,0,0,0,4.127,1.245,77.632,77.632,0,0,1,8.436-.7.2.2,0,0,1,.181.136A7.052,7.052,0,0,0,36.46,29.4c1.3,1.515,3.469,4.048,10.615,4.048S56.393,30.917,57.69,29.4a7.052,7.052,0,0,0,1.326-2.455c.026-.085.071-.147.181-.136a77.632,77.632,0,0,1,8.436.7,5.211,5.211,0,0,0,4.138-9.07,5.086,5.086,0,0,0-3.98-1.253,29.157,29.157,0,0,1-8-.341.968.968,0,0,1-.748-.609,9.54,9.54,0,0,1-.383-1.408A3.883,3.883,0,0,0,56.743,12.2a4.029,4.029,0,0,0-3.377-.258,18.064,18.064,0,0,1-6.291,1.036,18.073,18.073,0,0,1-6.292-1.036,4.037,4.037,0,0,0-3.376.258,3.883,3.883,0,0,0-1.917,2.632,9.452,9.452,0,0,1-.384,1.41.966.966,0,0,1-.746.608,29.2,29.2,0,0,1-8,.341,5.083,5.083,0,0,0-3.98,1.253,5.216,5.216,0,0,0,.011,7.825Zm1.542-6.074a2.717,2.717,0,0,1,2.148-.681,31.568,31.568,0,0,0,8.683-.358A3.313,3.313,0,0,0,37.3,17.045a11.906,11.906,0,0,0,.483-1.761,1.519,1.519,0,0,1,.764-1.044,1.689,1.689,0,0,1,1.418-.106,20.407,20.407,0,0,0,7.106,1.182,20.4,20.4,0,0,0,7.105-1.182,1.694,1.694,0,0,1,1.419.106,1.522,1.522,0,0,1,.764,1.045,11.887,11.887,0,0,0,.481,1.759,3.315,3.315,0,0,0,2.544,2.109,31.492,31.492,0,0,0,8.682.358,2.722,2.722,0,0,1,2.148.681,2.9,2.9,0,0,1,.974,2.166,2.816,2.816,0,0,1-.974,2.147,2.869,2.869,0,0,1-2.275.686,80.121,80.121,0,0,0-8.694-.72,2.5,2.5,0,0,0-2.468,1.779,4.682,4.682,0,0,1-.869,1.63c-1.1,1.287-2.767,3.23-8.837,3.23s-7.735-1.943-8.837-3.23a4.681,4.681,0,0,1-.869-1.63A2.5,2.5,0,0,0,34.9,24.47a80.121,80.121,0,0,0-8.694.72,2.878,2.878,0,0,1-2.275-.686,2.816,2.816,0,0,1-.974-2.147A2.9,2.9,0,0,1,23.932,20.192Z" transform="translate(-20.617 -11.684)" fill="#f5f7f8"/>
      <path id="Trazado_12991" data-name="Trazado 12991" d="M71.772,44.671a5.074,5.074,0,0,0-3.98-1.254,29.153,29.153,0,0,1-8-.341.963.963,0,0,1-.746-.608,9.3,9.3,0,0,1-.384-1.408,3.881,3.881,0,0,0-1.918-2.634,4.03,4.03,0,0,0-3.376-.257A18.085,18.085,0,0,1,47.075,39.2a18.085,18.085,0,0,1-6.291-1.036,4.033,4.033,0,0,0-3.376.257,3.881,3.881,0,0,0-1.918,2.633,9.326,9.326,0,0,1-.384,1.41.964.964,0,0,1-.747.607,29.144,29.144,0,0,1-8,.341,5.079,5.079,0,0,0-3.98,1.254,5.209,5.209,0,0,0,4.138,9.07,77.756,77.756,0,0,1,8.436-.7.2.2,0,0,1,.181.136,7.052,7.052,0,0,0,1.326,2.455c1.3,1.515,3.468,4.048,10.615,4.048s9.319-2.534,10.615-4.048a7.032,7.032,0,0,0,1.325-2.455.192.192,0,0,1,.182-.136,77.756,77.756,0,0,1,8.436.7A5.248,5.248,0,0,0,71.762,52.5a5.215,5.215,0,0,0,.01-7.824Zm-1.552,6.063a2.854,2.854,0,0,1-2.276.686,80.233,80.233,0,0,0-8.694-.72,2.567,2.567,0,0,0-2.468,1.779,4.681,4.681,0,0,1-.869,1.63c-1.1,1.286-2.766,3.23-8.837,3.23s-7.735-1.944-8.837-3.23a4.7,4.7,0,0,1-.87-1.63A2.533,2.533,0,0,0,34.9,50.7a80.232,80.232,0,0,0-8.694.72,2.866,2.866,0,0,1-2.276-.686,2.815,2.815,0,0,1-.973-2.146,2.9,2.9,0,0,1,.974-2.166,2.724,2.724,0,0,1,2.148-.681,31.437,31.437,0,0,0,8.682-.358,3.314,3.314,0,0,0,2.544-2.108,11.958,11.958,0,0,0,.482-1.76,1.518,1.518,0,0,1,.764-1.045,1.693,1.693,0,0,1,1.418-.106,20.414,20.414,0,0,0,7.106,1.182,20.414,20.414,0,0,0,7.106-1.182,1.693,1.693,0,0,1,1.418.106,1.522,1.522,0,0,1,.764,1.045,11.826,11.826,0,0,0,.481,1.759,3.313,3.313,0,0,0,2.543,2.109,31.55,31.55,0,0,0,8.683.358,2.713,2.713,0,0,1,2.148.681,2.9,2.9,0,0,1,.974,2.166A2.815,2.815,0,0,1,70.219,50.734Z" transform="translate(-20.617 -14.295)" fill="#f5f7f8"/>
      <path id="Trazado_12992" data-name="Trazado 12992" d="M71.772,70.9a5.1,5.1,0,0,0-3.98-1.254,29.119,29.119,0,0,1-8-.34.966.966,0,0,1-.748-.61,9.4,9.4,0,0,1-.383-1.407,3.877,3.877,0,0,0-1.918-2.633,4.02,4.02,0,0,0-3.376-.258,18.085,18.085,0,0,1-6.291,1.036A18.085,18.085,0,0,1,40.784,64.4a4.03,4.03,0,0,0-3.376.258,3.878,3.878,0,0,0-1.918,2.632,9.356,9.356,0,0,1-.384,1.41.965.965,0,0,1-.746.608,29.166,29.166,0,0,1-8,.34,5.1,5.1,0,0,0-3.98,1.254,5.209,5.209,0,0,0,4.138,9.071,78.35,78.35,0,0,1,8.436-.7.188.188,0,0,1,.181.137A7.057,7.057,0,0,0,36.46,81.86c1.3,1.515,3.468,4.048,10.615,4.048s9.319-2.534,10.615-4.048a7.037,7.037,0,0,0,1.325-2.454.186.186,0,0,1,.182-.137,78.35,78.35,0,0,1,8.436.7,5.252,5.252,0,0,0,4.128-1.246,5.216,5.216,0,0,0,.01-7.825Zm-1.552,6.064a2.866,2.866,0,0,1-2.276.686,79.568,79.568,0,0,0-8.694-.72h-.057a2.511,2.511,0,0,0-2.411,1.779,4.666,4.666,0,0,1-.869,1.63c-1.1,1.287-2.766,3.231-8.837,3.231s-7.735-1.944-8.837-3.231a4.685,4.685,0,0,1-.87-1.63A2.529,2.529,0,0,0,34.9,76.929a79.568,79.568,0,0,0-8.694.72,2.863,2.863,0,0,1-2.276-.686,2.819,2.819,0,0,1-.973-2.148,2.9,2.9,0,0,1,.974-2.165,2.714,2.714,0,0,1,2.148-.681,31.664,31.664,0,0,0,8.683-.359A3.313,3.313,0,0,0,37.3,69.5a11.779,11.779,0,0,0,.483-1.761A1.519,1.519,0,0,1,38.55,66.7a1.692,1.692,0,0,1,1.418-.106,20.414,20.414,0,0,0,7.106,1.182,20.414,20.414,0,0,0,7.106-1.182A1.692,1.692,0,0,1,55.6,66.7a1.518,1.518,0,0,1,.764,1.045,11.824,11.824,0,0,0,.482,1.759,3.314,3.314,0,0,0,2.544,2.11,31.621,31.621,0,0,0,8.682.359,2.693,2.693,0,0,1,2.148.681,2.9,2.9,0,0,1,.974,2.165A2.819,2.819,0,0,1,70.219,76.964Z" transform="translate(-20.617 -16.906)" fill="#f5f7f8"/>
    </g>
  </g>
</svg>
