<svg xmlns="http://www.w3.org/2000/svg" width="15.217" height="22.069" viewBox="0 0 15.217 22.069">
  <g id="noun_Phone_2670296" transform="translate(-27.3 -16.6)">
    <g id="Grupo_2113" data-name="Grupo 2113" transform="translate(27.8 17.1)">
      <g id="Grupo_2110" data-name="Grupo 2110">
        <path id="Trazado_1164" data-name="Trazado 1164" d="M39.775,38.169H30.041A2.248,2.248,0,0,1,27.8,35.927V19.341A2.248,2.248,0,0,1,30.041,17.1h9.734a2.248,2.248,0,0,1,2.241,2.241V35.927A2.228,2.228,0,0,1,39.775,38.169Zm-9.734-20.14a1.319,1.319,0,0,0-1.313,1.313V35.927a1.319,1.319,0,0,0,1.313,1.313h9.734a1.319,1.319,0,0,0,1.313-1.313V19.341a1.319,1.319,0,0,0-1.313-1.313Z" transform="translate(-27.8 -17.1)" fill="#90969b" stroke="#90969b" stroke-width="1"/>
      </g>
      <g id="Grupo_2111" data-name="Grupo 2111" transform="translate(5.667 15.522)">
        <path id="Trazado_1165" data-name="Trazado 1165" d="M46.941,71.582a1.441,1.441,0,1,1,1.441-1.441A1.435,1.435,0,0,1,46.941,71.582Zm0-1.921a.48.48,0,1,0,.48.48A.492.492,0,0,0,46.941,69.661Z" transform="translate(-45.5 -68.7)" fill="#90969b"/>
      </g>
      <g id="Grupo_2112" data-name="Grupo 2112" transform="translate(5.091 2.601)">
        <path id="Trazado_1166" data-name="Trazado 1166" d="M47.286,23.061H44.18a.48.48,0,0,1,0-.961h3.106a.48.48,0,1,1,0,.961Z" transform="translate(-43.7 -22.1)" fill="#90969b"/>
      </g>
    </g>
  </g>
</svg>
