<svg xmlns="http://www.w3.org/2000/svg" width="96.186" height="74.326" viewBox="0 0 96.186 74.326"><g transform="translate(0 0)"><path d="M44.017,58.48a11.359,11.359,0,0,1-4.761-9.436c0-6.112,4.4-11.067,9.837-11.067s9.837,4.955,9.837,11.067a11.359,11.359,0,0,1-4.761,9.436l.056,4.44c8.373,1.13,14.543,4.944,14.543,9.488v4.919H29.419V72.407c0-4.544,6.17-8.358,14.543-9.488ZM20.39,37.027C9.226,38.569,1,43.771,1,49.97V77.326H25.047V72.407c0-5.866,5.211-10.669,13.627-12.9a16.34,16.34,0,0,1,.449-21.444,42.474,42.474,0,0,0-5.048-1.04L34,30.97A15.609,15.609,0,0,0,40.349,18.1C40.349,9.759,34.477,3,27.233,3S14.116,9.759,14.116,18.1A15.609,15.609,0,0,0,20.465,30.97ZM64.111,41.4c-.875.121-1.67.327-2.5.5A16.287,16.287,0,0,1,63.3,49.044a16.033,16.033,0,0,1-3.79,10.468c8.417,2.227,13.627,7.03,13.627,12.9v4.919H97.186V54.342c0-6.2-8.226-11.4-19.39-12.943l-.075-6.057A15.609,15.609,0,0,0,84.07,22.47c0-8.338-5.872-15.1-13.116-15.1s-13.116,6.759-13.116,15.1a15.609,15.609,0,0,0,6.349,12.872Z" transform="translate(-1 -3)" fill="#fff"/></g></svg>