<svg xmlns="http://www.w3.org/2000/svg" width="39.136" height="33.345" viewBox="0 0 39.136 33.345">
  <path id="Trazado_12713" data-name="Trazado 12713" d="M12.182,29.845H28.355l4.553,5.271a1.473,1.473,0,0,0,2.6-.958V29.845h1a3.647,3.647,0,0,0,3.634-3.634V11.834A3.647,3.647,0,0,0,36.5,8.2H12.182a3.647,3.647,0,0,0-3.634,3.634V26.211A3.673,3.673,0,0,0,12.182,29.845Zm-1.6-17.971a1.619,1.619,0,0,1,1.637-1.637h24.32a1.619,1.619,0,0,1,1.637,1.637V26.25a1.619,1.619,0,0,1-1.637,1.637h-2a.989.989,0,0,0-1,1V32.76l-3.914-4.553a1.135,1.135,0,0,0-.759-.359H12.182a1.619,1.619,0,0,1-1.637-1.637V11.874Zm2.2,23.881L8.228,41.026a1.486,1.486,0,0,1-1.118.519,2.337,2.337,0,0,1-.519-.08,1.414,1.414,0,0,1-.958-1.358V35.755h-1A3.647,3.647,0,0,1,1,32.121V17.744A3.647,3.647,0,0,1,4.634,14.11a1,1,0,0,1,0,2A1.619,1.619,0,0,0,3,17.744V32.121a1.619,1.619,0,0,0,1.637,1.637h2a.989.989,0,0,1,1,1V38.63l3.914-4.553a1.135,1.135,0,0,1,.759-.359H27a1,1,0,0,1,0,2H12.781ZM23,19.382a1.358,1.358,0,1,1,1.358,1.358A1.347,1.347,0,0,1,23,19.382Zm-4.513,0a1.358,1.358,0,1,1,1.358,1.358A1.347,1.347,0,0,1,18.491,19.382Zm9.025,0a1.358,1.358,0,1,1,1.358,1.358A1.347,1.347,0,0,1,27.517,19.382Z" transform="translate(-1 -8.2)" fill="#fff"/>
</svg>
