<svg id="noun_Doctor_1740508" xmlns="http://www.w3.org/2000/svg" width="56.217" height="52.551" viewBox="0 0 56.217 52.551">
  <path id="Trazado_13020" data-name="Trazado 13020" d="M714.654,584.561a7.333,7.333,0,1,1,2.445,0,16.5,16.5,0,0,1-32.989-.511V581c0-.013,0-.027,0-.04A18.333,18.333,0,0,1,667,562.665v-9.777a4.886,4.886,0,1,1,2.444,4.234v5.542a15.887,15.887,0,0,0,31.775,0v-5.542a4.889,4.889,0,1,1,2.444-4.234v9.777a18.333,18.333,0,0,1-17.11,18.292c0,.013,0,.027,0,.04v3.055a14.054,14.054,0,0,0,28.1.508Zm-15.878-29.228a2.444,2.444,0,1,0-2.444-2.444A2.444,2.444,0,0,0,698.775,555.333Zm-26.886,0a2.444,2.444,0,1,0-2.444-2.444A2.444,2.444,0,0,0,671.889,555.333Zm44,26.887A4.888,4.888,0,1,0,711,577.331,4.888,4.888,0,0,0,715.885,582.219Z" transform="translate(-667 -548)" fill="#78be20"/>
</svg>
