<svg xmlns="http://www.w3.org/2000/svg" width="57" height="57" viewBox="0 0 57 57">
  <g id="Grupo_3024" data-name="Grupo 3024" transform="translate(-1649 -760)">
    <g id="noun_Share_1058861" transform="translate(1697.506 810.442) rotate(180)">
      <g id="Grupo_3021" data-name="Grupo 3021" transform="translate(4 3)">
        <g id="Grupo_3020" data-name="Grupo 3020">
          <g id="Grupo_3019" data-name="Grupo 3019">
            <path id="Trazado_13047" data-name="Trazado 13047" d="M21.295,8.375V23.442a1.572,1.572,0,0,1-3.145,0V8.37l-1.776,1.776a1.572,1.572,0,0,1-2.224-2.224l4.468-4.468A1.547,1.547,0,0,1,19.715,3l.012,0a1.548,1.548,0,0,1,1.095.45l4.468,4.468a1.572,1.572,0,0,1-2.224,2.224ZM7.145,32.087H32.3V21.074a1.572,1.572,0,0,1,3.145,0V33.666a1.558,1.558,0,0,1-.458,1.106,1.577,1.577,0,0,1-1.113.459H5.57A1.567,1.567,0,0,1,4,33.666V21.074a1.572,1.572,0,0,1,3.145,0Z" transform="translate(-4 -3)" fill="#616a71" fill-rule="evenodd"/>
          </g>
        </g>
      </g>
    </g>
    <g id="Elipse_460" data-name="Elipse 460" transform="translate(1649 760)" fill="none" stroke="#616a71" stroke-width="4">
      <circle cx="28.5" cy="28.5" r="28.5" stroke="none"/>
      <circle cx="28.5" cy="28.5" r="26.5" fill="none"/>
    </g>
  </g>
</svg>
