<svg id="noun_tax_2340133" xmlns="http://www.w3.org/2000/svg" width="44.058" height="53.307" viewBox="0 0 44.058 53.307">
  <g id="Grupo_2481" data-name="Grupo 2481">
    <path id="Trazado_12915" data-name="Trazado 12915" d="M51.787,2.5H21.518a2.99,2.99,0,0,0-2.971,2.971v4.877H13.671A2.99,2.99,0,0,0,10.7,13.318V52.836a2.99,2.99,0,0,0,2.971,2.971H43.939a2.99,2.99,0,0,0,2.971-2.971V47.959h4.877a2.99,2.99,0,0,0,2.971-2.971V5.471A3.028,3.028,0,0,0,51.787,2.5ZM44.5,52.78a.5.5,0,0,1-.5.5H13.727a.553.553,0,0,1-.561-.5V13.262a.518.518,0,0,1,.561-.5H18.6V44.988a2.99,2.99,0,0,0,2.971,2.971H44.5Zm7.791-7.791a.562.562,0,0,1-.561.561H21.518a.562.562,0,0,1-.561-.561V5.471a.562.562,0,0,1,.561-.561H51.787a.562.562,0,0,1,.561.561V44.988Z" transform="translate(-10.7 -2.5)" fill="#78be20"/>
    <path id="Trazado_12916" data-name="Trazado 12916" d="M57.982,53.3H39.933a1.233,1.233,0,0,0,0,2.466H57.926a1.244,1.244,0,0,0,1.233-1.233A1.2,1.2,0,0,0,57.982,53.3Z" transform="translate(-23.005 -24.825)" fill="#78be20"/>
    <path id="Trazado_12917" data-name="Trazado 12917" d="M57.982,66.2H39.933a1.233,1.233,0,1,0,0,2.466H57.926a1.234,1.234,0,0,0,.056-2.466Z" transform="translate(-23.005 -30.494)" fill="#78be20"/>
    <path id="Trazado_12918" data-name="Trazado 12918" d="M57.982,40.3H39.933a1.233,1.233,0,0,0,0,2.466H57.926a1.234,1.234,0,0,0,.056-2.466Z" transform="translate(-23.005 -19.112)" fill="#78be20"/>
    <path id="Trazado_13021" data-name="Trazado 13021" d="M57.982,40.3H39.933a1.233,1.233,0,0,0,0,2.466H57.926a1.234,1.234,0,0,0,.056-2.466Z" transform="translate(-23.005 -26.399)" fill="#78be20"/>
    <path id="Trazado_13022" data-name="Trazado 13022" d="M57.982,40.3H39.933a1.233,1.233,0,0,0,0,2.466H57.926a1.234,1.234,0,0,0,.056-2.466Z" transform="translate(-23.005 -33.686)" fill="#78be20"/>
  </g>
</svg>
