<svg xmlns="http://www.w3.org/2000/svg" width="20.128" height="20.616" viewBox="0 0 20.128 20.616">
  <g id="Grupo_6" data-name="Grupo 6" transform="translate(-10.348 -0.406)">
    <g id="Grupo_5" data-name="Grupo 5" transform="translate(10.948 1.006)">
      <path id="Trazado_214" data-name="Trazado 214" d="M2.117,2.187a7.644,7.644,0,0,0,0,10.561,7.055,7.055,0,0,0,9.767.424l5.929,6.059a.6.6,0,0,0,.865,0,.648.648,0,0,0,0-.894l-5.929-6.059a7.647,7.647,0,0,0-.41-10.091,7.064,7.064,0,0,0-10.222,0m.865.894a5.875,5.875,0,0,1,8.491,0,6.388,6.388,0,0,1,.341,8.382l-.33.4-.391.341a5.893,5.893,0,0,1-8.112-.352,6.357,6.357,0,0,1,0-8.773" transform="translate(0 0)" fill="#90969b" stroke="#90969b" stroke-width="1.2" fill-rule="evenodd"/>
    </g>
  </g>
</svg>
