<svg xmlns="http://www.w3.org/2000/svg" width="53" height="53" viewBox="0 0 53 53">
  <g id="noun_User_2419009" transform="translate(-247.75 -249.75)">
    <path id="Trazado_13029" data-name="Trazado 13029" d="M60.25,34.25a26,26,0,1,0-26,26A26.029,26.029,0,0,0,60.25,34.25Zm-26,23.263a23.108,23.108,0,0,1-12.142-3.428,12.315,12.315,0,0,1,24.283,0A23.111,23.111,0,0,1,34.25,57.513Zm-9.579-26a9.579,9.579,0,1,1,9.579,9.579A9.589,9.589,0,0,1,24.671,31.513ZM48.824,52.369a15.066,15.066,0,0,0-8.646-10.063,12.316,12.316,0,1,0-11.854,0,15.063,15.063,0,0,0-8.646,10.063,23.263,23.263,0,1,1,29.146,0Z" transform="translate(240 242)" fill="#78be20" stroke="#78be20" stroke-width="1"/>
  </g>
</svg>
