<svg xmlns="http://www.w3.org/2000/svg" width="173" height="173" viewBox="0 0 173 173">
  <g id="Grupo_2763" data-name="Grupo 2763" transform="translate(-361 -1413)">
    <g id="Trazado_13017" data-name="Trazado 13017" transform="translate(361 1413)" fill="#78be20">
      <path d="M 86.5 170.5 C 80.799072265625 170.5 75.10247802734375 169.9258117675781 69.56842803955078 168.7933807373047 C 64.17630767822266 167.6900024414062 58.87245178222656 166.0435638427734 53.80419158935547 163.8998870849609 C 48.8273811340332 161.7948760986328 44.02704620361328 159.1893157958984 39.53654861450195 156.1555938720703 C 35.08806991577148 153.1502685546875 30.90483283996582 149.6987609863281 27.10302352905273 145.89697265625 C 23.30123901367188 142.0951690673828 19.8497371673584 137.9119262695312 16.84440422058105 133.4634552001953 C 13.81069087982178 128.9729461669922 11.20511913299561 124.1726226806641 9.100118637084961 119.1958084106445 C 6.956428527832031 114.1275482177734 5.309999942779541 108.8236923217773 4.206619262695312 103.4315719604492 C 3.074190378189087 97.89752197265625 2.5 92.200927734375 2.5 86.5 C 2.5 80.799072265625 3.074190378189087 75.10247802734375 4.206619262695312 69.56842803955078 C 5.309999942779541 64.17630767822266 6.956428527832031 58.87245178222656 9.100118637084961 53.80419158935547 C 11.20511913299561 48.8273811340332 13.81069087982178 44.02704620361328 16.84440422058105 39.53654861450195 C 19.8497371673584 35.08806991577148 23.30123901367188 30.90483283996582 27.10302352905273 27.10302352905273 C 30.90483283996582 23.30123901367188 35.08806991577148 19.8497371673584 39.53654861450195 16.84440422058105 C 44.02704620361328 13.81069087982178 48.8273811340332 11.20511913299561 53.80419158935547 9.100118637084961 C 58.87245178222656 6.956428527832031 64.17630767822266 5.309999942779541 69.56842803955078 4.206619262695312 C 75.10247802734375 3.074190378189087 80.799072265625 2.5 86.5 2.5 C 92.200927734375 2.5 97.89752197265625 3.074190378189087 103.4315719604492 4.206619262695312 C 108.8236923217773 5.309999942779541 114.1275482177734 6.956428527832031 119.1958084106445 9.100118637084961 C 124.1726226806641 11.20511913299561 128.9729461669922 13.81069087982178 133.4634552001953 16.84440422058105 C 137.9119262695312 19.8497371673584 142.0951690673828 23.30123901367188 145.89697265625 27.10302352905273 C 149.6987609863281 30.90483283996582 153.1502685546875 35.08806991577148 156.1555938720703 39.53654861450195 C 159.1893157958984 44.02704620361328 161.7948760986328 48.8273811340332 163.8998870849609 53.80419158935547 C 166.0435638427734 58.87245178222656 167.6900024414062 64.17630767822266 168.7933807373047 69.56842803955078 C 169.9258117675781 75.10247802734375 170.5 80.799072265625 170.5 86.5 C 170.5 92.200927734375 169.9258117675781 97.89752197265625 168.7933807373047 103.4315719604492 C 167.6900024414062 108.8236923217773 166.0435638427734 114.1275482177734 163.8998870849609 119.1958084106445 C 161.7948760986328 124.1726226806641 159.1893157958984 128.9729461669922 156.1555938720703 133.4634552001953 C 153.1502685546875 137.9119262695312 149.6987609863281 142.0951690673828 145.89697265625 145.89697265625 C 142.0951690673828 149.6987609863281 137.9119262695312 153.1502685546875 133.4634552001953 156.1555938720703 C 128.9729461669922 159.1893157958984 124.1726226806641 161.7948760986328 119.1958084106445 163.8998870849609 C 114.1275482177734 166.0435638427734 108.8236923217773 167.6900024414062 103.4315719604492 168.7933807373047 C 97.89752197265625 169.9258117675781 92.200927734375 170.5 86.5 170.5 Z" stroke="none"/>
      <path d="M 86.5 5 C 80.96705627441406 5 75.43907928466797 5.557098388671875 70.06960296630859 6.655868530273438 C 64.83915710449219 7.726181030273438 59.69434356689453 9.323211669921875 54.77805328369141 11.40263366699219 C 49.94992065429688 13.44473266601562 45.29279327392578 15.97261047363281 40.93605041503906 18.91595458984375 C 36.61941528320312 21.83221435546875 32.56007385253906 25.18150329589844 28.87078857421875 28.87078857421875 C 25.18150329589844 32.56007385253906 21.83221435546875 36.61941528320312 18.91595458984375 40.93605041503906 C 15.97261047363281 45.29279327392578 13.44473266601562 49.94992065429688 11.40263366699219 54.77805328369141 C 9.323211669921875 59.69434356689453 7.726181030273438 64.83915710449219 6.655868530273438 70.06960296630859 C 5.557098388671875 75.43907928466797 5 80.96705627441406 5 86.5 C 5 92.03294372558594 5.557098388671875 97.56092071533203 6.655868530273438 102.9303970336914 C 7.726181030273438 108.1608428955078 9.323211669921875 113.3056564331055 11.40263366699219 118.2219467163086 C 13.44473266601562 123.0500793457031 15.97261047363281 127.7072143554688 18.91595458984375 132.0639495849609 C 21.83221435546875 136.3805847167969 25.18150329589844 140.4399261474609 28.87078857421875 144.1292114257812 C 32.56007385253906 147.8184967041016 36.61941528320312 151.1677856445312 40.93605041503906 154.0840454101562 C 45.29279327392578 157.0273895263672 49.94992065429688 159.5552673339844 54.77805328369141 161.5973663330078 C 59.69434356689453 163.6767883300781 64.83915710449219 165.2738189697266 70.06960296630859 166.3441314697266 C 75.43907928466797 167.4429016113281 80.96705627441406 168 86.5 168 C 92.03294372558594 168 97.56092071533203 167.4429016113281 102.9303970336914 166.3441314697266 C 108.1608428955078 165.2738189697266 113.3056564331055 163.6767883300781 118.2219467163086 161.5973663330078 C 123.0500793457031 159.5552673339844 127.7072143554688 157.0273895263672 132.0639495849609 154.0840454101562 C 136.3805847167969 151.1677856445312 140.4399261474609 147.8184967041016 144.1292114257812 144.1292114257812 C 147.8184967041016 140.4399261474609 151.1677856445312 136.3805847167969 154.0840454101562 132.0639495849609 C 157.0273895263672 127.7072143554688 159.5552673339844 123.0500793457031 161.5973663330078 118.2219467163086 C 163.6767883300781 113.3056564331055 165.2738189697266 108.1608428955078 166.3441314697266 102.9303970336914 C 167.4429016113281 97.56092071533203 168 92.03294372558594 168 86.5 C 168 80.96705627441406 167.4429016113281 75.43907928466797 166.3441314697266 70.06960296630859 C 165.2738189697266 64.83915710449219 163.6767883300781 59.69434356689453 161.5973663330078 54.77805328369141 C 159.5552673339844 49.94992065429688 157.0273895263672 45.29279327392578 154.0840454101562 40.93605041503906 C 151.1677856445312 36.61941528320312 147.8184967041016 32.56007385253906 144.1292114257812 28.87078857421875 C 140.4399261474609 25.18150329589844 136.3805847167969 21.83221435546875 132.0639495849609 18.91595458984375 C 127.7072143554688 15.97261047363281 123.0500793457031 13.44473266601562 118.2219467163086 11.40263366699219 C 113.3056564331055 9.323211669921875 108.1608428955078 7.726181030273438 102.9303970336914 6.655868530273438 C 97.56092071533203 5.557098388671875 92.03294372558594 5 86.5 5 M 86.5 0 C 134.2726287841797 0 173 38.72737121582031 173 86.5 C 173 134.2726287841797 134.2726287841797 173 86.5 173 C 38.72737121582031 173 0 134.2726287841797 0 86.5 C 0 38.72737121582031 38.72737121582031 0 86.5 0 Z" stroke="none" fill="#fff"/>
    </g>
    <path id="Trazado_12999" data-name="Trazado 12999" d="M104.136,25.193H99.345a11.072,11.072,0,0,0,1.546-5.667C100.891,13.723,96.522,9,91.15,9H75.825c-5.371,0-9.743,4.722-9.743,10.525a11.072,11.072,0,0,0,1.546,5.667H7.271A2.355,2.355,0,0,0,5,27.622v9.715a2.354,2.354,0,0,0,2.271,2.43H38.029L52.514,57.5,27.061,87.987A9.279,9.279,0,0,0,22.4,86.729c-5.423,0-9.836,4.722-9.836,10.526S16.982,107.78,22.4,107.78s9.84-4.722,9.839-10.525a10.961,10.961,0,0,0-1.793-6.038l8.927-10.695H71.329l9.25,11.321a10.983,10.983,0,0,0-1.416,5.411c0,5.8,4.413,10.525,9.837,10.525s9.836-4.722,9.836-10.525S94.424,86.729,89,86.729a9.3,9.3,0,0,0-5.239,1.633L58.57,57.532,73.4,39.767h30.736a2.355,2.355,0,0,0,2.271-2.43V27.622A2.354,2.354,0,0,0,104.136,25.193ZM70.622,19.526a5.458,5.458,0,0,1,5.2-5.668H91.15a5.457,5.457,0,0,1,5.2,5.668,5.457,5.457,0,0,1-5.192,5.667H75.815A5.458,5.458,0,0,1,70.622,19.526ZM22.4,102.923a5.68,5.68,0,0,1,0-11.334,5.68,5.68,0,0,1,0,11.334ZM89,91.589a5.68,5.68,0,1,1-5.3,5.667A5.5,5.5,0,0,1,89,91.589ZM67.362,75.667H43.432L55.525,61.18Zm-11.8-21.82L44.055,39.767H67.314Zm46.305-18.938H9.541V30.052h92.324Z" transform="translate(392 1440.999)" fill="#fff"/>
  </g>
</svg>
