<svg xmlns="http://www.w3.org/2000/svg" width="70.223" height="90.002" viewBox="0 0 70.223 90.002"><g transform="translate(0.5 0.499)"><path d="M78.595,27.478H56.9V6.589A1.61,1.61,0,0,0,55.27,5H12.628A1.609,1.609,0,0,0,11,6.589V63.96a6.983,6.983,0,0,0,2.368,5.212,7.342,7.342,0,0,0,4.87,1.838c.223,0,.447-.01.669-.03a6.855,6.855,0,0,0,2.934-1,1.6,1.6,0,0,0,.427.086H33.356V92.414A1.609,1.609,0,0,0,34.984,94H78.595a1.611,1.611,0,0,0,1.628-1.59V29.067A1.607,1.607,0,0,0,78.595,27.478ZM18.6,67.813a3.962,3.962,0,0,1-3.044-.994,3.836,3.836,0,0,1-1.3-2.861V8.179H53.641v19.3H29.4a7.136,7.136,0,0,0-7.216,7.039V63.04H22.2v.521A4.163,4.163,0,0,1,18.6,67.813Zm6.047-.925a7.535,7.535,0,0,0,.8-3.329v-.747H25.44v-28.3a3.958,3.958,0,0,1,7.913,0V66.887h-8.7ZM76.965,90.822H36.613V34.515a6.869,6.869,0,0,0-1.193-3.86H76.965V90.822Z" transform="translate(-11 -5)" fill="#78be20" stroke="#78be20" stroke-width="1"/><g transform="translate(33.518 38.202)"><path d="M73.292,42.357H52.479a1.679,1.679,0,1,1,0-3.357H73.292a1.721,1.721,0,0,1,1.679,1.679A1.531,1.531,0,0,1,73.292,42.357Z" transform="translate(-50.8 -39)" fill="#78be20"/></g><g transform="translate(33.518 45.841)"><path d="M73.292,42.357H52.479a1.679,1.679,0,1,1,0-3.357H73.292a1.721,1.721,0,0,1,1.679,1.679A1.531,1.531,0,0,1,73.292,42.357Z" transform="translate(-50.8 -39)" fill="#78be20"/></g><g transform="translate(33.518 54.436)"><path d="M73.292,42.357H52.479a1.679,1.679,0,1,1,0-3.357H73.292a1.721,1.721,0,0,1,1.679,1.679A1.531,1.531,0,0,1,73.292,42.357Z" transform="translate(-50.8 -39)" fill="#78be20"/></g><g transform="translate(33.518 62.076)"><path d="M73.292,42.357H52.479a1.679,1.679,0,1,1,0-3.357H73.292a1.721,1.721,0,0,1,1.679,1.679A1.531,1.531,0,0,1,73.292,42.357Z" transform="translate(-50.8 -39)" fill="#78be20"/></g><g transform="translate(45.933 76.401)"><path d="M74.788,42.357H64.479a1.679,1.679,0,1,1,0-3.357H74.788a1.721,1.721,0,0,1,1.679,1.679A1.531,1.531,0,0,1,74.788,42.357Z" transform="translate(-62.8 -39)" fill="#78be20"/></g><g transform="translate(10.599 7.642)"><path d="M73.292,42.357H52.479a1.679,1.679,0,1,1,0-3.357H73.292a1.721,1.721,0,0,1,1.679,1.679A1.531,1.531,0,0,1,73.292,42.357Z" transform="translate(-50.8 -39)" fill="#78be20"/></g><g transform="translate(10.599 15.282)"><path d="M73.292,42.357H52.479a1.679,1.679,0,1,1,0-3.357H73.292a1.721,1.721,0,0,1,1.679,1.679A1.531,1.531,0,0,1,73.292,42.357Z" transform="translate(-50.8 -39)" fill="#78be20"/></g></g></svg>