<svg xmlns="http://www.w3.org/2000/svg" width="19.924" height="20.898" viewBox="0 0 19.924 20.898"><g transform="translate(-210.991 -167.837)"><g transform="translate(211.491 168.336)"><path d="M243.515,251.862h-.345a1.182,1.182,0,0,0-.671-1.928v-7.906a7.242,7.242,0,0,0-14.484,0v7.906a1.182,1.182,0,0,0-.671,1.928H227a1.206,1.206,0,0,0-1.2,1.2v.415a1.206,1.206,0,0,0,1.2,1.2h16.515a1.206,1.206,0,0,0,1.2-1.2v-.415A1.205,1.205,0,0,0,243.515,251.862ZM235.257,235.2a6.832,6.832,0,0,1,6.825,6.825v7.883h-13.65v-7.883A6.832,6.832,0,0,1,235.257,235.2ZM227.478,251.1a.767.767,0,0,1,.767-.766H242.27a.766.766,0,0,1,0,1.533H228.244A.767.767,0,0,1,227.478,251.1Zm16.824,2.386a.788.788,0,0,1-.787.787H227a.788.788,0,0,1-.787-.787v-.415a.788.788,0,0,1,.787-.787h16.515a.788.788,0,0,1,.787.787v.415Z" transform="translate(-225.795 -234.787)" fill="#fff" stroke="#fff" stroke-width="1"/><path d="M268.665,252.026V254.5a.209.209,0,1,0,.417,0v-2.473a4.28,4.28,0,0,0-.869-2.6.209.209,0,0,0-.333.252A3.864,3.864,0,0,1,268.665,252.026Z" transform="translate(-254.667 -244.785)" fill="#fff" stroke="#fff" stroke-width="1"/></g><path d="M222.507,169.239l.006,14.588-7.2-.3s-.017-2.365,0-2.717.289-4.866.289-4.866a20.521,20.521,0,0,1,.483-2.934,10.916,10.916,0,0,1,1.1-2.108,9.01,9.01,0,0,1,2.22-1.663c.73-.223,2.307-.625,2.307-.625h.8Z" transform="translate(-1.554 -0.113)" fill="#fff"/></g></svg>