<svg xmlns="http://www.w3.org/2000/svg" width="32.931" height="34.576" viewBox="0 0 32.931 34.576"><g transform="translate(-210.991 -167.837)"><g transform="translate(211.491 168.336)"><path d="M255.693,263.6h-.581a1.994,1.994,0,0,0-1.132-3.252V247.006a12.22,12.22,0,0,0-24.439,0v13.339a1.994,1.994,0,0,0-1.132,3.252h-.581a2.035,2.035,0,0,0-2.032,2.032v.7a2.035,2.035,0,0,0,2.032,2.032h27.865a2.035,2.035,0,0,0,2.032-2.032v-.7A2.034,2.034,0,0,0,255.693,263.6ZM241.76,235.491a11.528,11.528,0,0,1,11.515,11.515v13.3H230.245v-13.3A11.528,11.528,0,0,1,241.76,235.491ZM228.634,262.3a1.3,1.3,0,0,1,1.293-1.293h23.665a1.293,1.293,0,0,1,0,2.586H229.928A1.294,1.294,0,0,1,228.634,262.3Zm28.387,4.027a1.33,1.33,0,0,1-1.328,1.328H227.827a1.33,1.33,0,0,1-1.328-1.328v-.7a1.33,1.33,0,0,1,1.328-1.328h27.866a1.33,1.33,0,0,1,1.328,1.328v.7Z" transform="translate(-225.795 -234.787)" fill="#ffa43b" stroke="#ffa43b" stroke-width="1"/><path d="M269.233,253.869v4.172a.352.352,0,1,0,.7,0v-4.172a7.221,7.221,0,0,0-1.466-4.384.352.352,0,0,0-.562.424A6.518,6.518,0,0,1,269.233,253.869Z" transform="translate(-245.615 -241.65)" fill="#ffa43b" stroke="#ffa43b" stroke-width="1"/></g><path d="M227.456,169.668l.01,24.614-12.146-.505s-.029-3.99,0-4.585.488-8.211.488-8.211a34.62,34.62,0,0,1,.814-4.951c.337-.565,1.193-3.009,1.85-3.556s2.514-2.429,3.746-2.805,3.893-1.054,3.893-1.054h1.346Z" fill="#ffa43b"/></g></svg>