<svg xmlns="http://www.w3.org/2000/svg" width="78.6" height="95.1" viewBox="0 0 78.6 95.1"><g transform="translate(0 0)"><path d="M84,2.5H30a5.335,5.335,0,0,0-5.3,5.3v8.7H16a5.335,5.335,0,0,0-5.3,5.3V92.3A5.335,5.335,0,0,0,16,97.6H70a5.335,5.335,0,0,0,5.3-5.3V83.6H84a5.335,5.335,0,0,0,5.3-5.3V7.8A5.4,5.4,0,0,0,84,2.5ZM71,92.2a.9.9,0,0,1-.9.9h-54a.987.987,0,0,1-1-.9V21.7a.923.923,0,0,1,1-.9h8.7V78.3a5.335,5.335,0,0,0,5.3,5.3H71ZM84.9,78.3a1,1,0,0,1-1,1H30a1,1,0,0,1-1-1V7.8a1,1,0,0,1,1-1H84a1,1,0,0,1,1,1V78.3Z" transform="translate(-10.7 -2.5)" fill="#78be20"/><path d="M73.1,53.3H40.9a2.2,2.2,0,0,0,0,4.4H73a2.22,2.22,0,0,0,2.2-2.2A2.136,2.136,0,0,0,73.1,53.3Z" transform="translate(-10.7 -2.5)" fill="#78be20"/><path d="M73.1,66.2H40.9a2.2,2.2,0,1,0,0,4.4H73a2.2,2.2,0,0,0,.1-4.4Z" transform="translate(-10.7 -2.5)" fill="#78be20"/><path d="M73.1,40.3H40.9a2.2,2.2,0,0,0,0,4.4H73a2.2,2.2,0,0,0,.1-4.4Z" transform="translate(-10.7 -2.5)" fill="#78be20"/><path d="M49.2,32.1a2.36,2.36,0,0,0,1.6.7,1.99,1.99,0,0,0,1.6-.7l13-13a2.116,2.116,0,0,0,0-3.1,2.3,2.3,0,0,0-3.1,0l-13,13A2.042,2.042,0,0,0,49.2,32.1Z" transform="translate(-10.7 -2.5)" fill="#78be20"/><circle cx="3.5" cy="3.5" r="3.5" transform="translate(37 12)" fill="#78be20"/><circle cx="3.5" cy="3.5" r="3.5" transform="translate(49.1 24.1)" fill="#78be20"/></g></svg>