<svg xmlns="http://www.w3.org/2000/svg" width="71.782" height="93.75" viewBox="0 0 71.782 93.75"><g transform="translate(0.5 0.501)"><path d="M72.962,3.625H15.2a6.514,6.514,0,0,0-6.509,6.509V89.866A6.517,6.517,0,0,0,15.2,96.375H72.962a6.517,6.517,0,0,0,6.509-6.509V10.134A6.514,6.514,0,0,0,72.962,3.625Zm3.254,86.241a3.261,3.261,0,0,1-3.254,3.254H15.2a3.258,3.258,0,0,1-3.254-3.254V10.134A3.256,3.256,0,0,1,15.2,6.879H72.962a3.258,3.258,0,0,1,3.254,3.254Z" transform="translate(-8.688 -3.625)" fill="#78be20" stroke="#78be20" stroke-width="1"/><path d="M67.2,7.375H13.5A1.622,1.622,0,0,0,11.875,9V32.6A1.625,1.625,0,0,0,13.5,34.224H67.2A1.628,1.628,0,0,0,68.827,32.6V9A1.625,1.625,0,0,0,67.2,7.375ZM65.572,30.969H15.129V10.629H65.572Z" transform="translate(-4.961 0.761)" fill="#78be20"/><path d="M24.487,23.875H13.5A1.622,1.622,0,0,0,11.875,25.5v8.544A1.625,1.625,0,0,0,13.5,35.673H24.487a1.628,1.628,0,0,0,1.627-1.627V25.5A1.625,1.625,0,0,0,24.487,23.875ZM22.86,32.419h-7.73V27.129h7.73Z" transform="translate(-4.961 20.059)" fill="#78be20"/><path d="M34.33,23.875H23.345A1.622,1.622,0,0,0,21.718,25.5v8.544a1.625,1.625,0,0,0,1.627,1.627H34.33a1.628,1.628,0,0,0,1.627-1.627V25.5A1.625,1.625,0,0,0,34.33,23.875ZM32.7,32.419h-7.73V27.129H32.7Z" transform="translate(6.552 20.059)" fill="#78be20"/><path d="M44.174,23.875H33.189A1.622,1.622,0,0,0,31.562,25.5v8.544a1.625,1.625,0,0,0,1.627,1.627H44.174A1.628,1.628,0,0,0,45.8,34.046V25.5A1.625,1.625,0,0,0,44.174,23.875Zm-1.627,8.544h-7.73V27.129h7.73Z" transform="translate(18.065 20.059)" fill="#78be20"/><path d="M24.487,30.625H13.5a1.622,1.622,0,0,0-1.627,1.627V40.8A1.625,1.625,0,0,0,13.5,42.423H24.487A1.628,1.628,0,0,0,26.114,40.8V32.252A1.625,1.625,0,0,0,24.487,30.625ZM22.86,39.169h-7.73V33.879h7.73Z" transform="translate(-4.961 27.954)" fill="#78be20"/><path d="M34.33,30.625H23.345a1.622,1.622,0,0,0-1.627,1.627V40.8a1.625,1.625,0,0,0,1.627,1.627H34.33A1.628,1.628,0,0,0,35.957,40.8V32.252A1.625,1.625,0,0,0,34.33,30.625ZM32.7,39.169h-7.73V33.879H32.7Z" transform="translate(6.552 27.954)" fill="#78be20"/><path d="M24.487,37.375H13.5A1.622,1.622,0,0,0,11.875,39v8.544A1.625,1.625,0,0,0,13.5,49.173H24.487a1.628,1.628,0,0,0,1.627-1.627V39A1.625,1.625,0,0,0,24.487,37.375ZM22.86,45.919h-7.73V40.629h7.73Z" transform="translate(-4.961 35.849)" fill="#78be20"/><path d="M34.33,37.375H23.345A1.622,1.622,0,0,0,21.718,39v8.544a1.625,1.625,0,0,0,1.627,1.627H34.33a1.628,1.628,0,0,0,1.627-1.627V39A1.625,1.625,0,0,0,34.33,37.375ZM32.7,45.919h-7.73V40.629H32.7Z" transform="translate(6.552 35.849)" fill="#78be20"/><path d="M44.174,30.625H33.189a1.622,1.622,0,0,0-1.627,1.627V55.441a1.625,1.625,0,0,0,1.627,1.627H44.174A1.628,1.628,0,0,0,45.8,55.441V32.252A1.625,1.625,0,0,0,44.174,30.625ZM42.547,53.814h-7.73V33.879h7.73Z" transform="translate(18.065 27.954)" fill="#78be20"/><rect width="3.916" height="3.916" transform="translate(53.498 24.892)" fill="#78be20"/><rect width="3.916" height="3.916" transform="translate(45.909 24.892)" fill="#78be20"/><rect width="3.916" height="3.916" transform="translate(38.311 24.892)" fill="#78be20"/><rect width="10.985" height="3.254" transform="translate(7.594 37.291)" fill="#78be20"/><rect width="5.491" height="3.254" transform="translate(23.458 37.291)" fill="#78be20"/></g></svg>