<svg xmlns="http://www.w3.org/2000/svg" width="86.67" height="77.988" viewBox="0 0 86.67 77.988"><g transform="translate(0.5 0.501)"><g transform="translate(16.522 25.193)"><path d="M31.82,33.055a7.265,7.265,0,1,1-7.265,7.265,7.3,7.3,0,0,1,7.265-7.265m0-1.055a8.32,8.32,0,1,0,8.32,8.32A8.352,8.352,0,0,0,31.82,32Z" transform="translate(-22.914 -31.414)" fill="#78be20" stroke="#78be20" stroke-width="1"/><path d="M31.906,49.311a8.906,8.906,0,1,1,8.906-8.906A8.9,8.9,0,0,1,31.906,49.311Zm0-15.468a6.562,6.562,0,1,0,6.562,6.562A6.551,6.551,0,0,0,31.906,33.844Z" transform="translate(-23 -31.5)" fill="#78be20" stroke="#78be20" stroke-width="1"/></g><g transform="translate(13.219 44.059)"><path d="M32.3,49.172c4.218,0,7.148,1.523,8.2,2.929l.117.117c0,.117.117.234.117.352v.117h0A29.944,29.944,0,0,1,42.5,59.249h0V59.6h0v.117a2.275,2.275,0,0,1-.586,1.875C40.155,63.585,35,64.053,32.3,64.053h-.352c-2.7,0-7.851-.469-9.609-2.461a2.275,2.275,0,0,1-.586-1.875V59.6h0v-.352h0a31.823,31.823,0,0,1,1.758-6.679v-.117h0a.409.409,0,0,1,.117-.234l.117-.234A12.816,12.816,0,0,1,32.3,49.172M32.3,48c-4.218,0-7.734,1.523-9.14,3.515h0a6.089,6.089,0,0,1-.352.586.115.115,0,0,1-.117.117,26.814,26.814,0,0,0-1.875,6.914.43.43,0,0,1-.117.352v.234h0c-.586,5.39,9.726,5.507,11.249,5.507h.469c1.523,0,11.835-.234,11.249-5.507h0v-.234a.43.43,0,0,0-.117-.352,26.814,26.814,0,0,0-1.875-6.914.115.115,0,0,0-.117-.117,2.613,2.613,0,0,0-.352-.586h0c-1.172-1.992-4.687-3.4-8.906-3.515Z" transform="translate(-20.096 -47.531)" fill="#78be20" stroke="#78be20" stroke-width="1"/><path d="M32.624,66.114h-.469c-1.875,0-8.32-.234-10.9-3.047A4.028,4.028,0,0,1,20.2,59.9v-.352c0-.234,0-.352.117-.469A23.971,23.971,0,0,1,22.2,52.17l.117-.117.352-.7.234-.234c1.641-2.109,5.273-3.515,9.491-3.515h0c4.218,0,7.851,1.406,9.491,3.515h0L42,51.35l.352.7-.469.469.586-.234a25.259,25.259,0,0,1,1.875,7.031.43.43,0,0,0,.117.352V59.9h0A4.028,4.028,0,0,1,43.4,63.068C40.944,65.88,34.5,66.114,32.624,66.114Zm-.234-2.344h.234c3.4,0,7.734-.7,9.14-2.226a1.868,1.868,0,0,0,.469-1.406l-.117-.586a21.617,21.617,0,0,0-1.758-6.445h0a.363.363,0,0,0-.117-.234.409.409,0,0,0-.117-.234h0c-.937-1.289-3.633-2.7-7.734-2.812-3.984,0-6.8,1.406-7.617,2.7l-.234.469a26.255,26.255,0,0,0-1.758,6.445l-.117.469a1.733,1.733,0,0,0,.469,1.523c1.406,1.523,5.742,2.226,9.14,2.226Z" transform="translate(-20.181 -47.6)" fill="#78be20" stroke="#78be20" stroke-width="1"/></g><g transform="translate(0 6.679)"><path d="M92.8,86.007H10.658A1.8,1.8,0,0,1,8.9,84.249V17.458A1.8,1.8,0,0,1,10.658,15.7H31.164a1.758,1.758,0,1,1,0,3.515H12.415V82.375H91.042V19.215H72.294a1.758,1.758,0,1,1,0-3.515H92.8a1.8,1.8,0,0,1,1.758,1.758V84.249A1.6,1.6,0,0,1,92.8,86.007Z" transform="translate(-8.9 -15.7)" fill="#78be20" stroke="#78be20" stroke-width="1"/></g><g transform="translate(22.03)"><path d="M67.541,26.171H29.458A1.8,1.8,0,0,1,27.7,24.413V11.758A1.8,1.8,0,0,1,29.458,10H67.424a1.8,1.8,0,0,1,1.758,1.758V24.413A1.63,1.63,0,0,1,67.541,26.171ZM31.333,22.655H65.783V13.633H31.333Z" transform="translate(-27.7 -10)" fill="#78be20" stroke="#78be20" stroke-width="1"/></g><g transform="translate(49.098 33.982)"><path d="M74.353,42.515h-21.8a1.758,1.758,0,1,1,0-3.515h21.8a1.8,1.8,0,0,1,1.758,1.758A1.6,1.6,0,0,1,74.353,42.515Z" transform="translate(-50.8 -39)" fill="#78be20"/></g><g transform="translate(49.098 42.887)"><path d="M74.353,50.115h-21.8a1.758,1.758,0,1,1,0-3.515h21.8a1.8,1.8,0,0,1,1.758,1.758A1.658,1.658,0,0,1,74.353,50.115Z" transform="translate(-50.8 -46.6)" fill="#78be20"/></g><g transform="translate(49.098 51.676)"><path d="M74.353,57.615h-21.8a1.758,1.758,0,1,1,0-3.515h21.8a1.8,1.8,0,0,1,1.758,1.758A1.658,1.658,0,0,1,74.353,57.615Z" transform="translate(-50.8 -54.1)" fill="#78be20"/></g></g></svg>