<svg xmlns="http://www.w3.org/2000/svg" width="92.039" height="92" viewBox="0 0 92.039 92"><g transform="translate(0.5 0.5)"><path d="M73.328,24a32.563,32.563,0,0,0-14.99,3.627,9.872,9.872,0,0,1,.722,2.851,29.6,29.6,0,0,1,6.433-2.588,28.965,28.965,0,0,0-5.813,10.688c-.194-.1-.379-.213-.57-.316v25.2a5.66,5.66,0,0,1-1.288,3.6c.279,1.738.627,3.41,1.04,5A32.54,32.54,0,0,0,52,76.62v4.864A32.7,32.7,0,1,0,73.328,24ZM53.53,79.042a29.678,29.678,0,0,1,6.148-4.213,28.969,28.969,0,0,0,5.811,10.687A29.746,29.746,0,0,1,53.53,79.042Zm18.376,7.344c-3.92-.96-7.4-5.83-9.6-12.752a29.615,29.615,0,0,1,9.6-2.066Zm0-17.661A32.437,32.437,0,0,0,61.53,70.879,58.265,58.265,0,0,1,59.87,58.125H71.906Zm0-13.443H59.87a58.266,58.266,0,0,1,1.66-12.754,32.435,32.435,0,0,0,10.375,2.155Zm0-13.443a29.614,29.614,0,0,1-9.6-2.065c2.2-6.923,5.676-11.792,9.6-12.752Zm21.219-7.474a29.679,29.679,0,0,1-6.149,4.213A28.967,28.967,0,0,0,81.164,27.89a29.746,29.746,0,0,1,11.961,6.474ZM74.75,27.021c3.92.96,7.4,5.83,9.6,12.752a29.614,29.614,0,0,1-9.6,2.066Zm0,17.661a32.437,32.437,0,0,0,10.375-2.155,58.266,58.266,0,0,1,1.661,12.754H74.75Zm0,13.443H86.786a58.267,58.267,0,0,1-1.66,12.754A32.435,32.435,0,0,0,74.75,68.724Zm0,28.26V71.568a29.614,29.614,0,0,1,9.6,2.065C82.146,80.556,78.67,85.425,74.75,86.385Zm6.416-.87a28.97,28.97,0,0,0,5.811-10.687,29.685,29.685,0,0,1,6.148,4.213,29.746,29.746,0,0,1-11.959,6.474Zm14.007-8.462a32.526,32.526,0,0,0-7.378-5,60.75,60.75,0,0,0,1.826-13.93h13.529a29.73,29.73,0,0,1-7.978,18.929ZM89.621,55.281a60.742,60.742,0,0,0-1.827-13.93,32.522,32.522,0,0,0,7.378-5,29.73,29.73,0,0,1,7.978,18.929Z" transform="translate(-15.031 -6.937)" fill="#78be20" stroke="#78be20" stroke-width="1"/><path d="M2.844,66.445H7.11V93.674a4.218,4.218,0,0,0,1.2,3.1,4.262,4.262,0,0,0,3.09,1.308H29.836a4.262,4.262,0,0,0,3.09-1.308,4.188,4.188,0,0,0,1.2-3.052V66.445h4.266A2.844,2.844,0,0,0,41.234,63.6V31.609A7.117,7.117,0,0,0,34.125,24.5H32.3a13.585,13.585,0,0,1-2.189,2.844h4.017a4.266,4.266,0,0,1,4.266,4.266V63.6H34.125V54a1.422,1.422,0,1,0-2.844,0V93.769a1.4,1.4,0,0,1-.4,1.028,1.444,1.444,0,0,1-1.046.442h-7.8V70A1.422,1.422,0,0,0,19.2,70V95.238H11.4a1.435,1.435,0,0,1-1.443-1.517V54a1.422,1.422,0,1,0-2.844,0v9.6H2.844V31.609a4.266,4.266,0,0,1,4.266-4.266h4.017A13.586,13.586,0,0,1,8.937,24.5H7.109A7.117,7.117,0,0,0,0,31.609V63.6a2.844,2.844,0,0,0,2.844,2.844Z" transform="translate(0 -7.082)" fill="#78be20" stroke="#78be20" stroke-width="1"/><path d="M35.328,10.664A10.664,10.664,0,1,0,24.664,21.328,10.664,10.664,0,0,0,35.328,10.664Zm-10.664,7.82a7.82,7.82,0,1,1,7.82-7.82,7.82,7.82,0,0,1-7.82,7.82Z" transform="translate(-4.047)" fill="#78be20" stroke="#78be20" stroke-width="1"/></g></svg>