<svg xmlns="http://www.w3.org/2000/svg" width="26.776" height="39.684" viewBox="0 0 26.776 39.684"><g transform="translate(-27.8 -17.1)"><g transform="translate(27.8 17.1)"><path d="M50.355,56.782H32.022A4.234,4.234,0,0,1,27.8,52.561V21.322A4.234,4.234,0,0,1,32.022,17.1H50.355a4.234,4.234,0,0,1,4.222,4.222V52.561A4.2,4.2,0,0,1,50.355,56.782ZM32.022,18.849a2.484,2.484,0,0,0-2.473,2.473V52.561a2.484,2.484,0,0,0,2.473,2.473H50.355a2.484,2.484,0,0,0,2.473-2.473V21.322a2.484,2.484,0,0,0-2.473-2.473Z" transform="translate(-27.8 -17.1)" fill="#616a71"/><g transform="translate(10.674 31.119)"><path d="M48.214,74.128a2.714,2.714,0,1,1,2.714-2.714A2.7,2.7,0,0,1,48.214,74.128Zm0-3.618a.9.9,0,1,0,.9.9A.928.928,0,0,0,48.214,70.509Z" transform="translate(-45.5 -68.7)" fill="#616a71"/></g><g transform="translate(9.589 3.015)"><path d="M50.454,23.909H44.6a.9.9,0,1,1,0-1.809h5.85a.9.9,0,0,1,0,1.809Z" transform="translate(-43.7 -22.1)" fill="#616a71"/></g></g></g></svg>