<svg xmlns="http://www.w3.org/2000/svg" width="96.379" height="96.379" viewBox="0 0 96.379 96.379"><g transform="translate(142.75 -206.371)"><path d="M91.123,86.787H24.646a1.445,1.445,0,1,0,0,2.89H91.123a1.445,1.445,0,1,0,0-2.89ZM57.885,63.665h-2.89a1.446,1.446,0,0,0-1.445,1.445v4.335H49.214a1.446,1.446,0,0,0-1.445,1.445v2.89a1.446,1.446,0,0,0,1.445,1.445h4.335v4.335a1.446,1.446,0,0,0,1.445,1.445h2.89a1.447,1.447,0,0,0,1.445-1.445V75.226h4.335a1.447,1.447,0,0,0,1.445-1.445v-2.89a1.447,1.447,0,0,0-1.445-1.445H59.33V65.11A1.447,1.447,0,0,0,57.885,63.665ZM28.559,43.01l2.467-2.467H35.61l2.467,2.467a1.445,1.445,0,1,0,2.043-2.044l-2.89-2.89a1.448,1.448,0,0,0-1.022-.423H30.427a1.45,1.45,0,0,0-1.022.423l-2.89,2.89a1.445,1.445,0,0,0,2.044,2.044ZM96.9,54.994H89.323L83.842,35.811a1.462,1.462,0,0,0-.368-.625l-5.357-5.357v-.846h1.445a1.446,1.446,0,0,0,1.445-1.445c0-4.25,0-12.16-3.313-15.473-.339-.339-3.411-3.313-6.8-3.313s-6.464,2.975-6.8,3.313c-3.313,3.313-3.313,11.526-3.313,15.473a1.446,1.446,0,0,0,1.445,1.445h1.445v.846l-5.357,5.357a1.428,1.428,0,0,0-.368.625L52.459,54.994H15.976A7.235,7.235,0,0,0,8.75,62.22v40.464a1.445,1.445,0,0,0,2.89,0V62.22a4.341,4.341,0,0,1,4.335-4.335H96.9a4.341,4.341,0,0,1,4.335,4.335v40.464a1.445,1.445,0,0,0,2.89,0V62.22A7.236,7.236,0,0,0,96.9,54.994Zm-15.9,0V50.659a1.445,1.445,0,1,0-2.89,0v4.335H63.665V50.659a1.445,1.445,0,1,0-2.89,0v4.335h-5.31l5.152-18.03,5.516-5.516a1.446,1.446,0,0,0,.423-1.022v-2.89a1.446,1.446,0,0,0-1.445-1.445H63.671c.038-3.586.324-9.848,2.461-11.984.64-.64,2.888-2.467,4.759-2.467s4.069,1.783,4.759,2.467c2.153,2.154,2.428,8.28,2.463,11.984H76.671a1.446,1.446,0,0,0-1.445,1.445v2.89a1.448,1.448,0,0,0,.423,1.022l5.516,5.516,5.152,18.03ZM27.537,52.1a1.446,1.446,0,0,0,1.445-1.445,4.335,4.335,0,1,1,8.671,0,1.445,1.445,0,0,0,2.89,0,7.226,7.226,0,0,0-14.451,0A1.446,1.446,0,0,0,27.537,52.1Z" transform="translate(-151 198.121)" fill="#78be20" stroke="#78be20" stroke-width="1"/></g></svg>