<svg xmlns="http://www.w3.org/2000/svg" width="242.734" height="121.654" viewBox="0 0 242.734 121.654"><g transform="translate(-69 -22)"><path d="M343.406,12.916a76.55,76.55,0,0,0-3.465,22.965v.224c-.064,33.224,19.664,59.383,43.174,59.4S426.4,69.48,426.458,36.246v-.227a75.728,75.728,0,0,0-3.449-23.1c-6.638-21.429-22.079-36.054-39.727-36.054C365.641-23.19,350.12-8.6,343.406,12.915m-4.951,22.943A78.783,78.783,0,0,1,342,12.452c6.835-21.813,22.775-37.122,41.3-37.1,18.5.034,34.351,15.321,41.151,37.107a79.175,79.175,0,0,1,3.486,23.564v.224c-.036,33.588-20.1,60.785-44.828,60.758-24.715-.049-44.7-27.323-44.648-60.912Z" transform="translate(-269.455 46.644)" fill="#fff"/><path d="M384.64-15.831c-.55-2.228-2.21-3.163-4.69-2.566a8.078,8.078,0,0,0-2.733.971v.35l.921-.107,1.432,5.812-.583.3a.366.366,0,0,0-.212.472.438.438,0,0,0,.026.055c.236-.036,1-.274,1.509-.392.566-.168,1.336-.278,1.664-.378a3.424,3.424,0,0,0,2.818-3.939,3.376,3.376,0,0,0-.15-.581m-2.711,3.9a4.54,4.54,0,0,1-1.4.221l-1.438-5.9c2.614-.631,4.05.173,4.6,2.4a2.535,2.535,0,0,1-1.571,3.224c-.062.021-.124.04-.187.057" transform="translate(-273.841 45.957)" fill="#fff"/><path d="M399.664-14.029c.663-2.09-.015-3.523-1.9-4.121-2.18-.729-4.062.469-4.825,2.8-.614,1.973-.066,3.519,1.8,4.163,2.18.709,4.105-.327,4.927-2.843m-1.172.14c-.616,1.893-1.839,2.553-3.158,2.116-1.3-.434-1.91-1.662-1.179-3.765.495-1.651,1.626-2.505,3.037-2.019,1.62.506,1.846,2.009,1.3,3.669" transform="translate(-275.593 45.933)" fill="#fff"/><path d="M405.7-6.022a3.41,3.41,0,0,1-.523-1.648l-.3-2.813a2.238,2.238,0,0,0,2.345-1.04c.631-1,.256-2.165-1.058-2.99-1.62-1-2.3-1.336-2.5-1.018l-.064.12.709.58L401.13-9.754l-.661-.185a.375.375,0,0,0-.482.221l-.008.024a11.281,11.281,0,0,1,1.088.645c.424.247.753.484,1.146.715a.468.468,0,0,0,.635-.081l-.867-.78,1.255-1.994.672.433.168,2.915c.1,1.119.338,1.436.9,1.771a.59.59,0,0,0,.724.049m.506-5.855a1.5,1.5,0,0,1-2,.725,1.543,1.543,0,0,1-.31-.194l-.4-.269,1.737-2.79.435.259a1.513,1.513,0,0,1,.682,2.027,1.551,1.551,0,0,1-.15.242" transform="translate(-276.417 45.626)" fill="#fff"/><path d="M363.387-1.251c-.924-.774-1.682-.571-2.855.129-.928.513-1.6.717-2.105.265a1.216,1.216,0,0,1,0-1.7,3.358,3.358,0,0,1,.931-.873l.81.694a.491.491,0,0,0,.2-.667.491.491,0,0,0-.145-.165l-.856-.841a12.328,12.328,0,0,0-1.306,1.25,2.351,2.351,0,0,0,.027,3.325l.017.016c.607.495,1.393.489,2.43-.108,1.437-.8,2.037-.753,2.5-.317a1.382,1.382,0,0,1,.036,1.847c-.7.84-1.349.958-2.151.285a.82.82,0,0,0,0,1.16l.038.036c.717.586,1.6.179,2.4-.786a2.541,2.541,0,0,0,.033-3.544" transform="translate(-271.597 44.354)" fill="#fff"/><path d="M367.007-9.315l-1.519-1.367a18.716,18.716,0,0,1-2.025,2.108c-.663.628-1.4,1.258-2.239,2.078l1.22,1.611c.275-.171.356-.35.076-1.025l-.3-.623c.357-.35.81-.76,1.2-1.143l4.151,4.32-.436.681a.315.315,0,0,0,.045.443.313.313,0,0,0,.107.057c.188-.232.623-.64,1.059-1.062.356-.365.685-.657.92-.873a.4.4,0,0,0,.1-.563.429.429,0,0,0-.061-.071l-.978.657-4.144-4.3a11.958,11.958,0,0,0,1.2-1.215l.864.484a.474.474,0,0,0,.669-.045.473.473,0,0,0,.09-.157" transform="translate(-272.032 45.064)" fill="#fff"/><path d="M373.745-16.277l-1.813,1.065c-.318.192-.382.464-.219.654l.826-.31,1.215,5.394-4.212-3.636.516-.365a.585.585,0,0,0,.185-.759l-2.064,1.179c-.3.183-.441.523-.245.764l.66-.263,5.451,4.745a1.341,1.341,0,0,0,.505-1.444l-1.278-5.923c.645-.3.783-.633.473-1.1" transform="translate(-272.781 45.697)" fill="#fff"/><path d="M390.231-12.705l-1.056-.2.114-6.075.532-.034c.349-.027.482-.137.447-.5-2.116-.058-2.276-.058-2.276-.058-.419,0-.635.149-.586.49l.876.1-.12,6.067-.672.123c-.333.081-.4.254-.355.474.318-.017.845,0,1.345.006a12.1,12.1,0,0,1,1.229.036.448.448,0,0,0,.514-.372.3.3,0,0,0,0-.05" transform="translate(-274.962 46.07)" fill="#fff"/><path d="M415.838-6.7l-1.519-1.465c-.28-.265-.551-.233-.679,0l.513.679L409.337-4.82l2.3-5.08.5.395a.548.548,0,0,0,.776,0l.013-.013-1.7-1.677c-.271-.23-.619-.28-.787-.021l.452.569-3.1,6.58a1.372,1.372,0,0,0,1.5.063l5.395-2.817c.45.506.8.545,1.162.114" transform="translate(-277.301 45.144)" fill="#fff"/><path d="M416.355,6.137l-.3-.8,4.614-3.856c.573.633.845.717,1.067.462L420.618.233,414.746,1.7l3.5-5-.775-1.163c-.246-.365-.553-.365-.72-.145l.317.894L411.85-.982l-.506-.442a.354.354,0,0,0-.5.029l-.02.025c.188.251.448.607.667.968.219.337.441.667.62.933a.385.385,0,0,0,.6.177l-.405-1,4.2-2.384-3.4,4.878a1.259,1.259,0,0,0,1.109.286L419.4,1.161l-3.917,3.307-.517-.49a.369.369,0,0,0-.519.023c.2.291.439.657.667,1,.257.362.443.679.615.918a.424.424,0,0,0,.542.258.411.411,0,0,0,.089-.043" transform="translate(-277.644 44.394)" fill="#fff"/><path d="M350.94,79.308l1.1,1.794c.192.355.466.372.631.193l-.3-.818,5.336-1.294-3.552,4.283-.365-.485c-.251-.344-.568-.344-.751-.189l1.205,2.036c.182.3.535.441.744.242l-.243-.662,4.657-5.568a1.307,1.307,0,0,0-1.449-.449l-5.911,1.358c-.291-.647-.654-.755-1.1-.441" transform="translate(-270.868 34.991)" fill="#fff"/><path d="M347.43,69.467l.688,1.86c.13.377.405.538.7.36l-.239-.889,4.759-1.7-3.863,5.99.349.986c.156.443.507.468.648.3l-.132-.888,5.58-2.037.388.565a.332.332,0,0,0,.452.122.394.394,0,0,0,.054-.039,11,11,0,0,1-.415-1.068c-.152-.447-.28-.852-.388-1.148a.427.427,0,0,0-.536-.275l-.031.012.2,1.065L351.19,74.3l3.4-5.163c.3-.451.349-.694.252-.936l-.245-.425-6.277,2.282-.225-.405c-.152-.3-.328-.344-.663-.183" transform="translate(-270.47 36.185)" fill="#fff"/><path d="M352.222,62.767l.1,1.033-5.854,1.579-.187-.5c-.13-.327-.28-.426-.614-.3.537,2.057.584,2.215.584,2.215.107.405.328.569.624.413l-.158-.846,5.857-1.556.3.614c.2.286.394.318.56.188-.086-.3-.227-.8-.361-1.288a11.931,11.931,0,0,1-.291-1.2c-.075-.28-.269-.448-.559-.356" transform="translate(-270.271 36.756)" fill="#fff"/><path d="M344.21,55.959l.388,2.085c.043.394.314.506.533.421l-.017-.889,5.481.694L345.744,61l-.177-.581a.53.53,0,0,0-.6-.457l-.057.011.436,2.342c.038.372.317.607.614.463l-.033-.679,6.338-3.517a1.336,1.336,0,0,0-1.161-.947l-6.049-.862c-.027-.678-.293-.93-.85-.81" transform="translate(-270.106 37.526)" fill="#fff"/><path d="M348.943,48.033c-.087.286.013.56.488.691l.822.231.146,2.673-2.625.278-.2-1.991.732-.034a.492.492,0,0,0-.357-.6.481.481,0,0,0-.192-.01c-.494.059-.917.092-1.579.135l.123.462c.137.141.261.141.607.1l.231,2.011-2.632.252-.168-2.451,1.044-.254c.054-.3-.1-.586-.449-.535l-1.348.216.4,3.809c.1,1.1.3,1.16.619,1.052l-.023-.819,6.013-.607.2.58a.366.366,0,0,0,.465.227.348.348,0,0,0,.042-.018l-.523-5.193Z" transform="translate(-270.036 38.42)" fill="#fff"/><path d="M350.656,39.792a3.283,3.283,0,0,1-1.055,1.373l-2.2,1.751a2.252,2.252,0,0,0-2.143-1.407c-1.187.049-1.946.992-1.924,2.521.045,1.924.126,2.679.512,2.673l.119-.023.092-.9,6-.1.2.678a.344.344,0,0,0,.4.271.264.264,0,0,0,.043-.012c-.04-.49-.04-.793-.04-1.282-.014-.455,0-.867-.014-1.343a.478.478,0,0,0-.431-.479l-.144,1.159-2.394.033v-.787l2.36-1.758c.877-.709,1.007-1.067,1-1.721a.664.664,0,0,0-.388-.646m-5.137,2.762a1.577,1.577,0,0,1,1.708,1.432,1.626,1.626,0,0,1,0,.255,2.6,2.6,0,0,1-.028.463l-3.275.053c-.015-.183-.03-.365-.03-.5a1.539,1.539,0,0,1,1.619-1.707" transform="translate(-270.007 39.352)" fill="#fff"/><path d="M349.191,33.909c-1.234-.043-1.68.626-2.189,1.917-.357.976-.748,1.532-1.461,1.525a1.226,1.226,0,0,1-1.046-1.309,4.16,4.16,0,0,1,.208-1.31l1.05.048c.075-.35-.035-.667-.506-.673l-1.146-.146a8.048,8.048,0,0,0-.252,1.833,2.327,2.327,0,0,0,2.081,2.551l.027,0c.8,0,1.4-.493,1.862-1.619.6-1.547,1.044-1.848,1.721-1.833A1.385,1.385,0,0,1,350.73,36.3c-.028,1.142-.443,1.62-1.507,1.6a.81.81,0,0,0,.709.9.646.646,0,0,0,.083.005c.936.027,1.372-.9,1.417-2.105A2.605,2.605,0,0,0,349.2,33.91" transform="translate(-270.064 40.018)" fill="#fff"/><path d="M351.61,29.879l-.365,1.013-5.967-1.062.021-.554c.054-.329-.043-.505-.4-.517-.362,2.1-.389,2.285-.389,2.285-.086.388.027.614.356.614l.231-.826,5.944,1.035.039.723c.027.349.183.435.425.405.027-.334.119-.835.189-1.335.086-.485.187-.917.242-1.2a.4.4,0,0,0-.184-.543.432.432,0,0,0-.139-.04" transform="translate(-270.137 40.601)" fill="#fff"/><path d="M348.4,20.858l-2.018-.324a18.476,18.476,0,0,1-.614,2.849c-.231.912-.536,1.8-.817,2.921l1.883.751c.184-.317.141-.494-.479-.9l-.544-.375c.1-.49.265-1.073.413-1.6L352,25.62v.8a.35.35,0,0,0,.315.382.3.3,0,0,0,.057,0c.055-.329.2-.923.348-1.5.129-.472.275-.945.332-1.215.1-.291-.018-.469-.3-.588l-.49,1.114-5.795-1.463a9.931,9.931,0,0,0,.4-1.655l.977-.042c.388-.021.561-.177.561-.6" transform="translate(-270.19 41.532)" fill="#fff"/><path d="M356.043,14.83l-.478.733-7.248-.083-.186.411a.661.661,0,0,0,.257.851L353.4,21.1l-.054.571a.329.329,0,0,0,.319.34h.016c.1-.286.239-.661.38-.99a11.169,11.169,0,0,1,.443-1.114.434.434,0,0,0-.191-.583l-.012-.005-.56.975-1.795-1.476.891-2.279,2.282.081-.137.868a.3.3,0,0,0,.253.347.394.394,0,0,0,.056,0c.086-.291.265-.746.44-1.176.183-.517.372-.965.484-1.255a.381.381,0,0,0-.082-.532.377.377,0,0,0-.089-.049m-3.868,1.712-.733,1.9L348.976,16.4Z" transform="translate(-270.543 42.177)" fill="#fff"/><path d="M357.159,8.362c-1.04-.55-1.764-.189-2.787.744-.753.729-1.357,1.035-1.992.678a1.216,1.216,0,0,1-.344-1.649,4.042,4.042,0,0,1,.777-1.065l.911.529a.49.49,0,0,0-.135-.825l-.968-.64a8.663,8.663,0,0,0-1.041,1.519,2.32,2.32,0,0,0,.685,3.207l.03.019c.709.373,1.466.194,2.388-.607,1.222-1.1,1.8-1.153,2.384-.835a1.377,1.377,0,0,1,.372,1.812c-.475.963-1.094,1.215-2.025.717a.81.81,0,0,0,.232,1.122.541.541,0,0,0,.049.029c.81.448,1.62-.177,2.2-1.238a2.594,2.594,0,0,0-.736-3.517" transform="translate(-270.898 43.161)" fill="#fff"/><path d="M422.216,19.031l-.2-.871,5.274-4.988-.135-.428a.689.689,0,0,0-.736-.445l-6.682.395-.338-.481a.393.393,0,0,0-.523,0,4.733,4.733,0,0,1,.456.96c.153.419.353.826.436,1.132a.422.422,0,0,0,.53.268l-.221-1.092,2.287-.191.933,2.253-1.7,1.518-.481-.688a.352.352,0,0,0-.492-.071l-.014.012a11.434,11.434,0,0,1,.532,1.168c.21.491.38.957.521,1.234a.426.426,0,0,0,.507.325.4.4,0,0,0,.043-.012m1.555-3.9-.781-1.889,3.212-.252Z" transform="translate(-278.556 42.485)" fill="#fff"/><path d="M431.289,25.767l-.533-1.915c-.091-.4-.344-.562-.638-.4l.177.856-4.9,1.3,4.353-5.625-.257-1.018c-.158-.464-.458-.517-.648-.372l.075.933-5.735,1.518-.332-.592a.338.338,0,0,0-.445-.175.323.323,0,0,0-.08.05,10.182,10.182,0,0,1,.346,1.114c.12.446.183.84.276,1.157a.43.43,0,0,0,.51.331l.011,0-.074-1.1,4.562-1.229-3.827,4.866c-.344.43-.405.667-.344.911a1.536,1.536,0,0,0,.215.448L430.47,25.1l.162.421c.129.294.287.361.651.239" transform="translate(-278.946 41.759)" fill="#fff"/><path d="M429.426,35.507c2.3-.329,3.385-1.88,3.037-4.374-.286-2.025-.5-2.632-.66-2.824l-.32-.036v.918l-5.909.826-.252-.607a.362.362,0,0,0-.435-.27.405.405,0,0,0-.09.035c.059.236.179,1,.262,1.529.06.6.135,1.362.171,1.691a3.4,3.4,0,0,0,3.593,3.2,3.512,3.512,0,0,0,.608-.09m-3.6-3.065a7.331,7.331,0,0,1-.071-1.429l6.027-.825c.371,2.661-.569,4.009-2.846,4.336a2.578,2.578,0,0,1-3.083-1.947c-.01-.044-.02-.09-.027-.136" transform="translate(-279.226 40.656)" fill="#fff"/><path d="M426.485,41.6l.129-1.073,6.055-.3.068.537c.03.341.168.482.536.389-.117-2.091-.117-2.285-.117-2.285-.027-.4-.177-.607-.533-.506l-.021.842-6.035.3-.173-.668a.387.387,0,0,0-.436-.33.376.376,0,0,0-.075.019c.045.338.068.855.1,1.363,0,.478.039.905.034,1.215a.441.441,0,0,0,.38.494.465.465,0,0,0,.086,0" transform="translate(-279.349 39.518)" fill="#fff"/><path d="M432.967,51.265l.092-1.965c.03-.443-.152-.664-.49-.589l-.139.864-5.02-.275,5.872-3.993.045-1.062c.035-.5-.255-.651-.482-.55l-.208.912-5.912-.344-.167-.652a.323.323,0,0,0-.346-.3.347.347,0,0,0-.079.016c-.009.3-.009.717-.049,1.164-.018.441-.057.871-.078,1.172a.425.425,0,0,0,.364.478l.024,0,.243-1.073,4.733.255-5.11,3.442c-.459.3-.588.513-.608.75a.978.978,0,0,0,.058.491l6.676.365.044.451c.02.341.171.454.537.431" transform="translate(-279.322 38.954)" fill="#fff"/><path d="M426.345,58.367c.171-.28.129-.577-.268-.787l-.761-.458.541-2.632,2.623.425-.3,1.961-.733-.145a.488.488,0,0,0,.377.7l1.575.3.008-.473c-.113-.176-.243-.221-.576-.28l.283-1.965,2.628.419-.481,2.407-1.082-.011c-.1.259-.036.572.276.607l1.388.129.62-3.788c.17-1.067,0-1.168-.363-1.142l-.2.783-5.96-.943-.053-.62a.331.331,0,0,0-.325-.337.307.307,0,0,0-.081.008l-.816,5.152Z" transform="translate(-279.21 37.912)" fill="#fff"/><path d="M429.309,69.033l.5-1.869c.113-.405,0-.673-.372-.685l-.3.823L424.252,66l6.6-2.7.27-1.013c.147-.5-.114-.678-.355-.646l-.405.862-5.719-1.574.006-.682a.32.32,0,0,0-.284-.352.313.313,0,0,0-.1.006,10.449,10.449,0,0,1-.284,1.122c-.107.425-.23.81-.326,1.125a.416.416,0,0,0,.253.531.37.37,0,0,0,.044.013l.475-.981,4.557,1.234-5.738,2.291c-.5.2-.676.376-.747.607l-.033.475,6.435,1.767-.048.419c-.039.369.091.52.447.529" transform="translate(-278.962 37.078)" fill="#fff"/><path d="M422.186,73.7c1.1.431,1.755.015,2.685-1.026.679-.78,1.277-1.155,1.914-.885a1.222,1.222,0,0,1,.526,1.609,6.439,6.439,0,0,1-.654,1.141l-.968-.44a.513.513,0,0,0,.041.725.5.5,0,0,0,.162.1l1.059.556a9.937,9.937,0,0,0,.856-1.648,2.307,2.307,0,0,0-1-3.106l-.038-.02c-.733-.3-1.51-.058-2.291.851-1.131,1.215-1.705,1.325-2.294,1.067a1.415,1.415,0,0,1-.624-1.728c.446-1.035,1.023-1.343,1.977-.945a.8.8,0,0,0-.287-1.093c-.027-.016-.057-.03-.086-.043-.885-.355-1.605.339-2.059,1.486a2.523,2.523,0,0,0,1.078,3.4h0" transform="translate(-278.776 36.078)" fill="#fff"/><path d="M418.886,76.811l.673-.85,5.325,2.859-.188.491c-.167.338-.1.516.221.645,1.017-1.869,1.1-2.009,1.1-2.009.177-.388.143-.652-.176-.748l-.474.727-5.339-2.861.174-.653c.1-.346-.035-.505-.234-.532a9.727,9.727,0,0,1-.633,1.2c-.221.432-.426.8-.569,1.053a.435.435,0,0,0,.037.615.5.5,0,0,0,.085.059" transform="translate(-278.531 35.495)" fill="#fff"/><path d="M417.344,82.849c1.05.624,1.75.3,2.835-.566.84-.657,1.462-.9,2.061-.535a1.252,1.252,0,0,1,.219,1.687,5.867,5.867,0,0,1-.827.981l-.891-.583c-.218.275-.3.583.083.851l.912.69a8.114,8.114,0,0,0,1.146-1.438,2.316,2.316,0,0,0-.462-3.241l-.032-.023c-.653-.442-1.454-.291-2.417.436-1.281,1-1.884,1.034-2.441.651a1.409,1.409,0,0,1-.266-1.814c.575-.928,1.2-1.131,2.079-.583a.776.776,0,0,0-.1-1.093.814.814,0,0,0-.091-.066c-.787-.506-1.634.045-2.3,1.084a2.67,2.67,0,0,0,.484,3.561" transform="translate(-278.274 35.027)" fill="#fff"/><path d="M374.832,101.429a.445.445,0,0,0-.616-.124.453.453,0,0,0-.1.092l-.614.576a3.537,3.537,0,0,1-1.485-.494c-1.262-.662-1.791-2.025-.651-4.15a2.509,2.509,0,0,1,3.729-1.179,3.617,3.617,0,0,1,1.021.764l-.563.894c.257.265.522.243.834-.134l.664-.928a5.88,5.88,0,0,0-1.451-1.128,3.764,3.764,0,0,0-5.388,1.609c-1.157,2.11-.622,3.777,1.177,4.729a5.74,5.74,0,0,0,2.46.673Z" transform="translate(-272.98 33.098)" fill="#fff"/><path d="M384.3,106.081l-.974-.447,1.48-5.9.469.1c.363,0,.562-.033.617-.383-2.057-.506-2.2-.548-2.2-.548-.4-.1-.639-.021-.672.333l.834.242-.658,2.553-3.837-.937L380,98.543l.56.1c.37.027.556-.015.613-.371-2.077-.535-2.3-.584-2.3-.584-.43-.1-.678-.02-.678.332l.823.263-1.485,5.9H376.8c-.257,0-.4.183-.348.372.311.081.842.176,1.394.341a8.089,8.089,0,0,1,1.059.269.5.5,0,0,0,.666-.228.318.318,0,0,0,.016-.035l-1.071-.47.7-2.7,3.821.932-.676,2.742-.759-.006a.336.336,0,0,0-.361.31.356.356,0,0,0,0,.062c.356.072.9.2,1.451.35a10.923,10.923,0,0,1,1.062.263.45.45,0,0,0,.546-.3" transform="translate(-273.753 32.805)" fill="#fff"/><path d="M391.648,106.273l-1.077-.13-.3-6.075.5-.081c.395-.02.523-.149.446-.5-2.112.092-2.275.1-2.275.1-.426,0-.637.194-.547.506l.876.044.29,6.049-.646.188c-.334.092-.394.291-.3.485.3-.044.825-.071,1.358-.1.483-.023.884-.044,1.2-.029a.439.439,0,0,0,.483-.39.391.391,0,0,0,0-.073" transform="translate(-275.103 32.597)" fill="#fff"/><path d="M400.055,102.579a.506.506,0,0,0-.588.409.523.523,0,0,0-.008.091l-.057.953-2.632.668-1.721-5.719.6-.243c.334-.135.479-.276.315-.626l-2.3.7c-.4.123-.565.329-.4.631l.792-.158,1.769,5.771-.541.381a.291.291,0,0,0-.136.39.276.276,0,0,0,.046.069l5-1.477Z" transform="translate(-275.651 32.753)" fill="#fff"/><path d="M406.68,98.851c-.3,0-.516.228-.424.709l.135.836L404,101.64l-1.325-2.3,1.74-1.012.333.662a.471.471,0,0,0,.4-.534.483.483,0,0,0-.07-.189c-.255-.419-.443-.81-.772-1.417l-.364.274c-.08.227,0,.334.158.653l-1.751,1-1.324-2.291,2.175-1.141.7.831c.249-.08.464-.341.249-.615l-.721-1.143-3.3,1.9c-.992.568-.931.72-.709,1.007l.757-.341,2.984,5.209-.434.451a.368.368,0,0,0-.018.521l.018.018,4.515-2.611Z" transform="translate(-276.338 33.171)" fill="#fff"/><path d="M361.562,90.252a1.494,1.494,0,0,1,1.474-1.513h.023a1.52,1.52,0,0,1,1.505,1.507,1.5,1.5,0,0,1-3,.084c0-.027,0-.052,0-.078" transform="translate(-272.07 33.813)" fill="#fff"/><path d="M412.723,90.338a1.492,1.492,0,0,1,1.463-1.519h.038a1.519,1.519,0,0,1-.012,3.037,1.5,1.5,0,0,1-1.491-1.508v-.011" transform="translate(-277.859 33.804)" fill="#fff"/><path d="M415.021,37.878a62.807,62.807,0,0,0-2.848-19.1C406.5.514,394.742-7.9,385.166-7.912,375.553-7.927,363.742.476,358.013,18.8a65.672,65.672,0,0,0-2.852,19.215c-.043,29.877,17.185,46.022,29.853,46.037,12.684.027,29.961-16.3,30.006-46.177m-30.452-.329-28.38-.054a65.873,65.873,0,0,1,2.805-18.39C364.555,1.386,375.73-6.572,384.636-6.862ZM384.5,83c-11.766-.452-28.162-15.627-28.311-44.446l28.38.038ZM385.6,38.6l28.358.044c-.3,28.67-16.688,43.93-28.438,44.372Zm28.386-1.034-28.375-.021.081-44.411c8.893.323,20,8.29,25.491,25.975a61.568,61.568,0,0,1,2.8,18.458" transform="translate(-271.346 44.751)" fill="#fff"/><path d="M402.29,64.845l7.918.006a.506.506,0,0,0,.483-.517v-8.75c0-.219.012-.419.469-.405.387,0,.425.215.425.426l-.012,9.35a.678.678,0,0,1-.584.759.666.666,0,0,1-.2,0l-8.5-.012-8.491-.018s-.787.12-.77-.791l.018-9.314c0-.215.011-.431.418-.419.426,0,.426.182.426.419v8.743a.517.517,0,0,0,.49.511Z" transform="translate(-275.63 37.614)" fill="#fff"/><path d="M402.507,63.041l6.154.021c.911,0,.854-.431.515-.625a8.482,8.482,0,0,0-5.885,0c-.586.35-.506-.259-.506-.49l.034-7.843c0-.44.494-1.644,4.879-1.475,2.371.1,2.407.544,2.407.86l-.035,9.634a.671.671,0,0,1-.6.736.715.715,0,0,1-.115,0l-6.847-.011-6.839-.012a.68.68,0,0,1-.72-.638.644.644,0,0,1,0-.083l.026-9.665c0-.314,0-.759,2.388-.84,4.414-.134,4.9,1.052,4.9,1.482l-.017,7.843c0,.242.1.841-.506.512a8.259,8.259,0,0,0-5.872-.012c-.377.184-.419.6.514.607Z" transform="translate(-275.848 37.903)" fill="#fff"/><path d="M411.73,23.815c-.156-.239-.55.026-.9,0-1.07-.064-1.7-.566-2.726-.709-.314-.077-.643-.184-.78-.227,1.337-.478,2.14-2.135,1.4-2.473-.188-.137-.379.3-.666.474-.765.491-1.431-.076-2.237.421a3.929,3.929,0,0,0,.741-1.34c.446-.976,1.124-2.734.4-2.742-.265-.023-.314.458-.545.709-.733.811-1.492.978-2.177,1.687a3.607,3.607,0,0,0-.589.506c.344-1.375-.506-3-1.215-2.623-.233.107.021.506,0,.841-.088.889-.882,1.118-1.007,1.944a3.189,3.189,0,0,0-.62-1.343c-.531-.942-1.518-2.527-1.979-1.944-.155.188.162.529.237.874a23.872,23.872,0,0,1,.077,2.677,2.953,2.953,0,0,0,.075.615c-.811-1.075-2.5-1.429-2.7-.664-.042.257.432.317.679.545.608.639.263,1.358.856,2.018a3.31,3.31,0,0,0-1.448-.394c-1.08-.2-2.92-.449-2.781.261.063.252.533.209.841.359.93.488,1.31,1.189,2.093,1.7a2.842,2.842,0,0,0,.505.339c-1.352-.018-2.689,1.105-2.177,1.7.161.215.49-.135.817-.184.877-.114,1.292.635,2.119.56a4.07,4.07,0,0,0-1.193.911c-.8.738-2.159,2.013-1.475,2.363.221.108.446-.3.771-.441a25.269,25.269,0,0,1,2.632-.624c.177-.066.416-.124.592-.2-.911,1.031-.891,2.754-.122,2.765.278,0,.245-.485.392-.739.506-.76,1.316-.56,1.8-1.271a3.473,3.473,0,0,0-.06,1.507c.027,1.062.161,2.943.834,2.619.243-.092.09-.516.167-.866.28-1,.912-1.529,1.215-2.4a2.181,2.181,0,0,0,.208-.607c.2,1.4,1.633,2.531,2.12,1.924.179-.225-.221-.473-.344-.792-.293-.81.361-1.358.124-2.227a3.761,3.761,0,0,0,1.127,1.028c.874.64,2.418,1.684,2.608.965.075-.248-.368-.42-.583-.69a17.031,17.031,0,0,1-1.151-2.425,3.9,3.9,0,0,1-.3-.631c1.249.746,3.085.4,2.9-.424-.029-.255-.506-.1-.836-.243-.81-.3-.827-1.1-1.558-1.459a4.621,4.621,0,0,0,1.424-.27c1.049-.249,2.841-.772,2.417-1.358M407.233,25.3a4.488,4.488,0,1,1-4.47-4.505,4.488,4.488,0,0,1,4.47,4.505h0" transform="translate(-275.72 41.946)" fill="#fff"/><path d="M399.8,25.911a3.595,3.595,0,1,1,0,.037v-.037" transform="translate(-276.397 41.333)" fill="#fff"/><path d="M369.47,53.722l1.039-1.012-.771-.015a.555.555,0,0,0-.547.54.632.632,0,0,0,.278.488m5.924,0a.584.584,0,0,0,.269-.488.537.537,0,0,0-.534-.541h-.806Zm-2.987-2.347a1.546,1.546,0,0,1,.861.179,1.879,1.879,0,0,1,.581.485l1.609-.012a1.146,1.146,0,0,1,1.007.761,1.684,1.684,0,0,1-.566,1.518c.345.3,3.347,3.259,3.7,3.637a2.3,2.3,0,0,1,.521,2.262c-.1.533-.494.709-.81.463-.221-.194-4.17-5.163-4.17-5.163l-.222-.1.009.274,4.091,5.568a1.72,1.72,0,0,1,.284,1.309,3.06,3.06,0,0,1-1.5,1.811.979.979,0,0,1-1.146-.555c-.717-1.924-2.586-7.644-2.586-7.644s-.162-.4-.347-.344-.038.435-.038.435,2.254,7.29,2.5,8.1a1.308,1.308,0,0,1-.275,1.352,3.478,3.478,0,0,1-2.1.912c-.09,0-.949-.065-1.017-.787-.077-1.023-.149-9.488-.149-9.488s-.008-.376-.217-.376-.238.372-.238.372-.089,8.469-.163,9.481c-.052.733-.905.777-1.047.777a3.379,3.379,0,0,1-2.088-.9,1.278,1.278,0,0,1-.254-1.346c.245-.8,2.531-8.1,2.531-8.1s.1-.38-.081-.424-.319.356-.319.356-1.887,5.716-2.589,7.621a1.013,1.013,0,0,1-1.184.545,3.129,3.129,0,0,1-1.474-1.809,1.612,1.612,0,0,1,.3-1.289l4.1-5.582.025-.263-.262.1s-3.926,4.935-4.151,5.164c-.319.226-.709.038-.845-.506a2.356,2.356,0,0,1,.548-2.269c.358-.326,3.357-3.274,3.705-3.585a1.656,1.656,0,0,1-.557-1.519,1.135,1.135,0,0,1,1.013-.777l1.629.017a1.66,1.66,0,0,1,.55-.473,1.491,1.491,0,0,1,.822-.179" transform="translate(-272.413 38.042)" fill="#fff"/><path d="M375.729,20.77a11.256,11.256,0,0,1-1.091,1.655c-.482.511.715.624,1.038.231.274-.369.874-1.4.874-1.4s.029-.8-.251-.984c-.243-.184-.569.494-.569.494m3.567,10.97a.383.383,0,0,1-.064.538l-.007.005a.351.351,0,0,1-.5.013.369.369,0,0,1-.051-.061L377.7,31.02c-.99.227-2.692-1.407-3.259-1.689-.607-.317-1.6,1.466-2.1.266-1.081-2.553-4.117,1.609-5.135,1.529-1.053-.1.156-1.352-.047-2.183-.23-.829-1.226-.012-2.07.233a5.381,5.381,0,0,1-1.033.184l-2.4,2.966a.345.345,0,0,1-.482.081.354.354,0,0,1-.055-.048.384.384,0,0,1-.1-.533.269.269,0,0,1,.024-.033l7.908-10.268a6.314,6.314,0,0,1,.454-.6c.692-.725,1.322-.911,2.262.092.282.341.841,1.078,1.418,1.95.6-.965,2.049-2.784,2.463-3.409a.936.936,0,0,1,1.258-.408.951.951,0,0,1,.25.186c.678.539,2.395,3.065,3.443,4.024l.155.168,1.114,1.125a.4.4,0,0,1-.575.553l-1.089-1.13a3.338,3.338,0,0,1-1.1.021c-.487-.123-1.328-.888-1.03.589.116.505.239.726-.363.763-.673.071-2.614-1.72-3.037-1.131l-.333.405c.607,1,5.051,7.009,5.051,7.009m-9.835-6.087c-.038-.846-.09-.781.369-1.459a5.483,5.483,0,0,0,.493-2.032c.058-.356-.362-.458-.493-.044-.149.286-.5.641-.687.958-.58.729-1.595,2.2-1.924,2.751-.224.343-1.357,1.145-1.181,1.721.108.289.658.268,1.316-.4.372-.395.431-.476.709-.506.494.077.011.506.565.637.607.171.828-1.114.828-1.619" transform="translate(-272 41.699)" fill="#fff"/><path d="M468.218,53.334a7.2,7.2,0,0,1-4.719,1.595,7.3,7.3,0,0,1-4.74-1.595,5.48,5.48,0,0,1-2-4.794V37.221h2.126V47.887c0,2.144.161,2.747,1.007,3.657a5.084,5.084,0,0,0,7.189,0c.822-.912.977-1.513.977-3.657V37.221H470.2V48.539c0,2.306-.541,3.624-1.979,4.794" transform="translate(-282.84 39.643)" fill="#fff"/><path d="M485.307,55.083V46.711a3.2,3.2,0,0,0-.185-1.379,1.259,1.259,0,0,0-1.2-.626c-1.205,0-2.476.889-4.525,3.157v7.221H477.44V43.273H479.4v2.478a10.561,10.561,0,0,1,1.609-1.619,4.967,4.967,0,0,1,3.16-1.174c2.072,0,3.092,1.077,3.092,3.28v8.846Z" transform="translate(-285.183 38.994)" fill="#fff"/><path d="M493.686,42.626h1.964V54.434h-1.964Zm1-2.835a1.226,1.226,0,1,1,.021,0h-.021" transform="translate(-286.989 39.643)" fill="#fff"/><path d="M505.485,55.457h-1.8l-4.426-12.143H501.4l3.249,9.573.054.464.015-.436,3.207-9.6h2.147Z" transform="translate(-287.652 38.954)" fill="#fff"/><path d="M518.888,44.732a3.234,3.234,0,0,0-3.233,2.824h5.771c-.018-1.822-.927-2.824-2.542-2.824m-3.395,4.279c0,2.861,1.463,4.605,3.864,4.605a4.763,4.763,0,0,0,3.062-1.175l.79,1.54a7.051,7.051,0,0,1-4.267,1.432c-3.288,0-5.5-2.494-5.5-6.227,0-3.761,2.215-6.234,5.577-6.234,2.757,0,4.551,1.956,4.551,4.91v1.146Z" transform="translate(-289.257 38.995)" fill="#fff"/><path d="M534.344,45.4c-.382-.333-.6-.46-.83-.46-.736,0-1.676,1.065-2.8,3.1v7.041h-1.946V43.272h1.946V45.4c1.471-1.868,2.191-2.445,3.091-2.445a2.346,2.346,0,0,1,1.5.81Z" transform="translate(-290.992 38.995)" fill="#fff"/><path d="M542.594,55.415a9.433,9.433,0,0,1-1.641-.15,8.3,8.3,0,0,1-2.781-.991l.81-1.639.592.3a6.542,6.542,0,0,0,3.008.81c1.184,0,2.071-.652,2.071-1.561a1.658,1.658,0,0,0-.231-.81c-.475-.679-1.012-1.024-3.125-1.875-2.29-.972-3.089-1.761-3.089-3.208,0-2.073,1.733-3.342,4.493-3.342a7.6,7.6,0,0,1,1.508.134,6.175,6.175,0,0,1,2.292.882l-.965,1.589a5.211,5.211,0,0,0-1.695-.775,4.822,4.822,0,0,0-1.337-.215c-1.335,0-2.19.6-2.19,1.492a1,1,0,0,0,.273.726c.481.469.789.659,2.915,1.547,2.508,1.037,3.2,1.843,3.2,3.7,0,2.108-1.533,3.384-4.111,3.384" transform="translate(-292.056 38.995)" fill="#fff"/><path d="M552.355,42.626h1.94V54.434h-1.94Zm.98-2.835a1.282,1.282,0,1,1,1.281-1.281,1.282,1.282,0,0,1-1.281,1.281" transform="translate(-293.626 39.643)" fill="#fff"/><path d="M567.493,46.639a2.872,2.872,0,0,0-.228-1.569c-.343-.657-1.178-.992-2.372-.992-2.5,0-4.117,1.8-4.117,4.644,0,2.377,1.331,4.1,3.144,4.1a4.152,4.152,0,0,0,2.315-.8,6.786,6.786,0,0,0,1.258-1.277Zm0,7.688V52.844a5.15,5.15,0,0,1-3.89,1.815c-2.907,0-4.936-2.419-4.936-5.908,0-3.81,2.526-6.552,6.022-6.552a4.254,4.254,0,0,1,2.8.811V36.287h2V54.33Z" transform="translate(-294.375 39.749)" fill="#fff"/><path d="M581.83,49.691,577.4,50.837a2.214,2.214,0,0,0-.34,1.277,1.463,1.463,0,0,0,1.378,1.544,1.549,1.549,0,0,0,.213,0c.888,0,1.492-.3,3.175-1.518Zm2.464,5.725c-1.6-.09-2.168-.517-2.273-1.633a6.623,6.623,0,0,1-1.263.937,5.362,5.362,0,0,1-2.484.679,2.944,2.944,0,0,1-3.16-2.713,2.865,2.865,0,0,1,0-.391,3.151,3.151,0,0,1,2.626-3.289l4.094-.966V45.914c0-.975-.733-1.462-2.238-1.462-1.22,0-1.809.338-1.809,1.012a1.246,1.246,0,0,0,.12.447l-1.992.415a1.293,1.293,0,0,1-.209-.733c0-1.561,1.721-2.639,4.252-2.639,2.366,0,3.858,1.125,3.858,2.958v7.241c.051.311.359.529.968.631Z" transform="translate(-296.235 38.995)" fill="#fff"/><path d="M597.894,46.639a2.8,2.8,0,0,0-.231-1.569c-.341-.657-1.18-.992-2.368-.992-2.5,0-4.121,1.8-4.121,4.644,0,2.377,1.328,4.1,3.139,4.1a4.2,4.2,0,0,0,2.3-.8,6.639,6.639,0,0,0,1.274-1.277Zm0,7.688V52.844a5.178,5.178,0,0,1-3.911,1.815c-2.9,0-4.907-2.419-4.907-5.908,0-3.81,2.513-6.552,6-6.552a4.273,4.273,0,0,1,2.813.811V36.287h1.979V54.33Z" transform="translate(-297.816 39.749)" fill="#fff"/><path d="M465.58,72.08a2.848,2.848,0,0,0-.231-1.557c-.334-.658-1.164-.993-2.362-.993-2.491,0-4.1,1.8-4.1,4.619,0,2.371,1.325,4.095,3.134,4.095a4.235,4.235,0,0,0,2.3-.811,5.563,5.563,0,0,0,1.258-1.281Zm0,7.66V78.274a5.19,5.19,0,0,1-3.893,1.812c-2.873,0-4.9-2.416-4.9-5.9,0-3.8,2.513-6.525,5.994-6.525a4.208,4.208,0,0,1,2.8.819v-6.7h1.974V79.739Z" transform="translate(-282.845 36.865)" fill="#fff"/><path d="M478.259,70.185a3.206,3.206,0,0,0-3.2,2.8h5.761c-.02-1.818-.944-2.8-2.559-2.8M474.9,74.436c0,2.867,1.454,4.6,3.848,4.6a4.926,4.926,0,0,0,3.056-1.164l.792,1.524a7.161,7.161,0,0,1-4.261,1.433c-3.275,0-5.493-2.495-5.493-6.211,0-3.753,2.217-6.217,5.563-6.217,2.754,0,4.546,1.95,4.546,4.892v1.142Z" transform="translate(-284.662 36.115)" fill="#fff"/><rect width="1.943" height="17.017" transform="translate(208.385 99.598)" fill="#fff"/><path d="M507.477,70.151c-2.077,0-3.69,1.971-3.69,4.47s1.614,4.478,3.69,4.478c2.046,0,3.645-1.98,3.645-4.478s-1.6-4.47-3.645-4.47m0,10.681a6.229,6.229,0,1,1,5.763-6.664q.016.226.016.452a6.069,6.069,0,0,1-5.779,6.211" transform="translate(-287.826 36.116)" fill="#fff"/><path d="M522.546,80.835a8.6,8.6,0,0,1-1.63-.159,8.3,8.3,0,0,1-2.787-.975l.811-1.64.592.314a6.532,6.532,0,0,0,2.987.792c1.19,0,2.072-.646,2.072-1.551a1.49,1.49,0,0,0-.222-.81c-.455-.679-1.013-1.023-3.108-1.878-2.3-.953-3.07-1.761-3.07-3.194,0-2.052,1.7-3.317,4.454-3.317a6.925,6.925,0,0,1,1.5.122,6.244,6.244,0,0,1,2.293.883l-.957,1.588a5.523,5.523,0,0,0-1.686-.787,5.45,5.45,0,0,0-1.373-.208c-1.3,0-2.167.6-2.167,1.492a1.031,1.031,0,0,0,.286.726c.469.458.78.64,2.905,1.531,2.5,1.04,3.2,1.842,3.2,3.7,0,2.088-1.528,3.371-4.1,3.371" transform="translate(-289.788 36.113)" fill="#fff"/><path d="M544.559,64.924l-2.8,7.855h5.575Zm5.23,14.858-1.771-5.07H541.09l-1.765,5.07h-2.291l6.39-17.644h2.282l6.369,17.644Z" transform="translate(-291.927 36.824)" fill="#fff"/><path d="M564.855,80.489V72.153a3.157,3.157,0,0,0-.179-1.367,1.238,1.238,0,0,0-1.184-.631c-1.2,0-2.464.882-4.518,3.146V80.49H557.03V68.73h1.947V71.2a11.107,11.107,0,0,1,1.609-1.619,4.972,4.972,0,0,1,3.145-1.175c2.081,0,3.086,1.069,3.086,3.287v8.8Z" transform="translate(-294.19 36.115)" fill="#fff"/><path d="M580.823,72.08a2.925,2.925,0,0,0-.237-1.557,2.5,2.5,0,0,0-2.377-.993c-2.491,0-4.1,1.8-4.1,4.619,0,2.371,1.324,4.095,3.138,4.095a4.224,4.224,0,0,0,2.3-.811,5.869,5.869,0,0,0,1.273-1.281Zm0,7.66V78.274a5.236,5.236,0,0,1-3.911,1.812c-2.868,0-4.9-2.416-4.9-5.9,0-3.8,2.524-6.525,6-6.525a4.313,4.313,0,0,1,2.813.819V63.709l1.971-1.935V79.739Z" transform="translate(-295.885 36.865)" fill="#fff"/><path d="M593.509,70.185a3.2,3.2,0,0,0-3.218,2.8h5.763c-.033-1.818-.93-2.8-2.545-2.8m3.524,7.694.774,1.524a7.085,7.085,0,0,1-4.252,1.433c-3.26,0-5.483-2.495-5.483-6.211,0-3.753,2.228-6.217,5.552-6.217,2.762,0,4.551,1.95,4.551,4.891v1.143h-8.053c0,2.865,1.454,4.6,3.847,4.6a4.927,4.927,0,0,0,3.066-1.164" transform="translate(-297.702 36.114)" fill="#fff"/><path d="M606.986,80.835a8.7,8.7,0,0,1-1.641-.159,8.153,8.153,0,0,1-2.766-.975l.8-1.64.586.314a6.525,6.525,0,0,0,2.988.792c1.2,0,2.093-.646,2.093-1.551a1.551,1.551,0,0,0-.237-.81c-.479-.679-1.013-1.023-3.125-1.878-2.279-.953-3.06-1.761-3.06-3.194,0-2.052,1.711-3.317,4.463-3.317a6.981,6.981,0,0,1,1.5.122,5.978,5.978,0,0,1,2.282.883l-.957,1.588a5.27,5.27,0,0,0-1.691-.787,5.071,5.071,0,0,0-1.352-.208c-1.3,0-2.175.6-2.175,1.492a1.028,1.028,0,0,0,.3.726c.451.458.769.64,2.9,1.531,2.493,1.04,3.184,1.842,3.184,3.7,0,2.088-1.518,3.371-4.088,3.371" transform="translate(-299.344 36.113)" fill="#fff"/><path d="M474.5,10.167A9.252,9.252,0,0,0,469.012,8.5a7.545,7.545,0,0,0-7.855,7.222c-.007.181-.009.363,0,.544,0,5.133,3.391,8.477,8.59,8.477a13.355,13.355,0,0,0,5.224-1.107l.828,3.818a14.251,14.251,0,0,1-3.2,1.156,18.616,18.616,0,0,1-3.839.405c-3.7,0-6.366-.942-8.606-2.979a12.811,12.811,0,0,1-4.013-9.517,12.414,12.414,0,0,1,3.645-8.926c2.383-2.344,5.056-3.3,8.978-3.3a11.655,11.655,0,0,1,7.465,2.276Z" transform="translate(-282.772 43.371)" fill="#fff"/><rect width="4.267" height="26.318" transform="translate(201.501 45.593)" fill="#fff"/><path d="M503.383,11.684h4.274V28.468h-4.274ZM506.9,9.7h-3.894l4.771-6.063h4.677Z" transform="translate(-288.076 43.444)" fill="#fff"/><path d="M529.777,29.453V18.66c0-2.1-.358-2.856-1.394-2.856-.92,0-2.177.911-4.05,2.925l-.586.615V29.453h-4.314V12.67h4.314v2.776c2.019-2.194,3.674-3.1,5.81-3.1q4.535,0,4.536,4.759V29.45Z" transform="translate(-289.935 42.458)" fill="#fff"/><path d="M546.8,11.559h4.282V28.343H546.8Zm2.155-3.1a2.986,2.986,0,1,1,2.416-2.919,2.712,2.712,0,0,1-2.416,2.919" transform="translate(-292.874 43.568)" fill="#fff"/><path d="M569.613,29.905c-5.185,0-8.525-3.443-8.525-8.707,0-5.421,3.554-9.065,8.892-9.065a13.436,13.436,0,0,1,2.742.3,9.75,9.75,0,0,1,3.205,1.37l-2.045,3.285a4.864,4.864,0,0,0-3.382-1.306c-2.852,0-4.868,2.228-4.868,5.386,0,2.994,1.788,5.048,4.393,5.048a7.758,7.758,0,0,0,4.329-1.447l1.576,3.507a13.11,13.11,0,0,1-6.312,1.632" transform="translate(-294.649 42.482)" fill="#fff"/><path d="M594.346,21.961l-4.291,1.4a3.448,3.448,0,0,0-.338,1.408,1.609,1.609,0,0,0,1.471,1.736,1.7,1.7,0,0,0,.269,0,3.672,3.672,0,0,0,1.77-.506,6.246,6.246,0,0,0,1.118-.756Zm4.97,7.687h-.911c-2.138,0-2.821-.364-3.6-1.839a6.594,6.594,0,0,1-4.689,2.063,4.514,4.514,0,0,1-4.829-4.178c-.009-.124-.013-.248-.011-.372a5.614,5.614,0,0,1,.268-1.7c.567-1.548,1.573-2.355,4.04-3.076l4.759-1.375v-1.4c0-1.791-.643-2.632-2.051-2.632-1.306,0-2.35.686-2.35,1.519a1.517,1.517,0,0,0,.111.427L585.934,18a3.012,3.012,0,0,1-.215-1.176c0-2.953,2.6-4.634,7.15-4.634,4,0,5.8,1.659,5.8,5.317V24.53c0,1.508.171,1.764,1.325,1.874Z" transform="translate(-297.386 42.476)" fill="#fff"/></g></svg>