<svg xmlns="http://www.w3.org/2000/svg" width="282.887" height="178.774" viewBox="0 0 282.887 178.774"><g transform="translate(-2113.899 -7847.705)"><text transform="translate(2232.224 8023.479)" fill="#fff" font-size="12" font-family="Helvetica"><tspan x="0" y="0"> </tspan></text><path d="M112.65,388.828a89.163,89.163,0,0,0-4.038,26.763v.263c-.076,38.718,22.917,69.206,50.315,69.231,27.385.043,50.45-30.336,50.514-69.068v-.266a88.221,88.221,0,0,0-4.021-26.924c-7.736-24.975-25.731-42.02-46.3-42.02-20.56-.059-38.647,16.951-46.472,42.02m-5.77,26.737a91.8,91.8,0,0,1,4.126-27.278c7.967-25.421,26.542-43.263,48.131-43.233,21.557.04,40.033,17.856,47.957,43.246a92.21,92.21,0,0,1,4.065,27.461v.263c-.043,39.145-23.431,70.839-52.245,70.809-28.8-.057-52.1-31.843-52.034-70.989Z" transform="translate(2007.02 7502.651)" fill="#fff"/><path d="M143.45,352.62c-.64-2.593-2.577-3.685-5.466-2.989a9.38,9.38,0,0,0-3.187,1.131v.409l1.072-.126,1.669,6.775-.679.352a.43.43,0,0,0-.218.614c.276-.043,1.161-.319,1.761-.455.659-.2,1.557-.323,1.939-.442,2.771-.7,3.712-2.807,3.11-5.268m-3.16,4.54a5.328,5.328,0,0,1-1.632.257l-1.675-6.881c3.047-.735,4.723.2,5.356,2.8a2.954,2.954,0,0,1-2.049,3.823" transform="translate(2019.164 7504.554)" fill="#fff"/><path d="M154.069,354.627c.772-2.435-.019-4.106-2.22-4.8-2.541-.85-4.734.544-5.624,3.263-.716,2.3-.076,4.1,2.1,4.853,2.541.829,4.786-.383,5.744-3.315m-1.368.164c-.719,2.206-2.144,2.976-3.681,2.465-1.513-.507-2.226-1.937-1.373-4.388.575-1.926,1.9-2.919,3.537-2.353,1.886.591,2.15,2.341,1.517,4.276" transform="translate(2024.014 7504.619)" fill="#fff"/><path d="M157.863,362.748a3.952,3.952,0,0,1-.61-1.92l-.346-3.279a2.6,2.6,0,0,0,2.732-1.21c.735-1.17.3-2.524-1.231-3.487-1.887-1.167-2.679-1.557-2.917-1.185l-.076.139.829.676-3.708,5.917-.769-.217a.44.44,0,0,0-.573.286,13.238,13.238,0,0,1,1.269.752c.494.287.878.564,1.336.834a.546.546,0,0,0,.74-.095l-1.01-.907,1.462-2.326.782.505.2,3.4c.113,1.306.395,1.675,1.05,2.065a.686.686,0,0,0,.844.057m.587-6.824a1.753,1.753,0,0,1-2.689.62l-.464-.314,2.026-3.252.507.3a1.762,1.762,0,0,1,.62,2.643" transform="translate(2026.297 7505.47)" fill="#fff"/><path d="M127.509,363.309c-1.078-.9-1.96-.666-3.328.151-1.081.6-1.868.835-2.452.307a1.418,1.418,0,0,1,0-1.983,3.909,3.909,0,0,1,1.085-1.016l.947.808a.575.575,0,0,0,.062-.972l-1-.98a14.8,14.8,0,0,0-1.524,1.457,2.74,2.74,0,0,0,.053,3.893c.7.577,1.623.57,2.828-.126,1.676-.93,2.376-.88,2.916-.369a1.61,1.61,0,0,1,.043,2.153c-.811.977-1.573,1.116-2.507.331a.958.958,0,0,0,.043,1.395c.834.682,1.86.207,2.8-.917a2.963,2.963,0,0,0,.037-4.131" transform="translate(2012.951 7508.99)" fill="#fff"/><path d="M130.019,356.7l-1.768-1.591a21.9,21.9,0,0,1-2.362,2.454c-.772.733-1.632,1.468-2.61,2.422l1.422,1.878c.321-.2.416-.409.089-1.2l-.359-.726c.416-.409.943-.885,1.4-1.333l4.839,5.035-.508.792a.367.367,0,0,0,.178.584c.218-.27.725-.748,1.234-1.238.413-.426.8-.765,1.072-1.016a.471.471,0,0,0,.05-.739l-1.139.765-4.83-5.01a13.963,13.963,0,0,0,1.4-1.415l1.007.567a.551.551,0,0,0,.884-.234" transform="translate(2014.154 7507.026)" fill="#fff"/><path d="M134.926,351.08l-2.112,1.241c-.372.225-.445.541-.255.762l.963-.359,1.411,6.284-4.908-4.238.6-.426a.682.682,0,0,0,.215-.885l-2.4,1.373c-.357.215-.515.61-.287.891l.771-.3,6.351,5.529a1.564,1.564,0,0,0,.593-1.682l-1.49-6.9c.752-.353.914-.739.551-1.286" transform="translate(2016.226 7505.273)" fill="#fff"/><path d="M145.555,356.711l-1.23-.238.132-7.082.621-.039c.408-.03.563-.161.521-.584-2.465-.069-2.653-.069-2.653-.069-.486,0-.74.175-.683.571l1.023.115-.139,7.068-.784.145c-.389.1-.474.3-.413.554.37-.02.984,0,1.568.007a13.81,13.81,0,0,1,1.431.043.523.523,0,0,0,.606-.491" transform="translate(2022.268 7504.238)" fill="#fff"/><path d="M166.2,360.063l-1.767-1.708c-.327-.309-.641-.27-.791,0l.6.792-5.614,3.107,2.685-5.921.578.459a.638.638,0,0,0,.92-.011l-1.989-1.954c-.314-.267-.719-.326-.916-.024l.528.664-3.618,7.673a1.6,1.6,0,0,0,1.744.075l6.287-3.283c.525.6.934.636,1.355.132" transform="translate(2028.742 7506.804)" fill="#fff"/><path d="M165.45,372.074l-.35-.934,5.377-4.494c.667.739.986.834,1.243.538l-1.3-1.99L163.57,366.9l4.081-5.826-.9-1.355c-.287-.426-.646-.426-.839-.169l.372,1.042-6.085,3.19-.588-.517a.415.415,0,0,0-.608.065c.22.294.522.709.779,1.128.255.392.512.778.722,1.088a.45.45,0,0,0,.7.207l-.475-1.167,4.9-2.777-3.959,5.683a1.455,1.455,0,0,0,1.292.333l6.036-1.546-4.565,3.855-.6-.571a.43.43,0,0,0-.606.026c.23.339.512.765.778,1.167.3.422.518.794.718,1.069a.494.494,0,0,0,.735.25" transform="translate(2029.692 7508.881)" fill="#fff"/><path d="M115.873,420.356l1.281,2.091c.224.415.544.433.736.225l-.35-.953,6.219-1.508-4.139,4.992-.426-.565c-.294-.4-.663-.4-.877-.221l1.4,2.373c.214.356.623.514.868.283l-.283-.772,5.423-6.492a1.522,1.522,0,0,0-1.688-.521l-6.888,1.581c-.34-.752-.762-.878-1.281-.514" transform="translate(2010.932 7534.917)" fill="#fff"/><path d="M113.344,413.59l.8,2.167c.152.439.468.626.814.419l-.28-1.035,5.542-1.978-4.5,6.981.408,1.148c.181.515.584.547.753.352l-.152-1.036,6.5-2.374.451.659a.386.386,0,0,0,.591.1c-.158-.321-.32-.786-.484-1.244-.175-.521-.324-.993-.451-1.336a.494.494,0,0,0-.659-.308l.238,1.243-5.193,1.877,3.956-6.021c.353-.527.408-.808.3-1.091l-.287-.5-7.311,2.661-.263-.469c-.177-.344-.382-.4-.772-.214" transform="translate(2009.832 7531.606)" fill="#fff"/><path d="M119.713,408.02l.118,1.205-6.822,1.84-.217-.577c-.152-.383-.329-.5-.716-.353.627,2.4.679,2.582.679,2.582.125.469.383.664.729.482l-.184-.986,6.825-1.812.346.713c.232.334.461.372.654.221-.1-.357-.264-.934-.422-1.5s-.287-1.063-.339-1.4c-.088-.326-.311-.521-.651-.413" transform="translate(2009.28 7530.03)" fill="#fff"/><path d="M111.027,403.118l.452,2.429c.05.459.365.59.62.491L112.08,405l6.387.809-5.653,3.176-.208-.676a.619.619,0,0,0-.759-.522l.509,2.731c.043.433.369.7.715.541l-.037-.792,7.386-4.1a1.556,1.556,0,0,0-1.353-1.1l-7.05-1c-.03-.792-.343-1.086-.99-.943" transform="translate(2008.824 7527.896)" fill="#fff"/><path d="M116.82,397.4c-.1.333.017.652.57.8l.959.27.168,3.114-3.059.327-.237-2.322.852-.039a.574.574,0,0,0-.639-.709c-.577.069-1.068.106-1.838.156l.143.54c.158.165.3.165.7.113l.27,2.342-3.067.294-.194-2.856,1.215-.294c.063-.359-.112-.686-.524-.623l-1.57.251.471,4.438c.113,1.286.357,1.35.719,1.226l-.024-.956,7.006-.713.237.676a.426.426,0,0,0,.584.245l-.61-6.054Z" transform="translate(2008.626 7525.422)" fill="#fff"/><path d="M118.928,391.461a3.81,3.81,0,0,1-1.228,1.6l-2.57,2.042a2.622,2.622,0,0,0-2.5-1.639c-1.383.057-2.269,1.157-2.239,2.938.053,2.241.146,3.123.6,3.115l.139-.026.108-1.053,7-.121.238.792a.4.4,0,0,0,.521.3c-.046-.573-.046-.924-.046-1.494-.017-.53,0-1.012-.017-1.564a.557.557,0,0,0-.5-.56l-.169,1.35-2.79.039v-.918l2.752-2.046c1.022-.822,1.174-1.244,1.161-2a.77.77,0,0,0-.452-.752m-5.987,3.22a1.837,1.837,0,0,1,1.992,1.966,3.056,3.056,0,0,1-.032.54l-3.817.062c-.017-.214-.036-.426-.036-.577a1.792,1.792,0,0,1,1.893-1.99" transform="translate(2008.548 7522.84)" fill="#fff"/><path d="M116.991,387.226c-1.438-.05-1.956.729-2.551,2.234-.416,1.137-.871,1.785-1.7,1.778a1.429,1.429,0,0,1-1.22-1.527,4.887,4.887,0,0,1,.243-1.524l1.224.056c.089-.409-.04-.778-.591-.785l-1.336-.169a9.446,9.446,0,0,0-.293,2.135,2.713,2.713,0,0,0,2.458,2.976c.934,0,1.637-.573,2.17-1.89.693-1.8,1.215-2.154,2-2.137a1.618,1.618,0,0,1,1.385,1.64c-.032,1.332-.515,1.89-1.756,1.866a.948.948,0,0,0,.923,1.055c1.091.03,1.6-1.05,1.647-2.455.007-1.721-1.161-3.239-2.6-3.253" transform="translate(2008.71 7520.996)" fill="#fff"/><path d="M119.529,384.821,119.1,386l-6.954-1.238.026-.646c.062-.383-.05-.6-.471-.6-.42,2.448-.452,2.663-.452,2.663-.1.451.032.715.415.715l.267-.96,6.928,1.205.047.841c.029.408.211.508.494.471.032-.389.139-.973.221-1.557.1-.564.218-1.068.281-1.395a.474.474,0,0,0-.376-.677" transform="translate(2008.907 7519.383)" fill="#fff"/><path d="M115.577,377.969l-2.353-.377a21.515,21.515,0,0,1-.715,3.321c-.271,1.06-.626,2.092-.953,3.4l2.193.877c.215-.37.165-.577-.557-1.052l-.633-.439c.112-.573.309-1.25.481-1.867l6.735,1.683,0,.936a.407.407,0,0,0,.433.448c.063-.385.23-1.076.4-1.742.152-.551.32-1.1.386-1.418.112-.339-.022-.545-.353-.685l-.571,1.294-6.753-1.706a11.462,11.462,0,0,0,.466-1.929l1.139-.052c.452-.024.654-.205.654-.7" transform="translate(2009.054 7516.806)" fill="#fff"/><path d="M123.1,373.484l-.557.854-8.448-.095-.217.476a.77.77,0,0,0,.3.992l5.841,5.086-.066.666a.385.385,0,0,0,.39.4c.116-.334.281-.772.443-1.155a13,13,0,0,1,.515-1.3.506.506,0,0,0-.232-.686l-.651,1.137-2.094-1.719,1.038-2.656,2.662.095-.159,1.012a.36.36,0,0,0,.359.409c.1-.34.311-.87.515-1.37.211-.6.433-1.124.564-1.462a.444.444,0,0,0-.2-.677m-4.507,1.995-.855,2.217-2.871-2.386Z" transform="translate(2010.031 7515.019)" fill="#fff"/><path d="M122.993,369.817c-1.211-.64-2.055-.221-3.247.867-.878.85-1.581,1.205-2.322.791a1.42,1.42,0,0,1-.4-1.922,4.713,4.713,0,0,1,.9-1.243l1.059.616a.572.572,0,0,0-.155-.961l-1.129-.745A9.968,9.968,0,0,0,116.487,369a2.7,2.7,0,0,0,.834,3.758c.828.435,1.709.227,2.784-.709,1.422-1.279,2.1-1.342,2.777-.972a1.6,1.6,0,0,1,.433,2.111c-.554,1.121-1.276,1.411-2.361.834a.943.943,0,0,0,.327,1.343c.949.521,1.887-.208,2.572-1.444a3.025,3.025,0,0,0-.86-4.1" transform="translate(2011.022 7512.294)" fill="#fff"/><path d="M168.692,379.591l-.228-1.016,6.145-5.813-.156-.5a.8.8,0,0,0-.858-.52l-7.781.458-.395-.558a.46.46,0,0,0-.61,0,5.456,5.456,0,0,1,.531,1.119c.178.488.41.959.509,1.316a.488.488,0,0,0,.616.313l-.257-1.273,2.665-.22,1.089,2.625-1.986,1.775-.558-.8a.409.409,0,0,0-.6-.07,12.967,12.967,0,0,1,.62,1.362c.245.573.446,1.114.608,1.436a.5.5,0,0,0,.641.367m1.812-4.546-.91-2.2,3.743-.293Z" transform="translate(2032.22 7514.167)" fill="#fff"/><path d="M177.732,384.587l-.62-2.231c-.108-.466-.4-.656-.746-.466l.208,1-5.713,1.514,5.077-6.555-.3-1.187c-.184-.541-.531-.6-.753-.433l.086,1.086-6.683,1.777-.386-.689a.4.4,0,0,0-.613-.146,11.815,11.815,0,0,1,.4,1.294c.139.522.214.98.321,1.349a.5.5,0,0,0,.607.383l-.086-1.28,5.317-1.434-4.46,5.671c-.4.5-.475.778-.4,1.068a1.681,1.681,0,0,0,.251.52l7.543-2.009.189.491c.149.343.336.422.758.281" transform="translate(2033.299 7516.176)" fill="#fff"/><path d="M174.463,391.6c2.678-.383,3.945-2.191,3.533-5.1-.334-2.362-.578-3.071-.768-3.292l-.375-.043v1.072l-6.885.961-.294-.707a.422.422,0,0,0-.611-.277c.069.277.208,1.174.3,1.782.069.7.158,1.589.2,1.972.4,2.826,2.394,3.981,4.9,3.629m-4.193-3.572a8.531,8.531,0,0,1-.082-1.665l7.023-.96c.432,3.1-.663,4.671-3.316,5.054a3.006,3.006,0,0,1-3.625-2.429" transform="translate(2034.071 7519.23)" fill="#fff"/><path d="M170.55,394.215l.149-1.25,7.057-.35.08.626c.036.4.194.561.624.454-.136-2.437-.136-2.664-.136-2.664-.03-.469-.207-.7-.621-.59l-.024.98-7.035.357-.2-.778a.45.45,0,0,0-.6-.364c.052.395.079,1,.121,1.589,0,.557.045,1.056.039,1.412a.513.513,0,0,0,.544.578" transform="translate(2034.412 7522.383)" fill="#fff"/><path d="M178.212,403.266l.106-2.29c.036-.517-.178-.774-.573-.686l-.162,1-5.848-.319,6.844-4.655.053-1.236c.043-.578-.3-.759-.561-.642l-.243,1.061-6.891-.4-.192-.76a.378.378,0,0,0-.5-.326c-.011.352-.011.835-.057,1.356-.022.515-.065,1.016-.09,1.368a.5.5,0,0,0,.452.56l.284-1.25,5.515.3-5.954,4.018c-.535.352-.686.6-.715.872a1.132,1.132,0,0,0,.067.573l7.781.426.05.527c.023.4.2.53.629.5" transform="translate(2034.337 7523.943)" fill="#fff"/><path d="M170.932,407.439c.2-.326.149-.672-.313-.917l-.885-.534.629-3.064,3.058.5-.357,2.286-.852-.171a.573.573,0,0,0,.439.818c.56.106,1.048.2,1.835.356l.009-.551c-.131-.207-.283-.257-.67-.327l.331-2.29,3.059.488-.56,2.807-1.26-.013c-.118.3-.042.667.321.71l1.619.151.722-4.414c.2-1.243,0-1.362-.422-1.33l-.235.91-6.944-1.1-.062-.722a.386.386,0,0,0-.472-.385l-.953,6Z" transform="translate(2034.03 7526.832)" fill="#fff"/><path d="M175.36,416.592l.583-2.178c.133-.471,0-.785-.435-.8l-.354.961-5.683-1.521,7.693-3.151.314-1.179c.172-.578-.133-.791-.413-.753l-.471,1-6.666-1.834.006-.8a.37.37,0,0,0-.449-.4,11.975,11.975,0,0,1-.33,1.306c-.123.5-.267.949-.379,1.312a.484.484,0,0,0,.346.636l.555-1.142,5.314,1.436-6.686,2.669c-.578.238-.789.439-.872.715l-.037.554,7.5,2.058-.056.488c-.044.429.108.6.521.617" transform="translate(2033.346 7529.138)" fill="#fff"/><path d="M167.781,418.105c1.281.5,2.045.017,3.13-1.194.791-.908,1.488-1.349,2.229-1.035a1.424,1.424,0,0,1,.614,1.876,7.416,7.416,0,0,1-.762,1.332l-1.126-.514a.6.6,0,0,0,.238.96l1.234.646a11.406,11.406,0,0,0,1-1.92,2.687,2.687,0,0,0-1.21-3.641c-.855-.352-1.762-.069-2.672.992-1.319,1.418-1.988,1.543-2.673,1.243a1.65,1.65,0,0,1-.728-2.015c.521-1.205,1.194-1.564,2.3-1.1a.93.93,0,0,0-.435-1.323c-1.032-.415-1.87.395-2.4,1.732a2.94,2.94,0,0,0,1.257,3.962" transform="translate(2032.84 7531.906)" fill="#fff"/><path d="M164.911,419.428l.785-.99,6.206,3.332-.22.573c-.194.395-.118.6.258.752,1.185-2.178,1.279-2.341,1.279-2.341.207-.452.164-.76-.205-.874l-.552.848-6.222-3.334.2-.759c.115-.4-.04-.591-.273-.621a11.343,11.343,0,0,1-.739,1.4c-.257.5-.5.937-.664,1.226a.507.507,0,0,0,.143.785" transform="translate(2032.15 7533.521)" fill="#fff"/><path d="M164.119,424.625c1.224.728,2.039.356,3.3-.66.979-.766,1.7-1.048,2.4-.621a1.455,1.455,0,0,1,.254,1.965,6.914,6.914,0,0,1-.961,1.145l-1.039-.682c-.255.321-.356.682.1.992l1.068.8a9.449,9.449,0,0,0,1.335-1.675,2.7,2.7,0,0,0-.575-3.806c-.759-.514-1.695-.34-2.817.508-1.492,1.168-2.2,1.207-2.846.759a1.643,1.643,0,0,1-.31-2.115c.672-1.081,1.395-1.316,2.422-.677a.906.906,0,0,0-.218-1.35c-.918-.59-1.906.052-2.679,1.263a3.113,3.113,0,0,0,.564,4.15" transform="translate(2031.444 7534.815)" fill="#fff"/><path d="M135.41,438.684a.518.518,0,0,0-.835-.037l-.716.672a4.16,4.16,0,0,1-1.731-.577c-1.471-.774-2.087-2.355-.758-4.836a2.926,2.926,0,0,1,4.345-1.373,4.193,4.193,0,0,1,1.191.891l-.657,1.042c.3.309.608.283.973-.156l.775-1.081a6.843,6.843,0,0,0-1.692-1.315,4.391,4.391,0,0,0-6.281,1.874c-1.349,2.46-.723,4.4,1.372,5.512a6.712,6.712,0,0,0,2.866.785Z" transform="translate(2016.778 7540.163)" fill="#fff"/><path d="M143.4,442.96l-1.135-.521,1.726-6.875.547.113c.423,0,.656-.039.719-.446-2.4-.59-2.56-.64-2.56-.64-.475-.112-.745-.024-.782.389l.97.283-.768,2.976-4.472-1.094.753-2.975.652.118c.433.032.65-.017.716-.431-2.421-.623-2.685-.68-2.685-.68-.5-.118-.791-.023-.791.385l.96.307-1.731,6.881-.86-.006c-.3,0-.462.212-.408.433.363.093.982.205,1.626.4a9.545,9.545,0,0,1,1.234.311.581.581,0,0,0,.8-.307l-1.25-.547.815-3.151,4.453,1.088-.789,3.2-.885-.007a.39.39,0,0,0-.419.433c.413.082,1.046.238,1.692.408a12.629,12.629,0,0,1,1.237.307.525.525,0,0,0,.637-.344" transform="translate(2018.921 7540.967)" fill="#fff"/><path d="M146.651,442.365l-1.256-.152-.35-7.082.58-.095c.461-.023.61-.174.521-.583-2.463.108-2.65.113-2.65.113-.5,0-.742.225-.637.6l1.02.052.339,7.05-.753.221c-.387.1-.458.339-.359.564.359-.05.963-.08,1.583-.113.564-.024,1.032-.05,1.4-.032a.512.512,0,0,0,.565-.54" transform="translate(2022.661 7541.542)" fill="#fff"/><path d="M154.293,438.67a.585.585,0,0,0-.695.583l-.065,1.112-3.067.778-2-6.666.7-.283c.387-.156.557-.321.366-.729-2.539.773-2.675.816-2.675.816-.462.145-.659.383-.462.735l.921-.182,2.062,6.725-.629.445a.339.339,0,0,0-.106.534l5.823-1.721Z" transform="translate(2024.177 7541.112)" fill="#fff"/><path d="M159.316,435.971c-.35.006-.6.265-.494.829l.156.974-2.79,1.449-1.546-2.681,2.028-1.175.389.772a.549.549,0,0,0,.382-.841c-.3-.489-.515-.949-.9-1.658l-.425.321c-.093.263,0,.388.184.758l-2.041,1.168-1.543-2.668,2.534-1.332.815.967c.288-.092.54-.4.288-.716l-.839-1.332-3.846,2.213c-1.155.664-1.083.839-.827,1.172l.884-.395,3.476,6.072-.5.525a.429.429,0,0,0,0,.627l5.261-3.042Z" transform="translate(2026.077 7539.958)" fill="#fff"/><path d="M123.523,428.478a1.741,1.741,0,0,1,1.745-1.764,1.775,1.775,0,0,1,1.754,1.758,1.749,1.749,0,1,1-3.5.006" transform="translate(2014.26 7538.176)" fill="#fff"/><path d="M160.371,428.542a1.738,1.738,0,0,1,1.749-1.771,1.771,1.771,0,0,1-.013,3.542,1.744,1.744,0,0,1-1.736-1.771" transform="translate(2030.29 7538.201)" fill="#fff"/><path d="M188.676,410.468a73.233,73.233,0,0,0-3.319-22.256c-6.614-21.29-20.314-31.1-31.474-31.109-11.2-.019-24.967,9.775-31.644,31.134a76.444,76.444,0,0,0-3.324,22.394c-.052,34.82,20.027,53.634,34.791,53.653,14.781.03,34.917-18.99,34.97-53.816m-35.49-.383-33.076-.063a76.72,76.72,0,0,1,3.269-21.434c6.483-20.65,19.506-29.922,29.884-30.26Zm-.08,52.97c-13.713-.528-32.82-18.213-33-51.8l33.076.043Zm1.277-51.738,33.05.05c-.35,33.412-19.449,51.2-33.143,51.713Zm33.082-1.205-33.069-.026.095-51.757c10.364.376,23.306,9.662,29.708,30.272a71.743,71.743,0,0,1,3.266,21.511" transform="translate(2012.255 7507.893)" fill="#fff"/><path d="M156.981,413.82l9.226.007a.584.584,0,0,0,.564-.6v-10.2c0-.255.014-.489.547-.476.452,0,.5.251.5.5l-.017,10.9a.788.788,0,0,1-.91.88l-9.906-.011-9.9-.02s-.917.138-.9-.923l.02-10.86c0-.251.011-.5.486-.491.5,0,.5.214.5.491V413.2a.605.605,0,0,0,.57.6Z" transform="translate(2024.12 7527.653)" fill="#fff"/><path d="M156.38,412.857l7.171.026c1.066,0,1-.5.6-.729-2.049-.748-5.109-.9-6.858-.006-.684.408-.591-.3-.591-.573l.04-9.141c0-.514.575-1.914,5.687-1.719,2.762.112,2.8.634,2.8,1l-.04,11.226a.782.782,0,0,1-.834.86l-7.979-.013-7.97-.011a.794.794,0,0,1-.841-.841l.03-11.264c0-.366,0-.885,2.784-.979,5.142-.156,5.714,1.224,5.714,1.725l-.019,9.141c0,.283.112.98-.59.6-1.769-.911-4.817-.781-6.848-.013-.439.212-.489.7.6.7Z" transform="translate(2024.72 7526.852)" fill="#fff"/><path d="M167.631,383.047c-.182-.278-.64.03-1.048,0-1.248-.075-1.982-.66-3.179-.829-.365-.089-.749-.214-.908-.264,1.558-.557,2.494-2.487,1.629-2.882-.22-.162-.443.352-.776.553-.891.573-1.667-.089-2.609.491a4.581,4.581,0,0,0,.865-1.564c.519-1.135,1.309-3.183.465-3.194-.309-.026-.366.534-.636.828-.852.949-1.736,1.141-2.537,1.966a4.3,4.3,0,0,0-.686.59c.4-1.6-.59-3.493-1.415-3.058-.271.125.024.591,0,.98-.1,1.036-1.029,1.3-1.174,2.266a3.715,3.715,0,0,0-.722-1.564c-.62-1.1-1.775-2.945-2.306-2.267-.182.221.188.616.276,1.02.3,1.178-.088,2.046.089,3.118a3.608,3.608,0,0,0,.086.717c-.947-1.251-2.916-1.663-3.141-.773-.049.3.5.37.791.636.707.745.306,1.581,1,2.353a3.815,3.815,0,0,0-1.689-.458c-1.26-.241-3.4-.524-3.242.3.075.294.621.244.98.419,1.085.57,1.527,1.388,2.44,1.977a3.226,3.226,0,0,0,.593.395c-1.574-.019-3.134,1.289-2.539,1.985.188.251.571-.158.954-.214,1.02-.132,1.5.74,2.468.653a4.766,4.766,0,0,0-1.391,1.063c-.928.86-2.516,2.346-1.718,2.754.257.126.519-.352.9-.512,1.121-.518,2.023-.346,3.064-.73.207-.075.484-.143.69-.232-1.059,1.2-1.04,3.209-.143,3.222.326,0,.287-.565.458-.86.587-.887,1.537-.654,2.1-1.482a4.035,4.035,0,0,0-.07,1.756c.032,1.237.188,3.43.97,3.052.284-.108.106-.6.2-1.01.327-1.162,1.065-1.782,1.418-2.8a2.522,2.522,0,0,0,.243-.712c.232,1.629,1.9,2.953,2.471,2.243.21-.263-.257-.552-.4-.923-.344-.947.419-1.581.144-2.593a4.354,4.354,0,0,0,1.312,1.2c1.02.746,2.82,1.963,3.042,1.124.086-.29-.429-.489-.68-.8-.763-.973-.8-1.927-1.342-2.827a4.6,4.6,0,0,1-.35-.735c1.455.87,3.6.465,3.381-.494-.034-.3-.585-.119-.973-.284-.941-.343-.967-1.281-1.818-1.7a5.325,5.325,0,0,0,1.659-.314c1.224-.288,3.312-.9,2.818-1.581m-5.236,1.738a5.231,5.231,0,1,1-5.211-5.249,5.228,5.228,0,0,1,5.211,5.249" transform="translate(2024.366 7515.658)" fill="#fff"/><path d="M151.064,383.066a4.217,4.217,0,1,1,4.233,4.21,4.2,4.2,0,0,1-4.233-4.21" transform="translate(2026.241 7517.366)" fill="#fff"/><path d="M131.383,402.541l1.211-1.18-.9-.019a.648.648,0,0,0-.637.628.733.733,0,0,0,.326.57m6.9,0a.678.678,0,0,0,.314-.57.626.626,0,0,0-.646-.628h-.916Zm-3.48-2.737a1.809,1.809,0,0,1,1,.208,2.187,2.187,0,0,1,.676.565l1.876-.014a1.336,1.336,0,0,1,1.174.887,1.965,1.965,0,0,1-.659,1.775c.4.352,3.9,3.8,4.307,4.239a2.684,2.684,0,0,1,.606,2.636c-.116.621-.575.822-.943.54-.257-.227-4.86-6.021-4.86-6.021l-.257-.112.01.32,4.767,6.492a2.006,2.006,0,0,1,.331,1.524,3.571,3.571,0,0,1-1.744,2.111,1.138,1.138,0,0,1-1.333-.647c-.835-2.242-3.016-8.909-3.016-8.909s-.189-.464-.4-.4-.044.508-.044.508,2.628,8.494,2.915,9.437a1.527,1.527,0,0,1-.319,1.576,4.056,4.056,0,0,1-2.451,1.06c-.1,0-1.1-.075-1.185-.917-.089-1.191-.174-11.055-.174-11.055s-.009-.439-.253-.439-.277.433-.277.433-.1,9.87-.192,11.05c-.059.854-1.053.9-1.217.9a3.936,3.936,0,0,1-2.434-1.048,1.49,1.49,0,0,1-.3-1.57c.286-.93,2.95-9.444,2.95-9.444s.112-.443-.093-.5c-.221-.062-.373.415-.373.415s-2.2,6.661-3.015,8.883a1.179,1.179,0,0,1-1.38.634,3.648,3.648,0,0,1-1.718-2.108,1.876,1.876,0,0,1,.352-1.5l4.776-6.5.027-.307-.3.112s-4.578,5.752-4.837,6.021c-.373.264-.825.044-.986-.59a2.749,2.749,0,0,1,.64-2.643c.418-.382,3.912-3.819,4.319-4.182a1.928,1.928,0,0,1-.65-1.775,1.32,1.32,0,0,1,1.184-.905l1.9.019a1.931,1.931,0,0,1,.639-.551,1.748,1.748,0,0,1,.959-.208" transform="translate(2015.218 7526.469)" fill="#fff"/><path d="M140.306,378.532a13.044,13.044,0,0,1-1.273,1.927c-.561.6.834.729,1.21.271.319-.432,1.019-1.627,1.019-1.627s.034-.928-.293-1.147c-.283-.215-.663.575-.663.575m4.156,12.782a.448.448,0,0,1-.083.634.408.408,0,0,1-.637-.056l-1.144-1.418c-1.152.266-3.136-1.639-3.8-1.966-.7-.37-1.861,1.708-2.45.309-1.26-2.976-4.8,1.876-5.986,1.784-1.225-.113.184-1.577-.055-2.544-.268-.967-1.429-.013-2.412.273a6.248,6.248,0,0,1-1.2.214L123.9,392a.4.4,0,0,1-.626.039.448.448,0,0,1-.093-.66l9.216-11.967a7.172,7.172,0,0,1,.527-.7c.807-.847,1.544-1.06,2.639.106.327.4.979,1.256,1.656,2.273.695-1.124,2.389-3.246,2.87-3.974a1.089,1.089,0,0,1,1.758-.257c.789.626,2.79,3.57,4.017,4.688l.181.2,1.3,1.312a.417.417,0,0,1-.042.646.422.422,0,0,1-.63,0l-1.267-1.317a3.839,3.839,0,0,1-1.286.024c-.568-.143-1.547-1.033-1.2.687.135.587.281.845-.422.89-.785.082-3.047-2-3.534-1.319l-.389.475c.7,1.17,5.886,8.168,5.886,8.168M133,384.22c-.044-.986-.106-.911.431-1.7a6.4,6.4,0,0,0,.574-2.368c.067-.415-.422-.534-.574-.05-.174.333-.58.748-.8,1.116-.674.85-1.858,2.563-2.241,3.2-.258.4-1.58,1.336-1.375,2,.126.337.765.313,1.535-.465.433-.459.5-.555.829-.591.577.089.013.591.659.742.7.2.964-1.3.964-1.891" transform="translate(2014.065 7516.344)" fill="#fff"/><path d="M205.442,408.389a8.4,8.4,0,0,1-5.5,1.86,8.51,8.51,0,0,1-5.525-1.86c-1.675-1.363-2.329-2.976-2.329-5.588V389.61h2.474v12.432c0,2.5.188,3.2,1.174,4.262a5.924,5.924,0,0,0,8.375,0c.959-1.061,1.141-1.764,1.141-4.262V389.61h2.5V402.8c0,2.688-.629,4.225-2.306,5.588" transform="translate(2044.088 7522.035)" fill="#fff"/><path d="M216.15,407.873v-9.757a3.758,3.758,0,0,0-.215-1.607,1.465,1.465,0,0,0-1.4-.729c-1.4,0-2.886,1.036-5.272,3.679v8.414h-2.282V394.11h2.282V397a12.109,12.109,0,0,1,1.873-1.888,5.786,5.786,0,0,1,3.684-1.369c2.414,0,3.6,1.254,3.6,3.823v10.309Z" transform="translate(2050.567 7523.832)" fill="#fff"/><path d="M218.8,395.908h2.29V409.67H218.8Zm1.161-3.309a1.495,1.495,0,1,1,1.5-1.5,1.485,1.485,0,0,1-1.5,1.5" transform="translate(2055.573 7522.035)" fill="#fff"/><path d="M229.955,408.15h-2.1L222.693,394h2.5l3.788,11.157.062.54.019-.509L232.794,394h2.5Z" transform="translate(2057.402 7523.943)" fill="#fff"/><path d="M239.259,395.812c-1.924,0-3.247,1.161-3.767,3.289h6.729c-.02-2.128-1.079-3.289-2.962-3.289M235.3,400.8c0,3.334,1.7,5.367,4.5,5.367a5.553,5.553,0,0,0,3.569-1.368l.92,1.8a8.215,8.215,0,0,1-4.971,1.669c-3.832,0-6.415-2.9-6.415-7.257,0-4.383,2.583-7.264,6.5-7.264,3.213,0,5.3,2.28,5.3,5.72V400.8Z" transform="translate(2061.846 7523.832)" fill="#fff"/><path d="M250.446,396.59c-.445-.39-.7-.54-.967-.54-.858,0-1.953,1.243-3.26,3.615v8.207h-2.267V394.11h2.267v2.48c1.715-2.178,2.551-2.85,3.6-2.85a2.748,2.748,0,0,1,1.749.941Z" transform="translate(2066.649 7523.832)" fill="#fff"/><path d="M255.876,408.262a11.068,11.068,0,0,1-1.911-.175,9.686,9.686,0,0,1-3.242-1.155l.946-1.91.689.359a7.6,7.6,0,0,0,3.506.947c1.38,0,2.414-.759,2.414-1.82a1.918,1.918,0,0,0-.27-.949c-.554-.792-1.175-1.193-3.642-2.184-2.669-1.132-3.6-2.054-3.6-3.738,0-2.415,2.021-3.9,5.236-3.9a8.842,8.842,0,0,1,1.758.156,7.183,7.183,0,0,1,2.669,1.03l-1.122,1.851a6.1,6.1,0,0,0-1.976-.9,5.633,5.633,0,0,0-1.56-.25c-1.554,0-2.55.7-2.55,1.738a1.163,1.163,0,0,0,.319.848c.558.547.92.766,3.4,1.8,2.923,1.207,3.731,2.147,3.731,4.305,0,2.457-1.787,3.945-4.79,3.945" transform="translate(2069.595 7523.832)" fill="#fff"/><path d="M261.066,395.908h2.263V409.67h-2.263Zm1.142-3.309a1.495,1.495,0,1,1,1.49-1.5,1.5,1.5,0,0,1-1.49,1.5" transform="translate(2073.949 7522.035)" fill="#fff"/><path d="M275.769,401a3.377,3.377,0,0,0-.265-1.83c-.4-.765-1.372-1.155-2.762-1.155-2.917,0-4.8,2.1-4.8,5.413,0,2.77,1.548,4.773,3.664,4.773a4.835,4.835,0,0,0,2.7-.934,7.9,7.9,0,0,0,1.467-1.49Zm0,8.959v-1.728a6,6,0,0,1-4.533,2.115c-3.387,0-5.75-2.818-5.75-6.885,0-4.439,2.942-7.636,7.017-7.636a4.947,4.947,0,0,1,3.266.941v-7.835H278.1v21.027Z" transform="translate(2076.018 7521.741)" fill="#fff"/><path d="M285.159,401.589,280,402.926a2.586,2.586,0,0,0-.395,1.487,1.708,1.708,0,0,0,1.855,1.8c1.033,0,1.736-.346,3.7-1.772Zm2.872,6.673c-1.87-.1-2.529-.6-2.648-1.9a7.819,7.819,0,0,1-1.474,1.094,6.255,6.255,0,0,1-2.9.792,3.432,3.432,0,0,1-3.687-3.618,3.673,3.673,0,0,1,3.061-3.834l4.771-1.127v-2.478c0-1.137-.855-1.706-2.609-1.706-1.422,0-2.108.395-2.108,1.185a1.455,1.455,0,0,0,.139.521l-2.322.484a1.507,1.507,0,0,1-.244-.855c0-1.82,2.006-3.077,4.955-3.077,2.758,0,4.495,1.313,4.495,3.448v8.438c.062.363.421.616,1.129.733Z" transform="translate(2081.168 7523.83)" fill="#fff"/><path d="M297.662,401a3.26,3.26,0,0,0-.27-1.83c-.395-.765-1.375-1.155-2.758-1.155-2.917,0-4.8,2.1-4.8,5.413,0,2.77,1.548,4.773,3.662,4.773a4.9,4.9,0,0,0,2.685-.934,7.776,7.776,0,0,0,1.485-1.49Zm0,8.959v-1.728a6.033,6.033,0,0,1-4.559,2.115c-3.374,0-5.719-2.818-5.719-6.885,0-4.439,2.929-7.636,7-7.636a4.984,4.984,0,0,1,3.279.941v-7.835h2.306v21.027Z" transform="translate(2085.544 7521.741)" fill="#fff"/><path d="M202.355,419.3a3.3,3.3,0,0,0-.27-1.814c-.389-.766-1.353-1.157-2.752-1.157-2.9,0-4.776,2.092-4.776,5.381,0,2.762,1.543,4.771,3.654,4.771a4.944,4.944,0,0,0,2.678-.943,6.5,6.5,0,0,0,1.467-1.494Zm0,8.927v-1.708a6.045,6.045,0,0,1-4.538,2.111c-3.349,0-5.714-2.814-5.714-6.881,0-4.427,2.929-7.6,6.986-7.6a4.9,4.9,0,0,1,3.266.954v-7.811h2.3v20.939Z" transform="translate(2044.094 7529.727)" fill="#fff"/><path d="M209.983,414.143c-1.887,0-3.223,1.148-3.73,3.266h6.713c-.023-2.118-1.1-3.266-2.983-3.266m-3.919,4.961c0,3.341,1.692,5.361,4.489,5.361a5.731,5.731,0,0,0,3.562-1.356l.923,1.777a8.337,8.337,0,0,1-4.965,1.67c-3.819,0-6.4-2.907-6.4-7.24,0-4.374,2.583-7.245,6.483-7.245,3.207,0,5.3,2.273,5.3,5.7V419.1Z" transform="translate(2049.126 7531.806)" fill="#fff"/><rect width="2.264" height="19.834" transform="translate(2276.344 7938.138)" fill="#fff"/><path d="M231.287,414.1c-2.421,0-4.3,2.3-4.3,5.211s1.88,5.216,4.3,5.216c2.382,0,4.243-2.308,4.243-5.216s-1.861-5.211-4.243-5.211m0,12.45a7.261,7.261,0,1,1,6.735-7.24,7.073,7.073,0,0,1-6.735,7.24" transform="translate(2058.188 7531.806)" fill="#fff"/><path d="M241.435,426.551a10.091,10.091,0,0,1-1.9-.188,9.642,9.642,0,0,1-3.25-1.137l.941-1.909.689.366a7.646,7.646,0,0,0,3.481.921c1.386,0,2.414-.753,2.414-1.808a1.721,1.721,0,0,0-.26-.936c-.53-.792-1.184-1.192-3.622-2.191-2.678-1.112-3.576-2.053-3.576-3.722,0-2.394,1.983-3.867,5.193-3.867a8.165,8.165,0,0,1,1.749.143,7.308,7.308,0,0,1,2.672,1.03l-1.115,1.851a6.466,6.466,0,0,0-1.965-.917,6.37,6.37,0,0,0-1.6-.244c-1.523,0-2.527.7-2.527,1.738a1.2,1.2,0,0,0,.334.848c.544.534.907.746,3.384,1.784,2.91,1.211,3.731,2.147,3.731,4.306,0,2.437-1.781,3.931-4.777,3.931" transform="translate(2063.315 7531.809)" fill="#fff"/><path d="M258.673,410.8l-3.268,9.154h6.5Zm6.094,17.316L262.7,422.21h-8.075l-2.058,5.908H249.9l7.448-20.561h2.659l7.422,20.561Z" transform="translate(2069.238 7529.842)" fill="#fff"/><path d="M273.424,426.153v-9.718a3.673,3.673,0,0,0-.209-1.594,1.444,1.444,0,0,0-1.378-.735c-1.4,0-2.872,1.03-5.267,3.667v8.381H264.3v-13.7h2.269v2.874a12.927,12.927,0,0,1,1.876-1.884,5.788,5.788,0,0,1,3.664-1.368c2.425,0,3.6,1.244,3.6,3.83v10.252Z" transform="translate(2075.502 7531.806)" fill="#fff"/><path d="M285.364,419.3a3.414,3.414,0,0,0-.277-1.814c-.41-.766-1.378-1.157-2.771-1.157-2.9,0-4.777,2.092-4.777,5.381,0,2.762,1.546,4.771,3.661,4.771a4.929,4.929,0,0,0,2.681-.943,6.9,6.9,0,0,0,1.484-1.494Zm0,8.927v-1.708a6.1,6.1,0,0,1-4.559,2.111c-3.342,0-5.71-2.814-5.71-6.881,0-4.427,2.942-7.6,6.99-7.6a5.022,5.022,0,0,1,3.279.954v-5.556l2.3-2.254v20.939Z" transform="translate(2080.198 7529.727)" fill="#fff"/><path d="M293,414.143c-1.919,0-3.247,1.148-3.75,3.266h6.717c-.039-2.118-1.085-3.266-2.968-3.266m-3.951,4.961c0,3.341,1.695,5.361,4.484,5.361a5.736,5.736,0,0,0,3.573-1.356l.9,1.777a8.26,8.26,0,0,1-4.959,1.67c-3.8,0-6.39-2.907-6.39-7.24,0-4.374,2.59-7.245,6.471-7.245,3.219,0,5.3,2.273,5.3,5.7V419.1Z" transform="translate(2085.228 7531.806)" fill="#fff"/><path d="M302.246,426.551a10.221,10.221,0,0,1-1.911-.188,9.485,9.485,0,0,1-3.225-1.137l.928-1.909.683.366a7.63,7.63,0,0,0,3.483.921c1.395,0,2.437-.753,2.437-1.808a1.786,1.786,0,0,0-.276-.936c-.558-.792-1.178-1.192-3.643-2.191-2.656-1.112-3.566-2.053-3.566-3.722,0-2.394,1.995-3.867,5.2-3.867a8.2,8.2,0,0,1,1.749.143,6.991,6.991,0,0,1,2.659,1.03l-1.114,1.851a6.171,6.171,0,0,0-1.972-.917,5.967,5.967,0,0,0-1.579-.244c-1.517,0-2.534.7-2.534,1.738a1.2,1.2,0,0,0,.352.848c.527.534.9.746,3.381,1.784,2.906,1.211,3.711,2.147,3.711,4.306,0,2.437-1.769,3.931-4.766,3.931" transform="translate(2089.775 7531.809)" fill="#fff"/><path d="M212.74,372.742a10.783,10.783,0,0,0-6.4-1.943,8.793,8.793,0,0,0-9.157,9.051c0,5.981,3.951,9.88,10.009,9.88a15.551,15.551,0,0,0,6.086-1.29l.967,4.449a16.6,16.6,0,0,1-3.728,1.346,21.62,21.62,0,0,1-4.473.476c-4.318,0-7.421-1.1-10.029-3.473a14.932,14.932,0,0,1-4.678-11.091,14.473,14.473,0,0,1,4.245-10.4c2.777-2.731,5.891-3.85,10.463-3.85a13.586,13.586,0,0,1,8.7,2.652Z" transform="translate(2043.761 7511.717)" fill="#fff"/><rect width="4.974" height="30.671" transform="translate(2268.321 7875.201)" fill="#fff"/><path d="M225.834,374.8h4.981v19.559h-4.981Zm4.1-2.312h-4.542l5.561-7.066H236.4Z" transform="translate(2058.575 7511.512)" fill="#fff"/><path d="M249.281,391.631V379.051c0-2.441-.418-3.328-1.624-3.328-1.072,0-2.537,1.056-4.72,3.408l-.683.718v11.782h-5.027V372.071h5.027v3.235c2.353-2.557,4.282-3.612,6.77-3.612q5.284,0,5.287,5.552v14.385Z" transform="translate(2063.724 7514.241)" fill="#fff"/><path d="M257.166,375.124h4.991v19.559h-4.991Zm2.511-3.618a3.472,3.472,0,0,1,0-6.826c1.57,0,2.815,1.53,2.815,3.425a3.136,3.136,0,0,1-2.815,3.4" transform="translate(2072.258 7511.189)" fill="#fff"/><path d="M277.164,392.252c-6.044,0-9.938-4.014-9.938-10.146,0-6.317,4.143-10.565,10.364-10.565a15.708,15.708,0,0,1,3.194.344,11.4,11.4,0,0,1,3.735,1.6l-2.382,3.827a5.669,5.669,0,0,0-3.942-1.521c-3.323,0-5.674,2.6-5.674,6.275,0,3.49,2.085,5.885,5.119,5.885,1.675,0,2.9-.42,5.044-1.686l1.835,4.087a15.263,15.263,0,0,1-7.356,1.9" transform="translate(2076.774 7514.174)" fill="#fff"/><path d="M295.217,382.97l-5,1.634a4.054,4.054,0,0,0-.395,1.643,1.877,1.877,0,0,0,2.029,2.023,4.3,4.3,0,0,0,2.061-.594,7.311,7.311,0,0,0,1.3-.883Zm5.793,8.959h-1.063c-2.493,0-3.288-.425-4.192-2.144a7.684,7.684,0,0,1-5.463,2.4c-3.3,0-5.641-2.194-5.641-5.3a6.512,6.512,0,0,1,.313-1.975c.66-1.805,1.833-2.747,4.707-3.586l5.546-1.6v-1.636c0-2.088-.749-3.062-2.391-3.062-1.521,0-2.737.8-2.737,1.772a1.653,1.653,0,0,0,.128.5l-4.8,1.056a3.51,3.51,0,0,1-.251-1.369c0-3.443,3.035-5.4,8.332-5.4,4.658,0,6.759,1.934,6.759,6.2v8.188c0,1.757.2,2.054,1.546,2.184Z" transform="translate(2084.355 7514.19)" fill="#fff"/></g></svg>