<?xml version="1.0" standalone="no"?>
<!DOCTYPE svg PUBLIC "-//W3C//DTD SVG 1.1//EN" "http://www.w3.org/Graphics/SVG/1.1/DTD/svg11.dtd" >
<svg>
<metadata>
Created by FontForge 20090622 at Wed Jul 31 16:49:40 2019
 By deploy user
Copyright &#194;&#169; 1992, 2001 Adobe Systems Incorporated.  All Rights Reserved.
</metadata>
<defs>
<font id="BellGothicStd-Black" horiz-adv-x="556" >
  <font-face 
    font-family="Bell Gothic Std Black"
    font-weight="900"
    font-stretch="normal"
    units-per-em="1000"
    panose-1="2 11 7 6 2 2 2 4 2 4"
    ascent="748"
    descent="-252"
    x-height="530"
    cap-height="734"
    bbox="-166 -250 985 942"
    underline-thickness="50"
    underline-position="-50"
    unicode-range="U+0020-U+FB02"
  />
<missing-glyph horiz-adv-x="500" 
d="M0 0v700h500v-700h-500zM250 395l170 255h-340zM280 350l170 -255v510zM80 50h340l-170 255zM50 605v-510l170 255z" />
    <glyph glyph-name="fi" unicode="fi" horiz-adv-x="611" 
d="M23 421v109h78v74q0 19 1 30t6 28.5t18.5 31.5t34.5 25q42 21 110 21q33 0 58 -4v-104q-24 0 -34 -0.5t-23.5 -2.5t-18.5 -7t-8.5 -14.5t-3.5 -23.5v-54h88v-106h-88v-424h-140v421h-78zM392 0v530h139v-530h-139zM531 618h-139v119h139v-119z" />
    <glyph glyph-name="fl" unicode="fl" horiz-adv-x="611" 
d="M23 421v109h78v74q0 19 1 30t6 28.5t18.5 31.5t34.5 25q42 21 111 21q25 0 57 -4v-104q-24 0 -34 -0.5t-23.5 -2.5t-18.5 -7t-8.5 -14.5t-3.5 -23.5v-54h88v-106h-88v-424h-140v421h-78zM395 0v734h141v-734h-141z" />
    <glyph glyph-name=".notdef" horiz-adv-x="500" 
d="M0 0v700h500v-700h-500zM250 395l170 255h-340zM280 350l170 -255v510zM80 50h340l-170 255zM50 605v-510l170 255z" />
    <glyph glyph-name=".null" horiz-adv-x="0" 
 />
    <glyph glyph-name="nonmarkingreturn" horiz-adv-x="333" 
 />
    <glyph glyph-name="space" unicode=" " horiz-adv-x="275" 
 />
    <glyph glyph-name="exclam" unicode="!" horiz-adv-x="389" 
d="M249 266h-106l-30 468h163zM121 0v157h153v-157h-153z" />
    <glyph glyph-name="quotedbl" unicode="&#x22;" horiz-adv-x="333" 
d="M196 429v271h120v-271h-120zM15 429v271h120v-271h-120z" />
    <glyph glyph-name="numbersign" unicode="#" horiz-adv-x="600" 
d="M518 292l-4 -95h-86l-27 -197h-100l27 197h-91l-27 -197h-100l27 197h-85l4 95h95l16 116h-85l4 95h94l27 197h100l-27 -197h91l27 197h100l-27 -197h77l-4 -95h-86l-16 -116h76zM358 408h-91l-16 -116h91z" />
    <glyph glyph-name="dollar" unicode="$" 
d="M244 740v85h67v-85q51 -4 103 -25.5t88 -57.5l-76 -110q-22 29 -45.5 46.5t-37 22t-33.5 7.5v-167q98 -33 154 -90.5t56 -151.5q0 -70 -40 -123q-26 -35 -62 -55t-56 -24t-51 -7v-130l-70 1v129q-43 0 -85.5 15t-67.5 31t-61 44l68 123q28 -37 78 -70q25 -17 68 -28v209
q-99 33 -150 85q-51 53 -51 126q0 93 61 146q52 45 143 54zM243 480v148q-83 -4 -83 -64q0 -19 6 -32.5t20.5 -23.5t25 -15t31.5 -13zM310 301v-185q35 2 60.5 23.5t25.5 63.5q0 51 -55 82q-5 3 -31 16z" />
    <glyph glyph-name="percent" unicode="%" horiz-adv-x="889" 
d="M221 446q41 0 69.5 29t28.5 68q0 40 -29 69t-69 29t-69 -29t-29 -69q0 -41 29 -69t69 -28zM221 353q-80 0 -135.5 55t-55.5 135q0 79 56 135t135 56t135 -56t56 -135q0 -80 -56 -135t-135 -55zM657 6q42 0 70.5 28.5t28.5 67.5q0 40 -29 69t-70 29q-40 0 -69 -29t-29 -69
q0 -41 29 -68.5t69 -27.5zM657 -87q-80 0 -135.5 55t-55.5 134t56 135t135 56t135 -56t56 -135t-55.5 -134t-135.5 -55zM251 -107h-72l446 860h72z" />
    <glyph glyph-name="ampersand" unicode="&#x26;" horiz-adv-x="778" 
d="M394 407l24 -33q41 -57 99 -126q36 55 62 146l135 -44q-34 -116 -98 -195q29 -27 99 -30v-143q-57 -1 -94.5 6.5t-57 18.5t-53.5 38q-50 -37 -97.5 -52t-112.5 -15q-117 0 -183.5 68.5t-66.5 174.5q0 38 11 72t25.5 56t39.5 44t41.5 33t43.5 27q-12 18 -27 56.5t-15 77.5
q0 64 48 112.5t141 48.5q78 0 133 -40.5t55 -118.5q0 -30 -11 -56.5t-25 -44t-38 -35t-39 -26t-39 -20.5zM316 105q55 0 101 33q-44 49 -86.5 111.5t-61.5 100.5q-31 -16 -53 -47.5t-22 -68.5q0 -45 30.5 -87t91.5 -42zM296 596q0 -30 43 -101q85 45 85 101q0 24 -17 43.5
t-47 19.5q-23 0 -43.5 -13.5t-20.5 -49.5z" />
    <glyph glyph-name="quotesingle" unicode="'" horiz-adv-x="222" 
d="M51 429v271h120v-271h-120z" />
    <glyph glyph-name="parenleft" unicode="(" horiz-adv-x="389" 
d="M184 748h152q-3 -5 -23.5 -33t-23.5 -33q-112 -167 -112 -383q0 -130 52 -266q36 -91 114 -182h-150q-21 20 -59 82t-59 126q-39 120 -39 244q0 134 37 238.5t111 206.5z" />
    <glyph glyph-name="parenright" unicode=")" horiz-adv-x="389" 
d="M53 748h152q74 -102 111 -206.5t37 -238.5q0 -124 -39 -244q-21 -64 -59 -126t-59 -82h-150q78 91 114 182q52 136 52 266q0 216 -112 383q-3 5 -23.5 33t-23.5 33z" />
    <glyph glyph-name="asterisk" unicode="*" 
d="M250 560l-42 192h122l-38 -189l172 94l38 -114l-196 -22l149 -136l-95 -74l-85 183l-85 -183l-99 66l146 143l-194 17l33 112z" />
    <glyph glyph-name="plus" unicode="+" horiz-adv-x="600" 
d="M240 313v193h120v-193h192v-120h-192v-193h-120v193h-192v120h192z" />
    <glyph glyph-name="comma" unicode="," horiz-adv-x="278" 
d="M60 0v153h155v-168l-81 -164h-74l68 179h-68z" />
    <glyph glyph-name="hyphen" unicode="-" horiz-adv-x="333" 
d="M37 194v130h260v-130h-260z" />
    <glyph glyph-name="period" unicode="." horiz-adv-x="278" 
d="M63 0v157h153v-157h-153z" />
    <glyph glyph-name="slash" unicode="/" horiz-adv-x="278" 
d="M196 748h119l-233 -768h-119z" />
    <glyph glyph-name="zero" unicode="0" 
d="M363 303v143q0 101 -22.5 141t-63.5 40q-19 0 -32.5 -6.5t-26.5 -24t-19.5 -54.5t-6.5 -93v-160q0 -63 7 -104t21 -59.5t27.5 -25t33.5 -6.5q48 0 65 50.5t17 158.5zM40 363q0 54 1.5 86t11.5 83t30 88q69 125 196 125q33 0 64 -9t66 -36t58 -70q49 -91 49 -268
q0 -170 -49 -267q-59 -119 -182 -119q-50 0 -90.5 17t-65.5 41t-43 63t-26.5 70t-13.5 75.5t-5.5 66t-0.5 54.5z" />
    <glyph glyph-name="one" unicode="1" 
d="M69 0v118h142v498h-153v118h300v-616h135v-118h-424z" />
    <glyph glyph-name="two" unicode="2" 
d="M138 494l-122 77q18 33 28.5 50t33 45t45 42t58.5 25.5t79 11.5q111 0 174 -63.5t63 -151.5q0 -78 -39.5 -133t-118.5 -121l-95 -80q-23 -20 -30.5 -31t-13.5 -33h302v-132h-477q11 112 43.5 173.5t137.5 157.5q85 77 113 113t28 84q0 42 -23.5 71t-67.5 29
q-26 0 -46.5 -11t-32 -24.5t-21 -36t-12 -33.5z" />
    <glyph glyph-name="three" unicode="3" 
d="M19 -20v129q38 -7 90 -7q98 0 173.5 38.5t75.5 104.5q0 50 -28.5 70.5t-62.5 20.5q-49 0 -95 -26l-44 97q84 40 130 72q64 44 64 91q0 27 -21 45t-52 18q-36 0 -69 -18.5t-48 -35t-35 -42.5l-74 96q105 114 243 114q84 0 141 -40q59 -42 59 -113q0 -34 -10.5 -61.5
t-31.5 -47t-34.5 -29t-37.5 -23.5v-5q91 -17 128 -76q26 -41 26 -91q0 -69 -31.5 -124t-84.5 -90q-108 -71 -296 -71q-31 0 -75 4z" />
    <glyph glyph-name="four" unicode="4" 
d="M301 618l-184 -315h184v315zM21 183v153l229 398h197v-431h62v-120h-62v-183h-145v183h-281z" />
    <glyph glyph-name="five" unicode="5" 
d="M153 333h-106l43 401h381v-128h-275l-15 -134l8 -1q42 19 95 19q116 0 174.5 -68.5t58.5 -172.5q0 -120 -86 -196q-85 -75 -223 -75q-78 0 -181 24l23 125q61 -23 124 -23q93 0 138 33q55 40 55 116q0 61 -35.5 91.5t-80.5 30.5q-49 0 -98 -42z" />
    <glyph glyph-name="six" unicode="6" 
d="M270 87q26 0 45 11t28 24.5t14 36.5t5.5 36t0.5 34q0 50 -18 77q-24 35 -73 35q-26 0 -44.5 -10.5t-27 -23.5t-13.5 -34.5t-5.5 -33t-0.5 -29.5q0 -123 89 -123zM200 744h192q-90 -90 -139 -176q-59 -96 -70 -149q47 36 115 36q89 0 153 -64t64 -175q0 -23 -3.5 -47.5
t-18 -61t-38 -64t-69.5 -47.5t-107 -20q-120 0 -186 76t-66 207q0 82 14.5 144.5t46.5 138.5q23 55 38.5 82t73.5 120z" />
    <glyph glyph-name="seven" unicode="7" 
d="M55 602v132h466v-58q0 -7 -7 -20t-8 -14q-78 -175 -119 -295q-70 -206 -96 -347h-165q48 173 121 347t117 255h-309z" />
    <glyph glyph-name="eight" unicode="8" 
d="M278 333q-44 0 -70 -35q-21 -30 -21 -85q0 -73 25.5 -98t65.5 -25q92 0 92 122q0 121 -92 121zM276 436q33 0 52 20.5t22.5 38.5t3.5 37q0 102 -77 102q-79 0 -79 -99t78 -99zM400 390v-7q26 -10 38 -15t29.5 -20.5t29.5 -37.5q24 -46 24 -105q0 -123 -84 -183
q-58 -42 -163 -42q-64 0 -112.5 21.5t-74.5 55.5t-38.5 68.5t-12.5 67.5q0 72 27 115q34 51 90 74v7q-40 17 -70 57t-30 101q0 101 72 155q61 46 152 46q95 0 159 -52.5t64 -144.5q0 -37 -10.5 -67t-30.5 -49t-31 -27.5t-28 -17.5z" />
    <glyph glyph-name="nine" unicode="9" 
d="M275 642q-93 0 -93 -135q0 -119 91 -119q92 0 92 129q0 125 -90 125zM345 -14h-192q66 65 117 141.5t69 118.5t23 64q-46 -36 -123 -36q-12 0 -29.5 2.5t-55 19t-64.5 45.5q-28 30 -44 74.5t-16 88.5q0 121 64.5 186t171.5 65q51 0 95.5 -18t63.5 -34t33 -34
q61 -75 61 -218q0 -63 -19 -143q-41 -159 -155 -322z" />
    <glyph glyph-name="colon" unicode=":" horiz-adv-x="333" 
d="M90 0v157h153v-157h-153zM90 310v157h153v-157h-153z" />
    <glyph glyph-name="semicolon" unicode=";" horiz-adv-x="333" 
d="M89 0v153h155v-168l-81 -164h-74l68 179h-68zM89 310v157h153v-157h-153z" />
    <glyph glyph-name="less" unicode="&#x3c;" horiz-adv-x="600" 
d="M554 107v-115l-508 214v94l508 214v-115l-352 -146z" />
    <glyph glyph-name="equal" unicode="=" horiz-adv-x="600" 
d="M552 425v-120h-504v120h504zM552 201v-120h-504v120h504z" />
    <glyph glyph-name="greater" unicode="&#x3e;" horiz-adv-x="600" 
d="M46 107l352 146l-352 146v115l508 -214v-94l-508 -214v115z" />
    <glyph glyph-name="question" unicode="?" horiz-adv-x="500" 
d="M291 269h-124q0 60 8.5 99t19.5 59t38 54q50 60 51 62q17 23 17 45q0 28 -16.5 43t-45.5 15q-49 0 -80 -83l-124 47q15 30 27.5 49t37.5 43.5t64 37t90 12.5q88 0 143 -45q49 -41 49 -117q0 -63 -73 -136q-38 -39 -51.5 -56.5t-22 -47.5t-8.5 -81zM153 0v157h153v-157
h-153z" />
    <glyph glyph-name="at" unicode="@" horiz-adv-x="800" 
d="M486 357q0 36 -21 59.5t-56 23.5q-40 0 -67.5 -30.5t-27.5 -69.5q0 -35 19.5 -57.5t53.5 -22.5q43 0 71 29t28 68zM615 135l47 -54q-100 -93 -239 -93q-158 0 -268 102.5t-110 258.5q0 154 108.5 258.5t263.5 104.5q86 0 163 -35t126.5 -102t49.5 -151q0 -59 -19 -107
t-46.5 -76.5t-62 -48t-63 -26.5t-51.5 -7q-57 0 -59 47l-2 2q-42 -49 -107 -49q-54 0 -95.5 47t-41.5 112q0 91 48.5 154t137.5 63q78 0 119 -57l9 44h87l-40 -218q-10 -54 9 -54q36 0 63 36t27 101q0 114 -70 175.5t-185 61.5q-120 0 -194.5 -77t-74.5 -198q0 -125 80 -199
t206 -74q105 0 184 59z" />
    <glyph glyph-name="A" unicode="A" horiz-adv-x="667" 
d="M415 271l-81 332h-4l-80 -332h165zM234 734h195l212 -734h-157l-37 146h-225l-38 -146h-157z" />
    <glyph glyph-name="B" unicode="B" horiz-adv-x="667" 
d="M96 0v734h242q118 0 166 -30q39 -24 59 -66t20 -90q0 -65 -28.5 -107t-72.5 -52v-5q43 -6 80 -50t37 -118q0 -101 -57 -158q-36 -37 -82 -47.5t-127 -10.5h-237zM253 322v-206h80q104 0 104 105q0 72 -47 92q-23 9 -137 9zM253 621v-186q105 0 138 15.5t33 81.5
q0 25 -7.5 43t-17 27t-25.5 13.5t-25 5t-23 0.5h-73z" />
    <glyph glyph-name="C" unicode="C" horiz-adv-x="667" 
d="M83 266v221q0 127 67 195t194 68q99 0 161 -49q71 -56 76 -201h-161q-1 21 -2.5 34.5t-9 35.5t-25.5 34t-46 12q-36 0 -61 -23q-27 -25 -27 -80v-279q0 -17 0.5 -28t5 -30t13.5 -30t27 -20t43 -9q86 0 86 133h162q-1 -53 -7 -90q-17 -83 -77 -131q-61 -49 -160 -49
q-124 0 -190 65q-20 20 -32 37.5t-24.5 66t-12.5 117.5z" />
    <glyph glyph-name="D" unicode="D" horiz-adv-x="667" 
d="M81 0v734h178q127 0 188.5 -23t95.5 -72q25 -37 34.5 -90t9.5 -173l-1 -125q0 -161 -101 -212q-36 -18 -70 -25.5t-87 -11.5q-21 -2 -247 -2zM245 604v-473h46q29 0 48.5 4.5t40.5 18.5t31.5 47t10.5 83q0 12 1 45t1 45q0 77 -5 118.5t-22 66.5q-22 31 -50.5 38t-101.5 7
z" />
    <glyph glyph-name="E" unicode="E" horiz-adv-x="667" 
d="M88 0v734h493v-134h-333v-156h229v-134h-227v-173h354v-137h-516z" />
    <glyph glyph-name="F" unicode="F" horiz-adv-x="611" 
d="M79 0v734h488v-134h-326v-158h217v-136h-217v-306h-162z" />
    <glyph glyph-name="G" unicode="G" horiz-adv-x="667" 
d="M72 264v199q0 46 2.5 75t20.5 75t53 78q38 35 84 46.5t109 11.5q106 0 172 -61t66 -166h-160q-4 95 -91 95q-90 0 -90 -115v-231q0 -78 20.5 -116.5t76.5 -38.5q84 0 84 96v50h-86v122h246v-392h-72l-21 51h-7q-15 -18 -28 -28.5t-50 -22.5t-89 -12q-125 0 -190 81
q-29 37 -39.5 84t-10.5 119z" />
    <glyph glyph-name="H" unicode="H" horiz-adv-x="722" 
d="M94 0v734h163v-278h206v278h165v-734h-162v317h-208v-317h-164z" />
    <glyph glyph-name="I" unicode="I" horiz-adv-x="389" 
d="M362 0h-335v65h86v605h-86v64h335v-64h-87v-603h87v-67z" />
    <glyph glyph-name="J" unicode="J" horiz-adv-x="500" 
d="M5 231h130v-41t2.5 -34t7.5 -26t15.5 -16.5t26.5 -5.5q30 0 41.5 16.5t11.5 47.5v562h160v-568q0 -116 -82 -161q-47 -25 -111 -25q-82 0 -124 26q-23 14 -38.5 34t-23.5 37t-12 42t-4.5 38.5t-0.5 36.5q0 25 1 37z" />
    <glyph glyph-name="K" unicode="K" horiz-adv-x="722" 
d="M478 734h177l-224 -342l261 -392h-193l-243 380zM86 0v734h164v-734h-164z" />
    <glyph glyph-name="L" unicode="L" horiz-adv-x="611" 
d="M76 0v734h164v-597h323v-137h-487z" />
    <glyph glyph-name="M" unicode="M" horiz-adv-x="889" 
d="M98 0v734h216l87 -306l21 -77q6 -21 22 -92h5q14 79 40 172l86 303h217v-734h-141v395q0 46 7 209h-4l-152 -604h-111l-156 604h-5q0 -11 2 -60.5t3.5 -94.5t1.5 -59v-390h-139z" />
    <glyph glyph-name="N" unicode="N" horiz-adv-x="722" 
d="M96 0v734h154l189 -343l25 -50q1 -3 7.5 -19t8.5 -19h5l-4 74q-3 50 -3 84v273h148v-734h-132l-195 356q-15 27 -55 121h-5q5 -105 5 -133v-344h-148z" />
    <glyph glyph-name="O" unicode="O" horiz-adv-x="667" 
d="M245 500v-255q0 -65 18.5 -98.5t68.5 -33.5q25 0 42.5 9.5t26 21.5t13 33.5t5 33.5t0.5 34v255q0 21 -0.5 32t-5 29t-13 27.5t-25.5 17t-41 7.5q-89 0 -89 -113zM81 278v197q0 133 64 203q63 70 184 70q127 0 193 -71q64 -69 64 -227v-178q0 -151 -63 -219
q-67 -73 -196 -73q-31 0 -61.5 6.5t-64.5 21.5t-61 46.5t-40 75.5q-19 62 -19 148z" />
    <glyph glyph-name="P" unicode="P" horiz-adv-x="667" 
d="M257 613v-215q106 0 125 8q59 23 59 102q0 33 -8.5 54t-17.5 28t-23 13q-19 7 -39 8.5t-96 1.5zM95 0v734h242q140 0 205 -58q67 -60 67 -173q0 -75 -30 -120.5t-66 -67.5q-55 -33 -168 -37l-88 -3v-275h-162z" />
    <glyph glyph-name="Q" unicode="Q" horiz-adv-x="667" 
d="M639 90v-158q-49 0 -81 15q-56 27 -71 76q-63 -43 -160 -43q-31 0 -61.5 6.5t-64.5 21.5t-61 46.5t-40 75.5q-19 62 -19 148v197q0 133 64 203q63 70 184 70q127 0 193 -71q64 -69 64 -227v-178q0 -95 -21 -148q18 -23 32.5 -28.5t41.5 -5.5zM329 199v137q51 -7 77 -39
q6 -8 13 -19v222q0 20 -1 33t-5.5 30t-13.5 26.5t-26 16.5t-41 7q-87 0 -87 -113v-255q0 -65 18.5 -98.5t69.5 -33.5q43 0 64 29q-17 28 -30 38.5t-38 18.5z" />
    <glyph glyph-name="R" unicode="R" horiz-adv-x="667" 
d="M245 620v-203q105 0 128 8q34 12 44.5 36t10.5 62q0 70 -48 88q-25 9 -135 9zM245 300v-300h-159v734h237q43 0 74.5 -3t71 -15.5t64.5 -34t42.5 -62.5t17.5 -98q0 -153 -140 -195l160 -326h-175l-139 300h-54z" />
    <glyph glyph-name="S" unicode="S" horiz-adv-x="611" 
d="M546 617l-121 -80q-18 35 -52 58.5t-75 23.5q-29 0 -48.5 -9.5t-26.5 -24t-9 -22.5t-2 -15q0 -35 25 -54.5t68 -34.5l93 -34q85 -31 125 -86q41 -55 41 -129q0 -131 -104 -194q-61 -37 -141 -37q-101 0 -162 31.5t-109 117.5l125 83q44 -100 139 -100q35 0 66.5 19
t31.5 64q0 39 -25 57t-115 53q-49 19 -80.5 35.5t-63.5 44t-47.5 66.5t-15.5 91q0 93 64 150.5t175 57.5q154 0 244 -132z" />
    <glyph glyph-name="T" unicode="T" horiz-adv-x="611" 
d="M37 734h538v-134h-183v-600h-168v600h-187v134z" />
    <glyph glyph-name="U" unicode="U" horiz-adv-x="722" 
d="M95 259v475h167v-484q0 -19 0.5 -31.5t6 -34.5t15 -35t29.5 -23.5t48 -10.5q14 0 23 1t26 8t27 20t18.5 40t8.5 65v485h163v-486q0 -149 -76 -211q-70 -56 -181 -56q-136 0 -201 61q-33 31 -50.5 73t-20.5 71.5t-3 72.5z" />
    <glyph glyph-name="V" unicode="V" horiz-adv-x="667" 
d="M424 0h-175l-224 734h161l114 -395q30 -106 35 -125h4q11 44 35 132l109 388h160z" />
    <glyph glyph-name="W" unicode="W" horiz-adv-x="944" 
d="M34 734h146l76 -347q13 -52 17 -74l13 -72h6q0 2 6.5 33.5t8.5 38.5q1 6 9 38t9 37l80 346h138l79 -345q23 -115 34 -148h4q3 17 10.5 52l13 61.5t5.5 27.5l78 352h144l-174 -734h-145l-88 361q-18 73 -28 136h-4q-2 -7 -14.5 -67t-15.5 -71l-85 -359h-145z" />
    <glyph glyph-name="X" unicode="X" horiz-adv-x="667" 
d="M24 0l213 381l-209 353h172l88 -155q4 -7 20 -39l18 -36h6l40 76l83 154h175l-205 -350l219 -384h-174l-98 186l-36 71h-6l-38 -73l-94 -184h-174z" />
    <glyph glyph-name="Y" unicode="Y" horiz-adv-x="667" 
d="M420 0h-162v290l-232 444h173l93 -183q6 -12 42 -90h5l42 88l89 185h171l-221 -438v-296z" />
    <glyph glyph-name="Z" unicode="Z" horiz-adv-x="611" 
d="M74 600v134h488v-130l-314 -467h314v-137h-512v133l324 467h-300z" />
    <glyph glyph-name="bracketleft" unicode="[" horiz-adv-x="389" 
d="M49 -131v865h291v-71h-157v-722h155v-72h-289z" />
    <glyph glyph-name="backslash" unicode="\" horiz-adv-x="278" 
d="M-37 748h119l233 -768h-119z" />
    <glyph glyph-name="bracketright" unicode="]" horiz-adv-x="389" 
d="M340 734v-865h-289v72h155v722h-157v71h291z" />
    <glyph glyph-name="asciicircum" unicode="^" horiz-adv-x="600" 
d="M152 247h-119l214 453h106l214 -453h-120l-147 336z" />
    <glyph glyph-name="underscore" unicode="_" horiz-adv-x="500" 
d="M500 -125h-500v50h500v-50z" />
    <glyph glyph-name="grave" unicode="`" horiz-adv-x="278" 
d="M117 738l94 -145h-101l-147 145h154z" />
    <glyph glyph-name="a" unicode="a" horiz-adv-x="500" 
d="M96 391l-66 82q30 23 49 35t60 23.5t94 11.5q39 0 85 -12t74 -40q40 -40 40 -108v-260q0 -4 2 -10t9.5 -14.5t19.5 -8.5v-96h-41q-73 0 -109 66h-4q-26 -33 -49 -47q-47 -27 -92 -27q-24 0 -46.5 7t-45 22.5t-36.5 47t-14 74.5q0 119 114 171q71 32 152 37q0 67 -10 81
q-16 23 -58 23q-28 0 -54.5 -10.5t-39.5 -20t-34 -27.5zM291 189v82q-132 -26 -132 -116q0 -28 15.5 -46.5t40.5 -18.5q42 0 59 31t17 68z" />
    <glyph glyph-name="b" unicode="b" 
d="M65 0v734h141v-269h3q68 80 142 80q36 0 62 -13.5t39.5 -32.5t21.5 -49t9.5 -52.5t1.5 -52.5l1 -81q0 -103 -7 -152q-2 -15 -7.5 -30t-19 -38t-42 -37.5t-67.5 -14.5q-89 0 -140 94h-6v-86h-132zM206 394v-237q38 -41 79 -41q39 0 48.5 32.5t9.5 123.5q0 99 -9 130.5
t-46 31.5q-19 0 -35 -8t-47 -32z" />
    <glyph glyph-name="c" unicode="c" horiz-adv-x="500" 
d="M428 373h-113q-1 18 -4 29t-16.5 21t-36.5 10t-38 -9.5t-20 -27t-6.5 -28.5t-1.5 -28v-155q0 -51 14 -70.5t54 -19.5q59 0 59 76h120q-1 -26 -2.5 -41.5t-11.5 -46t-28 -49t-54 -33.5t-87 -15q-95 0 -143 44q-62 55 -62 169v125q0 101 45.5 160.5t146.5 59.5
q104 0 151 -58q32 -38 34 -113z" />
    <glyph glyph-name="d" unicode="d" 
d="M328 465h5v269h142v-734h-132v86h-6q-33 -56 -67 -75t-79 -19q-62 0 -92.5 37t-38.5 83q-7 40 -7 129q0 157 11 206q10 44 41.5 71t83.5 27q40 0 71.5 -16t42.5 -29t25 -35zM333 157v237q-44 40 -82 40q-13 0 -22.5 -3.5t-15.5 -13.5t-9.5 -19t-4.5 -29t-1.5 -33.5
t-0.5 -41.5q0 -104 3 -124q9 -54 54 -54q41 0 79 41z" />
    <glyph glyph-name="e" unicode="e" horiz-adv-x="500" 
d="M429 236h-251q0 -22 0.5 -36.5t5.5 -37.5t14.5 -36.5t29 -24t47.5 -10.5q62 0 141 39l15 -106q-99 -35 -168 -35q-168 0 -204 136q-13 51 -13 106q0 61 1 93t9.5 75t25.5 71q45 75 162 75q103 0 153 -75q22 -33 27 -76t5 -158zM178 315h135q0 30 -0.5 46t-4.5 37.5
t-11 31.5t-21 18t-34 8q-19 0 -32 -8t-19 -22t-9.5 -32.5t-3.5 -38.5v-40z" />
    <glyph glyph-name="f" unicode="f" horiz-adv-x="389" 
d="M35 421v109h78v79q0 16 1 26.5t6 27.5t18.5 31t34.5 25q42 21 110 21q38 0 69 -4v-104q-64 0 -81.5 -7t-17.5 -41v-54h99v-106h-99v-424h-140v421h-78z" />
    <glyph glyph-name="g" unicode="g" 
d="M74 -89l87 52q38 -49 85 -49q22 0 46.5 11t35.5 34q8 18 8 61v80h-5q-51 -76 -143 -76q-42 0 -73 24.5t-43 56.5q-11 29 -11 92v148q0 203 134 203q53 0 99 -39q24 -20 47 -62h4v90h132v-450q0 -30 -0.5 -47t-5 -48t-12.5 -50.5t-24 -44t-39 -38t-58.5 -23.5t-81.5 -10
q-80 0 -124.5 26.5t-57.5 58.5zM336 171v206q-9 12 -33.5 23t-41.5 11q-40 0 -52 -35q-10 -29 -10 -92q0 -86 10 -113q14 -38 52 -38q37 0 75 38z" />
    <glyph glyph-name="h" unicode="h" 
d="M69 0v734h141v-215l-2 -72h6q54 96 147 96q69 0 103 -52q24 -36 24 -110v-381h-140v341q0 22 -1.5 36t-13 28.5t-33.5 14.5q-23 0 -39 -10.5t-51 -41.5v-368h-141z" />
    <glyph glyph-name="i" unicode="i" horiz-adv-x="278" 
d="M70 0v530h138v-530h-138zM208 738v-120h-138v120h138z" />
    <glyph glyph-name="j" unicode="j" horiz-adv-x="333" 
d="M7 -175v116q20 0 29.5 0.5t25.5 4t23 10t13.5 20.5t6.5 34v520h140v-558q0 -77 -45 -113q-25 -20 -57 -29t-89 -9q-13 0 -47 4zM104 618v123h141v-123h-141z" />
    <glyph glyph-name="k" unicode="k" 
d="M226 284l123 246h148l-131 -238l163 -292h-156zM70 0v734h139v-734h-139z" />
    <glyph glyph-name="l" unicode="l" horiz-adv-x="278" 
d="M69 0v734h141v-734h-141z" />
    <glyph glyph-name="m" unicode="m" horiz-adv-x="833" 
d="M71 0v530h125v-99h4q58 112 153 112q31 0 54 -10.5t35 -29.5t17 -30.5t9 -28.5h5q19 27 33.5 44t49.5 36t77 19q40 0 70.5 -20t43.5 -57q13 -38 13 -132v-334h-137v361q0 58 -52 58q-37 0 -87 -49v-370h-137v348q0 72 -50 72q-20 0 -38.5 -11.5t-50.5 -40.5v-368h-137z
" />
    <glyph glyph-name="n" unicode="n" 
d="M69 0v530h130v-98h3q59 109 152 109q134 0 134 -153v-388h-141v346q0 72 -46 72q-19 0 -36.5 -9t-27 -18t-27.5 -28v-363h-141z" />
    <glyph glyph-name="o" unicode="o" 
d="M211 334v-104q0 -55 7 -85q11 -48 61 -48q47 0 57 35.5t10 154.5q0 27 -0.5 40.5t-2 35t-5.5 32.5t-11.5 23t-19 17t-27.5 5q-20 0 -33.5 -7.5t-20.5 -17t-10.5 -27t-4 -27.5t-0.5 -27zM69 279q0 30 0.5 47t4.5 49t11 52t22 45t36 39.5t54 24.5t75 10q38 0 64.5 -3.5
t61 -23t56.5 -54.5q33 -55 33 -198q0 -95 -9.5 -141.5t-47.5 -83.5q-53 -50 -145 -50q-84 0 -122 21q-61 34 -77.5 93t-16.5 173z" />
    <glyph glyph-name="p" unicode="p" 
d="M67 -173v708h130v-84h8q45 95 142 95q101 0 126 -103q11 -45 11 -202q0 -97 -4 -131.5t-22 -62.5q-34 -52 -110 -52q-82 0 -133 78h-7v-246h-141zM208 384v-239q50 -39 79 -39q14 0 23.5 3t16 12.5t9.5 17.5t4.5 28.5t2 35t0.5 45.5q0 95 -4 121q-3 23 -13.5 36t-19 15
t-20.5 2q-42 0 -78 -38z" />
    <glyph glyph-name="q" unicode="q" 
d="M343 535h129v-708h-141v246h-7q-51 -78 -133 -78q-119 0 -133 122q-1 7 -2 59q0 5 -1 32.5t-1 32.5q0 148 12 202q26 103 123 103q101 0 145 -95h9v84zM331 155v229q-32 38 -77 38q-37 0 -47 -28t-10 -104q0 -116 1 -126q4 -58 54 -58q39 0 79 49z" />
    <glyph glyph-name="r" unicode="r" horiz-adv-x="389" 
d="M58 0v530h134v-120h4q34 79 72.5 105.5t85.5 28.5v-183q-37 0 -55 -1.5t-44.5 -12.5t-53.5 -34v-313h-143z" />
    <glyph glyph-name="s" unicode="s" horiz-adv-x="444" 
d="M388 490l-60 -87q-63 43 -103 43q-25 0 -39.5 -11t-14.5 -30q0 -20 16.5 -32.5t54.5 -28.5q37 -17 58.5 -29t49 -34.5t41 -54t13.5 -71.5q0 -48 -19.5 -83t-49 -52.5t-58 -25.5t-53.5 -8q-98 0 -178 66l63 96q18 -19 30 -29t34.5 -20.5t47.5 -10.5q28 0 41.5 14.5
t13.5 32.5q0 11 -3 18.5t-13.5 15t-18 11.5t-28.5 14q-89 42 -127.5 83.5t-38.5 102.5q0 93 75 138q43 26 107 26q46 0 90.5 -16.5t68.5 -37.5z" />
    <glyph glyph-name="t" unicode="t" horiz-adv-x="389" 
d="M16 428v102h79v192h139v-192h102v-102h-102v-275q0 -9 1.5 -14.5t7 -14t21 -12.5t40.5 -4q10 0 39 3v-109q-65 -8 -84 -8q-23 0 -40.5 1.5t-42.5 10t-41 23t-28 43t-12 67.5v289h-79z" />
    <glyph glyph-name="u" unicode="u" 
d="M347 530h140v-530h-128v90h-6q-19 -31 -34.5 -50t-47 -36t-71.5 -17q-131 0 -131 141v402h140v-345q0 -74 48 -74q21 0 45 14q22 12 45 41v364z" />
    <glyph glyph-name="v" unicode="v" horiz-adv-x="500" 
d="M38 530h137l54 -209l21 -85h5q3 11 10 41l13 54l50 199h135l-140 -530h-136z" />
    <glyph glyph-name="w" unicode="w" horiz-adv-x="722" 
d="M308 530h106l59 -222q4 -13 22 -85h4l20 88l52 219h125l-141 -530h-106l-63 239q-12 44 -20 81h-5l-21 -80l-60 -240h-108l-145 530h124l52 -215q8 -34 23 -92h6q2 8 7 31.5t8 34.5q5 15 9 33z" />
    <glyph glyph-name="x" unicode="x" horiz-adv-x="500" 
d="M317 530h147l-140 -260l151 -270h-148l-75 150h-5l-12 -27l-61 -123h-148l148 269l-141 261h147l53 -110q1 -2 4 -8.5l6 -13t4 -7.5h4q1 2 6 14.5t6 14.5z" />
    <glyph glyph-name="y" unicode="y" horiz-adv-x="500" 
d="M28 530h139l76 -261h8l65 261h137l-132 -491q-35 -130 -81.5 -172t-133.5 -42q-35 0 -69 7v118l51 -6q50 0 73 36q12 19 15 32t3 40z" />
    <glyph glyph-name="z" unicode="z" horiz-adv-x="444" 
d="M37 0v97l208 330h-199v103h357v-97l-204 -328h208v-105h-370z" />
    <glyph glyph-name="braceleft" unicode="{" horiz-adv-x="333" 
d="M1 247v99q18 0 36.5 3.5t39.5 20.5t21 46v180q0 66 49 102t104 36h80v-90h-55q-58 0 -58 -65v-187q-1 -40 -37.5 -65.5t-70.5 -28.5v-3q23 -1 44.5 -8t42.5 -30t21 -58v-175q0 -65 58 -65h55v-90h-80q-55 0 -104 36t-49 102v179q0 19 -11 32.5t-29 19t-31.5 7.5t-25.5 2z
" />
    <glyph glyph-name="bar" unicode="|" horiz-adv-x="222" 
d="M51 -250v1000h120v-1000h-120z" />
    <glyph glyph-name="braceright" unicode="}" horiz-adv-x="333" 
d="M332 346v-99q-12 0 -25.5 -2t-31.5 -7.5t-29 -19t-11 -32.5v-179q0 -66 -49 -102t-104 -36h-80v90h55q58 0 58 65v175q0 35 21 58t42.5 30t44.5 8v3q-34 3 -70.5 28.5t-37.5 65.5v187q0 65 -58 65h-55v90h80q55 0 104 -36t49 -102v-180q0 -29 21 -46t39.5 -20.5
t36.5 -3.5z" />
    <glyph glyph-name="asciitilde" unicode="~" horiz-adv-x="600" 
d="M498 335l58 -80q-66 -91 -149 -91q-35 0 -103 34q-70 34 -112 34q-49 0 -91 -61l-58 80q33 44 67.5 67.5t81.5 23.5t115.5 -34t99.5 -34q52 0 91 61z" />
    <glyph glyph-name="uni00A0" unicode="&#xa0;" horiz-adv-x="275" 
 />
    <glyph glyph-name="exclamdown" unicode="&#xa1;" horiz-adv-x="389" 
d="M143 279h106l27 -468h-163zM121 388v157h153v-157h-153z" />
    <glyph glyph-name="cent" unicode="&#xa2;" 
d="M350 536l62 149h79l-74 -179q58 -55 60 -131h-116l-112 -269q29 -9 43 -9q67 0 71 79h123q0 -20 -0.5 -31t-5.5 -35t-14 -39.5t-28.5 -33.5t-47.5 -29q-48 -19 -115 -19q-31 0 -71 7l-69 -162h-79l78 189q-23 21 -33.5 34t-24 40t-18.5 69t-5 105q0 72 10 119.5t19 62
t26 33.5q15 16 26.5 25.5t49 22.5t85.5 13q50 0 81 -11zM206 161l112 268q-18 7 -42 7q-23 0 -38.5 -10.5t-23.5 -24t-12 -38t-4.5 -39t-0.5 -41.5q0 -95 9 -122z" />
    <glyph glyph-name="sterling" unicode="&#xa3;" 
d="M16 -18v127q107 12 107 137q0 13 -6 73h-112v91h98q-17 67 -17 129q0 95 56.5 153.5t160.5 58.5q38 0 75 -11.5t57 -23t51 -31.5l-61 -107q-31 36 -58 53.5t-62 17.5q-97 0 -97 -106q0 -68 20 -133h149v-91h-139q3 -27 3 -51q0 -82 -28 -130q70 -51 127 -51q48 0 63 27
t18 80h100q-2 -212 -159 -212q-104 0 -201 72q-20 -20 -34 -32t-46 -26t-65 -14z" />
    <glyph glyph-name="currency" unicode="&#xa4;" horiz-adv-x="600" 
d="M300 416q-43 0 -69 -30t-26 -75t26 -75t69 -30t69 30t26 75t-26 75t-69 30zM18 98l98 98q-31 52 -31 115q0 64 31 115l-98 98l69 69l98 -98q52 31 115 31q65 0 115 -31l98 98l69 -69l-98 -98q31 -50 31 -115q0 -66 -31 -114l98 -99l-69 -69l-98 99q-52 -32 -115 -32
t-115 31l-98 -98z" />
    <glyph glyph-name="yen" unicode="&#xa5;" horiz-adv-x="667" 
d="M255 189h-163v76h163v127l-6 10h-157v76h121l-121 256h133l45 -94l61 -122h11l35 77.5t23 50.5l40 88h132l-117 -256h117v-76h-152l-3 -6v-131h155v-76h-155v-189h-162v189z" />
    <glyph glyph-name="brokenbar" unicode="&#xa6;" horiz-adv-x="222" 
d="M51 -175v350h120v-350h-120zM51 325v350h120v-350h-120z" />
    <glyph glyph-name="section" unicode="&#xa7;" 
d="M171 498v4q-20 12 -33 22.5t-27 36.5t-14 58q0 56 44.5 96t132.5 40q117 0 189 -99l-83 -42q-12 20 -21 31.5t-32.5 25t-52.5 13.5q-33 0 -52 -15.5t-19 -38.5q0 -19 14.5 -35t32 -25.5t56.5 -28.5q39 -18 56.5 -27l45.5 -24.5t40.5 -26.5t27 -27.5t20 -34t5.5 -38.5
q0 -46 -25 -82t-85 -42v-2q75 -52 75 -121q0 -60 -46 -104t-137 -44q-72 0 -127 36q-39 26 -72 78l94 41q22 -83 110 -83q36 0 56.5 16t20.5 45q0 27 -22.5 43.5t-92.5 47.5q-48 21 -75.5 35t-36.5 20.5t-23 17.5q-56 45 -56 108q0 53 30.5 86t81.5 39zM350 274
q29 0 45 17.5t16 40.5q0 20 -16.5 38t-35 28.5t-55.5 28.5q-60 30 -95 30q-27 0 -42.5 -17t-15.5 -39q0 -28 22 -47t74 -45q69 -35 103 -35z" />
    <glyph glyph-name="dieresis" unicode="&#xa8;" horiz-adv-x="278" 
d="M-22 602v116h127v-116h-127zM173 602v116h127v-116h-127z" />
    <glyph glyph-name="copyright" unicode="&#xa9;" horiz-adv-x="800" 
d="M496 297h92q-10 -72 -58.5 -112t-114.5 -40q-89 0 -144.5 59.5t-55.5 148.5q0 92 53.5 150.5t144.5 58.5q67 0 113.5 -38.5t57.5 -110.5h-88q-11 59 -83 59q-43 0 -66.5 -31t-23.5 -86q0 -52 25.5 -86t66.5 -34q77 0 81 62zM114 350q0 -119 84 -203t202 -84t202 84
t84 203t-84 203t-202 84t-202 -84t-84 -203zM400 -12q-154 0 -265 98.5t-111 263.5t111 263.5t265 98.5q99 0 183.5 -41.5t138.5 -125.5t54 -195t-54 -195t-138.5 -125.5t-183.5 -41.5z" />
    <glyph glyph-name="ordfeminine" unicode="&#xaa;" horiz-adv-x="400" 
d="M103 654l-43 49q20 14 32 21t39 14t61 7q69 0 104 -31q26 -24 26 -65v-156q0 -19 20 -20v-58h-27q-45 0 -71 40h-2q-16 -19 -32 -28q-27 -16 -60 -16q-35 0 -63.5 20.5t-28.5 69.5q0 71 74 103q43 18 99 22q0 40 -7 49q-11 13 -38 13q-40 0 -83 -34zM230 532v50
q-86 -17 -86 -70q0 -17 10 -28t27 -11q27 0 38 18.5t11 40.5z" />
    <glyph glyph-name="guillemotleft" unicode="&#xab;" 
d="M163 426h125l-125 -156l129 -154h-126l-129 154zM392 426h125l-125 -156l129 -154h-126l-129 154z" />
    <glyph glyph-name="logicalnot" unicode="&#xac;" horiz-adv-x="600" 
d="M432 108v197h-384v120h504v-317h-120z" />
    <glyph glyph-name="uni00AD" unicode="&#xad;" horiz-adv-x="333" 
d="M37 194v130h260v-130h-260z" />
    <glyph glyph-name="registered" unicode="&#xae;" horiz-adv-x="800" 
d="M346 481v-98h61q52 -1 52 49q0 48 -52 49h-61zM346 317v-152h-92v377h165q57 0 95.5 -22.5t38.5 -75.5q0 -36 -22 -60t-60 -32v-2q22 -2 36 -9t21 -19.5t9.5 -25t5.5 -33.5q1 -6 1 -9q9 -74 19 -89h-95q-6 33 -14 101q-5 50 -31 51h-77zM114 350q0 -119 84 -203t202 -84
t202 84t84 203t-84 203t-202 84t-202 -84t-84 -203zM400 -12q-154 0 -265 98.5t-111 263.5t111 263.5t265 98.5q99 0 183.5 -41.5t138.5 -125.5t54 -195t-54 -195t-138.5 -125.5t-183.5 -41.5z" />
    <glyph glyph-name="macron" unicode="&#xaf;" horiz-adv-x="278" 
d="M-34 624v74h346v-74h-346z" />
    <glyph glyph-name="degree" unicode="&#xb0;" horiz-adv-x="400" 
d="M43 555q0 65 46 111t111 46t111 -46t46 -111t-46 -111.5t-111 -46.5t-111 46.5t-46 111.5zM291 555q0 41 -25.5 69t-65.5 28t-65.5 -28t-25.5 -69t25.5 -69.5t65.5 -28.5t65.5 28.5t25.5 69.5z" />
    <glyph glyph-name="plusminus" unicode="&#xb1;" horiz-adv-x="600" 
d="M240 400v156h120v-156h192v-120h-192v-150h-120v150h-192v120h192zM48 -62v120h504v-120h-504z" />
    <glyph glyph-name="twosuperior" unicode="&#xb2;" horiz-adv-x="350" 
d="M90 604l-80 47q15 25 24.5 37.5t28.5 31t45.5 27t60.5 8.5q72 0 113 -38t41 -91q0 -47 -26 -80.5t-77 -71.5l-61 -48q-16 -13 -20.5 -19.5t-8.5 -19.5h196v-81h-310q7 68 28 105.5t90 95.5q41 34 54.5 47t25.5 32t12 39q0 25 -15.5 42.5t-44.5 17.5q-58 0 -76 -81z" />
    <glyph glyph-name="threesuperior" unicode="&#xb3;" horiz-adv-x="350" 
d="M12 295v77q32 -4 59 -4q64 0 113 23t49 63q0 30 -18.5 42.5t-40.5 12.5q-30 0 -62 -16l-29 58q54 23 85 43q41 26 41 55q0 16 -13.5 27t-33.5 11q-52 0 -99 -58l-48 58q68 68 158 68q55 0 92 -24q38 -25 38 -68q0 -27 -14.5 -48t-26 -28.5t-33.5 -19.5v-3q58 -10 83 -46
q17 -24 17 -54q0 -82 -75 -129q-70 -42 -193 -42q-33 0 -49 2z" />
    <glyph glyph-name="acute" unicode="&#xb4;" horiz-adv-x="278" 
d="M138 738h155l-148 -145h-101z" />
    <glyph glyph-name="mu" unicode="&#xb5;" horiz-adv-x="576" 
d="M403 0v72h-2q-21 -38 -54 -61t-72 -23q-61 0 -95 48l-2 -2q5 -75 5 -82v-144h-140v722h140v-333q0 -52 26.5 -82.5t75.5 -30.5q52 0 85 39t33 90v317h140v-530h-140z" />
    <glyph glyph-name="paragraph" unicode="&#xb6;" horiz-adv-x="620" 
d="M206 -157v467q-107 0 -165 59t-58 159q0 97 69 151.5t177 54.5h314v-891h-120v781h-97v-781h-120z" />
    <glyph glyph-name="periodcentered" unicode="&#xb7;" horiz-adv-x="278" 
d="M58 329q0 32 23.5 56t57.5 24q33 0 57 -24t24 -56q0 -33 -24 -56.5t-57 -23.5q-34 0 -57.5 23.5t-23.5 56.5z" />
    <glyph glyph-name="cedilla" unicode="&#xb8;" horiz-adv-x="278" 
d="M5 -203l18 42q53 -16 77 -16q25 0 39.5 11.5t14.5 27.5q0 15 -10.5 24t-19 10.5t-16.5 1.5q-14 0 -40 -8l-21 20l59 90h54l-43 -63q22 6 37 6q34 0 60.5 -20.5t26.5 -54.5q0 -46 -37.5 -71t-87.5 -25q-43 0 -111 25z" />
    <glyph glyph-name="onesuperior" unicode="&#xb9;" horiz-adv-x="350" 
d="M45 306v71h92v297h-99v71h195v-368h87v-71h-275z" />
    <glyph glyph-name="ordmasculine" unicode="&#xba;" horiz-adv-x="400" 
d="M156 617v-62q0 -34 5 -51q7 -29 39 -29q31 0 37.5 21.5t6.5 92.5q0 25 -1 36.5t-4.5 27t-13 22t-24.5 6.5q-21 0 -31.5 -12t-12 -23t-1.5 -29zM64 584q0 26 1 41t7.5 41t19.5 40.5t39.5 26.5t64.5 12q86 0 118 -49q22 -34 22 -119q0 -56 -6.5 -84t-30.5 -51
q-36 -30 -95 -30q-55 0 -79 13q-40 21 -50.5 56t-10.5 103z" />
    <glyph glyph-name="guillemotright" unicode="&#xbb;" 
d="M39 426h125l126 -156l-129 -154h-126l129 154zM268 426h125l126 -156l-129 -154h-126l129 154z" />
    <glyph glyph-name="onequarter" unicode="&#xbc;" horiz-adv-x="1000" 
d="M807 371l-120 -189h120v189zM774 439h128v-257h40v-72h-40v-110h-95v110h-182v92zM66 306v71h92v297h-99v71h195v-368h87v-71h-275zM703 748h71l-427 -772h-72z" />
    <glyph glyph-name="onehalf" unicode="&#xbd;" horiz-adv-x="1000" 
d="M44 306v71h92v297h-99v71h195v-368h87v-71h-275zM668 748h71l-427 -772h-72zM720 296l-80 47q15 25 24.5 37.5t28.5 31t45.5 27t60.5 8.5q72 0 113 -38t41 -91q0 -47 -26 -80.5t-77 -71.5l-61 -48q-16 -13 -20.5 -19.5t-8.5 -19.5h196v-79h-310q7 67 28 104t90 95
q41 34 54.5 47t25.5 32t12 39q0 25 -15.5 42.5t-44.5 17.5q-58 0 -76 -81z" />
    <glyph glyph-name="threequarters" unicode="&#xbe;" horiz-adv-x="1000" 
d="M808 371l-120 -189h120v189zM775 439h128v-257h40v-72h-40v-110h-95v110h-182v92zM704 748h71l-427 -772h-72zM58 295v77q32 -4 59 -4q64 0 113 23t49 63q0 30 -18.5 42.5t-40.5 12.5q-30 0 -62 -16l-29 58q54 23 85 43q41 26 41 55q0 16 -13.5 27t-33.5 11
q-52 0 -99 -58l-48 58q68 68 158 68q55 0 92 -24q38 -25 38 -68q0 -27 -14.5 -48t-26 -28.5t-33.5 -19.5v-3q58 -10 83 -46q17 -24 17 -54q0 -82 -75 -129q-70 -42 -193 -42q-33 0 -49 2z" />
    <glyph glyph-name="questiondown" unicode="&#xbf;" horiz-adv-x="500" 
d="M209 277h124q0 -60 -8.5 -99t-19.5 -59t-38 -54q-8 -11 -25 -30t-26 -32q-17 -23 -17 -45q0 -28 16.5 -43t45.5 -15q49 0 80 83l124 -47q-15 -30 -27.5 -49t-37.5 -43.5t-64 -37t-90 -12.5q-88 0 -143 45q-49 41 -49 117q0 63 73 136q38 39 51.5 56.5t22 47.5t8.5 81z
M347 546v-157h-153v157h153z" />
    <glyph glyph-name="Agrave" unicode="&#xc0;" horiz-adv-x="667" 
d="M415 271l-81 332h-4l-80 -332h165zM234 734h195l212 -734h-157l-37 146h-225l-38 -146h-157zM312 942l94 -145h-101l-147 145h154z" />
    <glyph glyph-name="Aacute" unicode="&#xc1;" horiz-adv-x="667" 
d="M415 271l-81 332h-4l-80 -332h165zM234 734h195l212 -734h-157l-37 146h-225l-38 -146h-157zM333 942h155l-148 -145h-101z" />
    <glyph glyph-name="Acircumflex" unicode="&#xc2;" horiz-adv-x="667" 
d="M415 271l-81 332h-4l-80 -332h165zM234 734h195l212 -734h-157l-37 146h-225l-38 -146h-157zM397 942l114 -145h-113l-64 82l-63 -82h-114l115 145h125z" />
    <glyph glyph-name="Atilde" unicode="&#xc3;" horiz-adv-x="667" 
d="M415 271l-81 332h-4l-80 -332h165zM234 734h195l212 -734h-157l-37 146h-225l-38 -146h-157zM318 917l46 -17q29 -11 39 -11q40 0 49 42h65q-2 -17 -8.5 -35.5t-18.5 -39t-34.5 -33.5t-51.5 -13q-15 0 -72 17l-39 12q-22 6 -34 6q-36 0 -45 -41h-63q16 71 45.5 96.5
t74.5 25.5q23 0 47 -9z" />
    <glyph glyph-name="Adieresis" unicode="&#xc4;" horiz-adv-x="667" 
d="M415 271l-81 332h-4l-80 -332h165zM234 734h195l212 -734h-157l-37 146h-225l-38 -146h-157zM173 806v116h127v-116h-127zM368 806v116h127v-116h-127z" />
    <glyph glyph-name="Aring" unicode="&#xc5;" horiz-adv-x="667" 
d="M415 271l-81 332h-4l-80 -332h165zM234 734h195l212 -734h-157l-37 146h-225l-38 -146h-157zM257 864q0 32 23 55t55 23q33 0 56 -23t23 -55q0 -33 -23 -56t-56 -23q-32 0 -55 23t-23 56zM369 865q0 14 -9.5 24t-23.5 10t-23 -10t-9 -24q0 -15 9 -25t23 -10t23.5 10.5
t9.5 24.5z" />
    <glyph glyph-name="AE" unicode="&#xc6;" horiz-adv-x="1000" 
d="M469 289v328h-42l-141 -328h183zM942 0h-473v164h-238l-69 -164h-160l332 734h587v-131h-299v-164h193v-130h-193v-176h320v-133z" />
    <glyph glyph-name="Ccedilla" unicode="&#xc7;" horiz-adv-x="667" 
d="M417 250h162q-1 -53 -7 -90q-17 -83 -77 -131q-61 -49 -160 -49q-6 0 -8 1l-30 -44q22 6 37 6q34 0 60.5 -20.5t26.5 -54.5q0 -46 -37.5 -71t-87.5 -25q-43 0 -111 25l18 42q53 -16 77 -16q25 0 39.5 11.5t14.5 27.5q0 15 -10.5 24t-19 10.5t-16.5 1.5q-14 0 -40 -8
l-21 20l49 75q-78 9 -131 60q-20 20 -32 37.5t-24.5 66t-12.5 117.5v221q0 127 67 195t194 68q99 0 161 -49q71 -56 76 -201h-161q-1 21 -2.5 34.5t-9 35.5t-25.5 34t-46 12q-36 0 -61 -23q-27 -25 -27 -80v-279q0 -17 0.5 -28t5 -30t13.5 -30t27 -20t43 -9q86 0 86 133z
" />
    <glyph glyph-name="Egrave" unicode="&#xc8;" horiz-adv-x="667" 
d="M88 0v734h493v-134h-333v-156h229v-134h-227v-173h354v-137h-516zM312 942l94 -145h-101l-147 145h154z" />
    <glyph glyph-name="Eacute" unicode="&#xc9;" horiz-adv-x="667" 
d="M88 0v734h493v-134h-333v-156h229v-134h-227v-173h354v-137h-516zM333 942h155l-148 -145h-101z" />
    <glyph glyph-name="Ecircumflex" unicode="&#xca;" horiz-adv-x="667" 
d="M88 0v734h493v-134h-333v-156h229v-134h-227v-173h354v-137h-516zM397 942l114 -145h-113l-64 82l-63 -82h-114l115 145h125z" />
    <glyph glyph-name="Edieresis" unicode="&#xcb;" horiz-adv-x="667" 
d="M88 0v734h493v-134h-333v-156h229v-134h-227v-173h354v-137h-516zM173 806v116h127v-116h-127zM368 806v116h127v-116h-127z" />
    <glyph glyph-name="Igrave" unicode="&#xcc;" horiz-adv-x="389" 
d="M362 0h-335v65h86v605h-86v64h335v-64h-87v-603h87v-67zM173 942l94 -145h-101l-147 145h154z" />
    <glyph glyph-name="Iacute" unicode="&#xcd;" horiz-adv-x="389" 
d="M362 0h-335v65h86v605h-86v64h335v-64h-87v-603h87v-67zM194 942h155l-148 -145h-101z" />
    <glyph glyph-name="Icircumflex" unicode="&#xce;" horiz-adv-x="389" 
d="M362 0h-335v65h86v605h-86v64h335v-64h-87v-603h87v-67zM258 942l114 -145h-113l-64 82l-63 -82h-114l115 145h125z" />
    <glyph glyph-name="Idieresis" unicode="&#xcf;" horiz-adv-x="389" 
d="M362 0h-335v65h86v605h-86v64h335v-64h-87v-603h87v-67zM34 806v116h127v-116h-127zM229 806v116h127v-116h-127z" />
    <glyph glyph-name="Eth" unicode="&#xd0;" horiz-adv-x="667" 
d="M318 436v-102h-73v-203h46q29 0 48.5 4.5t40.5 18.5t31.5 47t10.5 83q0 12 1 45t1 45q0 77 -5 118.5t-22 66.5q-22 31 -50.5 38t-101.5 7v-168h73zM81 334h-81v102h81v298h178q127 0 188.5 -23t95.5 -72q25 -37 34.5 -90t9.5 -173l-1 -125q0 -161 -101 -212
q-36 -18 -70 -25.5t-87 -11.5q-21 -2 -247 -2v334z" />
    <glyph glyph-name="Ntilde" unicode="&#xd1;" horiz-adv-x="722" 
d="M96 0v734h154l189 -343l25 -50q1 -3 7.5 -19t8.5 -19h5l-4 74q-3 50 -3 84v273h148v-734h-132l-195 356q-15 27 -55 121h-5q5 -105 5 -133v-344h-148zM345 917l46 -17q29 -11 39 -11q40 0 49 42h65q-2 -17 -8.5 -35.5t-18.5 -39t-34.5 -33.5t-51.5 -13q-15 0 -72 17
l-39 12q-22 6 -34 6q-36 0 -45 -41h-63q16 71 45.5 96.5t74.5 25.5q23 0 47 -9z" />
    <glyph glyph-name="Ograve" unicode="&#xd2;" horiz-adv-x="667" 
d="M245 500v-255q0 -65 18.5 -98.5t68.5 -33.5q25 0 42.5 9.5t26 21.5t13 33.5t5 33.5t0.5 34v255q0 21 -0.5 32t-5 29t-13 27.5t-25.5 17t-41 7.5q-89 0 -89 -113zM81 278v197q0 133 64 203q63 70 184 70q127 0 193 -71q64 -69 64 -227v-178q0 -151 -63 -219
q-67 -73 -196 -73q-31 0 -61.5 6.5t-64.5 21.5t-61 46.5t-40 75.5q-19 62 -19 148zM312 942l94 -145h-101l-147 145h154z" />
    <glyph glyph-name="Oacute" unicode="&#xd3;" horiz-adv-x="667" 
d="M245 500v-255q0 -65 18.5 -98.5t68.5 -33.5q25 0 42.5 9.5t26 21.5t13 33.5t5 33.5t0.5 34v255q0 21 -0.5 32t-5 29t-13 27.5t-25.5 17t-41 7.5q-89 0 -89 -113zM81 278v197q0 133 64 203q63 70 184 70q127 0 193 -71q64 -69 64 -227v-178q0 -151 -63 -219
q-67 -73 -196 -73q-31 0 -61.5 6.5t-64.5 21.5t-61 46.5t-40 75.5q-19 62 -19 148zM333 942h155l-148 -145h-101z" />
    <glyph glyph-name="Ocircumflex" unicode="&#xd4;" horiz-adv-x="667" 
d="M245 500v-255q0 -65 18.5 -98.5t68.5 -33.5q25 0 42.5 9.5t26 21.5t13 33.5t5 33.5t0.5 34v255q0 21 -0.5 32t-5 29t-13 27.5t-25.5 17t-41 7.5q-89 0 -89 -113zM81 278v197q0 133 64 203q63 70 184 70q127 0 193 -71q64 -69 64 -227v-178q0 -151 -63 -219
q-67 -73 -196 -73q-31 0 -61.5 6.5t-64.5 21.5t-61 46.5t-40 75.5q-19 62 -19 148zM397 942l114 -145h-113l-64 82l-63 -82h-114l115 145h125z" />
    <glyph glyph-name="Otilde" unicode="&#xd5;" horiz-adv-x="667" 
d="M245 500v-255q0 -65 18.5 -98.5t68.5 -33.5q25 0 42.5 9.5t26 21.5t13 33.5t5 33.5t0.5 34v255q0 21 -0.5 32t-5 29t-13 27.5t-25.5 17t-41 7.5q-89 0 -89 -113zM81 278v197q0 133 64 203q63 70 184 70q127 0 193 -71q64 -69 64 -227v-178q0 -151 -63 -219
q-67 -73 -196 -73q-31 0 -61.5 6.5t-64.5 21.5t-61 46.5t-40 75.5q-19 62 -19 148zM318 917l46 -17q29 -11 39 -11q40 0 49 42h65q-2 -17 -8.5 -35.5t-18.5 -39t-34.5 -33.5t-51.5 -13q-15 0 -72 17l-39 12q-22 6 -34 6q-36 0 -45 -41h-63q16 71 45.5 96.5t74.5 25.5
q23 0 47 -9z" />
    <glyph glyph-name="Odieresis" unicode="&#xd6;" horiz-adv-x="667" 
d="M245 500v-255q0 -65 18.5 -98.5t68.5 -33.5q25 0 42.5 9.5t26 21.5t13 33.5t5 33.5t0.5 34v255q0 21 -0.5 32t-5 29t-13 27.5t-25.5 17t-41 7.5q-89 0 -89 -113zM81 278v197q0 133 64 203q63 70 184 70q127 0 193 -71q64 -69 64 -227v-178q0 -151 -63 -219
q-67 -73 -196 -73q-31 0 -61.5 6.5t-64.5 21.5t-61 46.5t-40 75.5q-19 62 -19 148zM173 806v116h127v-116h-127zM368 806v116h127v-116h-127z" />
    <glyph glyph-name="multiply" unicode="&#xd7;" horiz-adv-x="600" 
d="M218 253l-159 159l82 82l159 -159l159 159l82 -82l-160 -159l160 -159l-82 -82l-159 160l-159 -160l-82 82z" />
    <glyph glyph-name="Oslash" unicode="&#xd8;" horiz-adv-x="667" 
d="M419 430l-162 -268q17 -49 75 -49q25 0 42.5 9.5t26 21.5t13 33.5t5 33.5t0.5 34v185zM245 500v-202l164 277q-18 38 -75 38q-89 0 -89 -113zM641 787l-90 -151q35 -64 35 -186v-178q0 -151 -63 -219q-67 -73 -196 -73q-84 0 -143 39l-68 -115h-115l114 190q-9 16 -15 36
q-19 62 -19 148v197q0 133 64 203q63 70 184 70q93 0 153 -37l45 76h114z" />
    <glyph glyph-name="Ugrave" unicode="&#xd9;" horiz-adv-x="722" 
d="M95 259v475h167v-484q0 -19 0.5 -31.5t6 -34.5t15 -35t29.5 -23.5t48 -10.5q14 0 23 1t26 8t27 20t18.5 40t8.5 65v485h163v-486q0 -149 -76 -211q-70 -56 -181 -56q-136 0 -201 61q-33 31 -50.5 73t-20.5 71.5t-3 72.5zM339 942l94 -145h-101l-147 145h154z" />
    <glyph glyph-name="Uacute" unicode="&#xda;" horiz-adv-x="722" 
d="M95 259v475h167v-484q0 -19 0.5 -31.5t6 -34.5t15 -35t29.5 -23.5t48 -10.5q14 0 23 1t26 8t27 20t18.5 40t8.5 65v485h163v-486q0 -149 -76 -211q-70 -56 -181 -56q-136 0 -201 61q-33 31 -50.5 73t-20.5 71.5t-3 72.5zM360 942h155l-148 -145h-101z" />
    <glyph glyph-name="Ucircumflex" unicode="&#xdb;" horiz-adv-x="722" 
d="M95 259v475h167v-484q0 -19 0.5 -31.5t6 -34.5t15 -35t29.5 -23.5t48 -10.5q14 0 23 1t26 8t27 20t18.5 40t8.5 65v485h163v-486q0 -149 -76 -211q-70 -56 -181 -56q-136 0 -201 61q-33 31 -50.5 73t-20.5 71.5t-3 72.5zM424 942l114 -145h-113l-64 82l-63 -82h-114
l115 145h125z" />
    <glyph glyph-name="Udieresis" unicode="&#xdc;" horiz-adv-x="722" 
d="M95 259v475h167v-484q0 -19 0.5 -31.5t6 -34.5t15 -35t29.5 -23.5t48 -10.5q14 0 23 1t26 8t27 20t18.5 40t8.5 65v485h163v-486q0 -149 -76 -211q-70 -56 -181 -56q-136 0 -201 61q-33 31 -50.5 73t-20.5 71.5t-3 72.5zM200 806v116h127v-116h-127zM395 806v116h127
v-116h-127z" />
    <glyph glyph-name="Yacute" unicode="&#xdd;" horiz-adv-x="667" 
d="M420 0h-162v290l-232 444h173l93 -183q6 -12 42 -90h5l42 88l89 185h171l-221 -438v-296zM333 942h155l-148 -145h-101z" />
    <glyph glyph-name="Thorn" unicode="&#xde;" horiz-adv-x="667" 
d="M250 463v-215q100 -2 125 8q59 25 59 102q0 35 -9.5 57t-18 27.5t-21.5 10.5q-19 7 -39 8.5t-96 1.5zM250 125v-125h-162v734h162v-150h80q140 0 205 -58q67 -60 67 -173q0 -75 -30 -120.5t-66 -67.5q-56 -34 -198 -38z" />
    <glyph glyph-name="germandbls" unicode="&#xdf;" horiz-adv-x="611" 
d="M84 0v491q0 127 42.5 189t162.5 62q117 0 169 -61q43 -50 43 -134q0 -66 -31 -101t-58 -42v-4q70 -14 96 -57q28 -43 28 -137q0 -153 -75 -193q-38 -20 -88 -20q-23 0 -77 9v102q22 -9 38 -9q17 0 29 7t18 15.5t9 24.5t3.5 25t0.5 26q0 82 -5 98q-6 18 -15 29t-23.5 16
t-24 6.5t-27.5 2.5v97q33 1 48 19.5t15 74.5q0 104 -65 104q-69 0 -69 -90v-550h-144z" />
    <glyph glyph-name="agrave" unicode="&#xe0;" horiz-adv-x="500" 
d="M96 391l-66 82q30 23 49 35t60 23.5t94 11.5q39 0 85 -12t74 -40q40 -40 40 -108v-260q0 -4 2 -10t9.5 -14.5t19.5 -8.5v-96h-41q-73 0 -109 66h-4q-26 -33 -49 -47q-47 -27 -92 -27q-24 0 -46.5 7t-45 22.5t-36.5 47t-14 74.5q0 119 114 171q71 32 152 37q0 67 -10 81
q-16 23 -58 23q-28 0 -54.5 -10.5t-39.5 -20t-34 -27.5zM291 189v82q-132 -26 -132 -116q0 -28 15.5 -46.5t40.5 -18.5q42 0 59 31t17 68zM228 738l94 -145h-101l-147 145h154z" />
    <glyph glyph-name="aacute" unicode="&#xe1;" horiz-adv-x="500" 
d="M96 391l-66 82q30 23 49 35t60 23.5t94 11.5q39 0 85 -12t74 -40q40 -40 40 -108v-260q0 -4 2 -10t9.5 -14.5t19.5 -8.5v-96h-41q-73 0 -109 66h-4q-26 -33 -49 -47q-47 -27 -92 -27q-24 0 -46.5 7t-45 22.5t-36.5 47t-14 74.5q0 119 114 171q71 32 152 37q0 67 -10 81
q-16 23 -58 23q-28 0 -54.5 -10.5t-39.5 -20t-34 -27.5zM291 189v82q-132 -26 -132 -116q0 -28 15.5 -46.5t40.5 -18.5q42 0 59 31t17 68zM249 738h155l-148 -145h-101z" />
    <glyph glyph-name="acircumflex" unicode="&#xe2;" horiz-adv-x="500" 
d="M96 391l-66 82q30 23 49 35t60 23.5t94 11.5q39 0 85 -12t74 -40q40 -40 40 -108v-260q0 -4 2 -10t9.5 -14.5t19.5 -8.5v-96h-41q-73 0 -109 66h-4q-26 -33 -49 -47q-47 -27 -92 -27q-24 0 -46.5 7t-45 22.5t-36.5 47t-14 74.5q0 119 114 171q71 32 152 37q0 67 -10 81
q-16 23 -58 23q-28 0 -54.5 -10.5t-39.5 -20t-34 -27.5zM291 189v82q-132 -26 -132 -116q0 -28 15.5 -46.5t40.5 -18.5q42 0 59 31t17 68zM313 738l114 -145h-113l-64 82l-63 -82h-114l115 145h125z" />
    <glyph glyph-name="atilde" unicode="&#xe3;" horiz-adv-x="500" 
d="M96 391l-66 82q30 23 49 35t60 23.5t94 11.5q39 0 85 -12t74 -40q40 -40 40 -108v-260q0 -4 2 -10t9.5 -14.5t19.5 -8.5v-96h-41q-73 0 -109 66h-4q-26 -33 -49 -47q-47 -27 -92 -27q-24 0 -46.5 7t-45 22.5t-36.5 47t-14 74.5q0 119 114 171q71 32 152 37q0 67 -10 81
q-16 23 -58 23q-28 0 -54.5 -10.5t-39.5 -20t-34 -27.5zM291 189v82q-132 -26 -132 -116q0 -28 15.5 -46.5t40.5 -18.5q42 0 59 31t17 68zM234 713l46 -17q29 -11 39 -11q40 0 49 42h65q-2 -17 -8.5 -35.5t-18.5 -39t-34.5 -33.5t-51.5 -13q-15 0 -72 17l-39 12q-22 6 -34 6
q-36 0 -45 -41h-63q16 71 45.5 96.5t74.5 25.5q23 0 47 -9z" />
    <glyph glyph-name="adieresis" unicode="&#xe4;" horiz-adv-x="500" 
d="M96 391l-66 82q30 23 49 35t60 23.5t94 11.5q39 0 85 -12t74 -40q40 -40 40 -108v-260q0 -4 2 -10t9.5 -14.5t19.5 -8.5v-96h-41q-73 0 -109 66h-4q-26 -33 -49 -47q-47 -27 -92 -27q-24 0 -46.5 7t-45 22.5t-36.5 47t-14 74.5q0 119 114 171q71 32 152 37q0 67 -10 81
q-16 23 -58 23q-28 0 -54.5 -10.5t-39.5 -20t-34 -27.5zM291 189v82q-132 -26 -132 -116q0 -28 15.5 -46.5t40.5 -18.5q42 0 59 31t17 68zM89 602v116h127v-116h-127zM284 602v116h127v-116h-127z" />
    <glyph glyph-name="aring" unicode="&#xe5;" horiz-adv-x="500" 
d="M96 391l-66 82q30 23 49 35t60 23.5t94 11.5q39 0 85 -12t74 -40q40 -40 40 -108v-260q0 -4 2 -10t9.5 -14.5t19.5 -8.5v-96h-41q-73 0 -109 66h-4q-26 -33 -49 -47q-47 -27 -92 -27q-24 0 -46.5 7t-45 22.5t-36.5 47t-14 74.5q0 119 114 171q71 32 152 37q0 67 -10 81
q-16 23 -58 23q-28 0 -54.5 -10.5t-39.5 -20t-34 -27.5zM291 189v82q-132 -26 -132 -116q0 -28 15.5 -46.5t40.5 -18.5q42 0 59 31t17 68zM173 660q0 32 23 55t55 23q33 0 56 -23t23 -55q0 -33 -23 -56t-56 -23q-32 0 -55 23t-23 56zM285 661q0 14 -9.5 24t-23.5 10t-23 -10
t-9 -24q0 -15 9 -25t23 -10t23.5 10.5t9.5 24.5z" />
    <glyph glyph-name="ae" unicode="&#xe6;" horiz-adv-x="778" 
d="M693 125l16 -105q-82 -33 -167 -33q-7 0 -16 0.5t-33 5t-44 12.5t-42 25.5t-34 41.5h-6q-83 -85 -176 -85q-74 0 -113 39.5t-39 115.5q0 82 73 139q64 49 207 62v45q0 32 -25.5 45.5t-56.5 13.5q-28 0 -52.5 -8.5t-38 -18t-34.5 -26.5l-65 79q97 68 183 68t158 -55h7
q25 20 39 28.5t38.5 16t56.5 7.5q37 0 66.5 -10.5t48 -25t32 -39t19.5 -44t9.5 -48t4 -42.5t0.5 -37q0 -28 2 -58h-267q-5 -148 116 -148q68 0 133 39zM316 188l1 81q-45 -5 -76 -19.5t-44 -33t-18 -32t-5 -25.5q0 -39 19 -54.5t45 -15.5q38 0 57.5 30t20.5 69zM444 310h145
q0 56 -1.5 71t-8.5 31q-17 38 -63 38q-21 0 -36 -9.5t-22 -21.5t-10.5 -34t-3.5 -36v-39z" />
    <glyph glyph-name="ccedilla" unicode="&#xe7;" horiz-adv-x="500" 
d="M319 171h120q-1 -26 -2.5 -41.5t-11.5 -46t-28 -49t-54 -33.5t-87 -15h-5l-34 -49q22 6 37 6q34 0 60.5 -20.5t26.5 -54.5q0 -46 -37.5 -71t-87.5 -25q-43 0 -111 25l18 42q53 -16 77 -16q25 0 39.5 11.5t14.5 27.5q0 15 -10.5 24t-19 10.5t-16.5 1.5q-14 0 -40 -8
l-21 20l53 81q-52 6 -87 39q-62 55 -62 169v125q0 101 45.5 160.5t146.5 59.5q104 0 151 -58q32 -38 34 -113h-113q-1 18 -4 29t-16.5 21t-36.5 10t-38 -9.5t-20 -27t-6.5 -28.5t-1.5 -28v-155q0 -51 14 -70.5t54 -19.5q59 0 59 76z" />
    <glyph glyph-name="egrave" unicode="&#xe8;" horiz-adv-x="500" 
d="M429 236h-251q0 -22 0.5 -36.5t5.5 -37.5t14.5 -36.5t29 -24t47.5 -10.5q62 0 141 39l15 -106q-99 -35 -168 -35q-168 0 -204 136q-13 51 -13 106q0 61 1 93t9.5 75t25.5 71q45 75 162 75q103 0 153 -75q22 -33 27 -76t5 -158zM178 315h135q0 30 -0.5 46t-4.5 37.5
t-11 31.5t-21 18t-34 8q-19 0 -32 -8t-19 -22t-9.5 -32.5t-3.5 -38.5v-40zM228 738l94 -145h-101l-147 145h154z" />
    <glyph glyph-name="eacute" unicode="&#xe9;" horiz-adv-x="500" 
d="M429 236h-251q0 -22 0.5 -36.5t5.5 -37.5t14.5 -36.5t29 -24t47.5 -10.5q62 0 141 39l15 -106q-99 -35 -168 -35q-168 0 -204 136q-13 51 -13 106q0 61 1 93t9.5 75t25.5 71q45 75 162 75q103 0 153 -75q22 -33 27 -76t5 -158zM178 315h135q0 30 -0.5 46t-4.5 37.5
t-11 31.5t-21 18t-34 8q-19 0 -32 -8t-19 -22t-9.5 -32.5t-3.5 -38.5v-40zM249 738h155l-148 -145h-101z" />
    <glyph glyph-name="ecircumflex" unicode="&#xea;" horiz-adv-x="500" 
d="M429 236h-251q0 -22 0.5 -36.5t5.5 -37.5t14.5 -36.5t29 -24t47.5 -10.5q62 0 141 39l15 -106q-99 -35 -168 -35q-168 0 -204 136q-13 51 -13 106q0 61 1 93t9.5 75t25.5 71q45 75 162 75q103 0 153 -75q22 -33 27 -76t5 -158zM178 315h135q0 30 -0.5 46t-4.5 37.5
t-11 31.5t-21 18t-34 8q-19 0 -32 -8t-19 -22t-9.5 -32.5t-3.5 -38.5v-40zM313 738l114 -145h-113l-64 82l-63 -82h-114l115 145h125z" />
    <glyph glyph-name="edieresis" unicode="&#xeb;" horiz-adv-x="500" 
d="M429 236h-251q0 -22 0.5 -36.5t5.5 -37.5t14.5 -36.5t29 -24t47.5 -10.5q62 0 141 39l15 -106q-99 -35 -168 -35q-168 0 -204 136q-13 51 -13 106q0 61 1 93t9.5 75t25.5 71q45 75 162 75q103 0 153 -75q22 -33 27 -76t5 -158zM178 315h135q0 30 -0.5 46t-4.5 37.5
t-11 31.5t-21 18t-34 8q-19 0 -32 -8t-19 -22t-9.5 -32.5t-3.5 -38.5v-40zM89 602v116h127v-116h-127zM284 602v116h127v-116h-127z" />
    <glyph glyph-name="igrave" unicode="&#xec;" horiz-adv-x="278" 
d="M70 0v530h138v-530h-138zM117 738l94 -145h-101l-147 145h154z" />
    <glyph glyph-name="iacute" unicode="&#xed;" horiz-adv-x="278" 
d="M70 0v530h138v-530h-138zM138 738h155l-148 -145h-101z" />
    <glyph glyph-name="icircumflex" unicode="&#xee;" horiz-adv-x="278" 
d="M70 0v530h138v-530h-138zM202 738l114 -145h-113l-64 82l-63 -82h-114l115 145h125z" />
    <glyph glyph-name="idieresis" unicode="&#xef;" horiz-adv-x="278" 
d="M70 0v530h138v-530h-138zM-22 602v116h127v-116h-127zM173 602v116h127v-116h-127z" />
    <glyph glyph-name="eth" unicode="&#xf0;" 
d="M211 334v-104q0 -55 7 -85q11 -48 61 -48q47 0 57 35.5t10 154.5q0 27 -0.5 40.5t-2 35t-5.5 32.5t-11.5 23t-19 17t-27.5 5q-20 0 -33.5 -7.5t-20.5 -17t-10.5 -27t-4 -27.5t-0.5 -27zM215 743l89 37q25 -24 46 -54l83 37l37 -66l-74 -32q91 -149 91 -398
q0 -95 -9.5 -141.5t-47.5 -83.5q-53 -50 -145 -50q-84 0 -122 21q-61 34 -77.5 93t-16.5 173q0 28 0.5 46t4 48t10.5 49.5t20 43t32 37.5t48 23.5t66 9.5q51 0 85 -31l7 3q-11 54 -45 116l-79 -32l-37 63l80 34q-18 29 -46 54z" />
    <glyph glyph-name="ntilde" unicode="&#xf1;" 
d="M69 0v530h130v-98h3q59 109 152 109q134 0 134 -153v-388h-141v346q0 72 -46 72q-19 0 -36.5 -9t-27 -18t-27.5 -28v-363h-141zM262 713l46 -17q29 -11 39 -11q40 0 49 42h65q-2 -17 -8.5 -35.5t-18.5 -39t-34.5 -33.5t-51.5 -13q-15 0 -72 17l-39 12q-22 6 -34 6
q-36 0 -45 -41h-63q16 71 45.5 96.5t74.5 25.5q23 0 47 -9z" />
    <glyph glyph-name="ograve" unicode="&#xf2;" 
d="M211 334v-104q0 -55 7 -85q11 -48 61 -48q47 0 57 35.5t10 154.5q0 27 -0.5 40.5t-2 35t-5.5 32.5t-11.5 23t-19 17t-27.5 5q-20 0 -33.5 -7.5t-20.5 -17t-10.5 -27t-4 -27.5t-0.5 -27zM69 279q0 30 0.5 47t4.5 49t11 52t22 45t36 39.5t54 24.5t75 10q38 0 64.5 -3.5
t61 -23t56.5 -54.5q33 -55 33 -198q0 -95 -9.5 -141.5t-47.5 -83.5q-53 -50 -145 -50q-84 0 -122 21q-61 34 -77.5 93t-16.5 173zM256 738l94 -145h-101l-147 145h154z" />
    <glyph glyph-name="oacute" unicode="&#xf3;" 
d="M211 334v-104q0 -55 7 -85q11 -48 61 -48q47 0 57 35.5t10 154.5q0 27 -0.5 40.5t-2 35t-5.5 32.5t-11.5 23t-19 17t-27.5 5q-20 0 -33.5 -7.5t-20.5 -17t-10.5 -27t-4 -27.5t-0.5 -27zM69 279q0 30 0.5 47t4.5 49t11 52t22 45t36 39.5t54 24.5t75 10q38 0 64.5 -3.5
t61 -23t56.5 -54.5q33 -55 33 -198q0 -95 -9.5 -141.5t-47.5 -83.5q-53 -50 -145 -50q-84 0 -122 21q-61 34 -77.5 93t-16.5 173zM277 738h155l-148 -145h-101z" />
    <glyph glyph-name="ocircumflex" unicode="&#xf4;" 
d="M211 334v-104q0 -55 7 -85q11 -48 61 -48q47 0 57 35.5t10 154.5q0 27 -0.5 40.5t-2 35t-5.5 32.5t-11.5 23t-19 17t-27.5 5q-20 0 -33.5 -7.5t-20.5 -17t-10.5 -27t-4 -27.5t-0.5 -27zM69 279q0 30 0.5 47t4.5 49t11 52t22 45t36 39.5t54 24.5t75 10q38 0 64.5 -3.5
t61 -23t56.5 -54.5q33 -55 33 -198q0 -95 -9.5 -141.5t-47.5 -83.5q-53 -50 -145 -50q-84 0 -122 21q-61 34 -77.5 93t-16.5 173zM341 738l114 -145h-113l-64 82l-63 -82h-114l115 145h125z" />
    <glyph glyph-name="otilde" unicode="&#xf5;" 
d="M211 334v-104q0 -55 7 -85q11 -48 61 -48q47 0 57 35.5t10 154.5q0 27 -0.5 40.5t-2 35t-5.5 32.5t-11.5 23t-19 17t-27.5 5q-20 0 -33.5 -7.5t-20.5 -17t-10.5 -27t-4 -27.5t-0.5 -27zM69 279q0 30 0.5 47t4.5 49t11 52t22 45t36 39.5t54 24.5t75 10q38 0 64.5 -3.5
t61 -23t56.5 -54.5q33 -55 33 -198q0 -95 -9.5 -141.5t-47.5 -83.5q-53 -50 -145 -50q-84 0 -122 21q-61 34 -77.5 93t-16.5 173zM262 713l46 -17q29 -11 39 -11q40 0 49 42h65q-2 -17 -8.5 -35.5t-18.5 -39t-34.5 -33.5t-51.5 -13q-15 0 -72 17l-39 12q-22 6 -34 6
q-36 0 -45 -41h-63q16 71 45.5 96.5t74.5 25.5q23 0 47 -9z" />
    <glyph glyph-name="odieresis" unicode="&#xf6;" 
d="M211 334v-104q0 -55 7 -85q11 -48 61 -48q47 0 57 35.5t10 154.5q0 27 -0.5 40.5t-2 35t-5.5 32.5t-11.5 23t-19 17t-27.5 5q-20 0 -33.5 -7.5t-20.5 -17t-10.5 -27t-4 -27.5t-0.5 -27zM69 279q0 30 0.5 47t4.5 49t11 52t22 45t36 39.5t54 24.5t75 10q38 0 64.5 -3.5
t61 -23t56.5 -54.5q33 -55 33 -198q0 -95 -9.5 -141.5t-47.5 -83.5q-53 -50 -145 -50q-84 0 -122 21q-61 34 -77.5 93t-16.5 173zM117 602v116h127v-116h-127zM312 602v116h127v-116h-127z" />
    <glyph glyph-name="divide" unicode="&#xf7;" horiz-adv-x="600" 
d="M552 193h-504v120h504v-120zM208 460q0 38 27.5 65.5t65.5 27.5q37 0 64.5 -28t27.5 -65q0 -35 -27.5 -63.5t-63.5 -28.5q-38 0 -66 27.5t-28 64.5zM208 46q0 38 27.5 65t65.5 27q37 0 64.5 -27.5t27.5 -64.5q0 -35 -27.5 -64t-63.5 -29q-38 0 -66 27.5t-28 65.5z" />
    <glyph glyph-name="oslash" unicode="&#xf8;" 
d="M212 217l120 191q-14 32 -52 32q-20 0 -33.5 -7.5t-20.5 -17t-10.5 -27t-4 -27.5t-0.5 -27v-104q0 -6 1 -13zM346 306l-119 -182q16 -27 52 -27q47 0 57 35.5t10 154.5v19zM539 591l-83 -129q31 -56 31 -195q0 -95 -9.5 -141.5t-47.5 -83.5q-53 -50 -145 -50
q-76 0 -115 18l-50 -80h-104l89 138q-23 34 -29.5 81.5t-6.5 129.5q0 30 0.5 47t4.5 49t11 52t22 45t36 39.5t54 24.5t75 10q78 0 121 -23l44 68h102z" />
    <glyph glyph-name="ugrave" unicode="&#xf9;" 
d="M347 530h140v-530h-128v90h-6q-19 -31 -34.5 -50t-47 -36t-71.5 -17q-131 0 -131 141v402h140v-345q0 -74 48 -74q21 0 45 14q22 12 45 41v364zM256 738l94 -145h-101l-147 145h154z" />
    <glyph glyph-name="uacute" unicode="&#xfa;" 
d="M347 530h140v-530h-128v90h-6q-19 -31 -34.5 -50t-47 -36t-71.5 -17q-131 0 -131 141v402h140v-345q0 -74 48 -74q21 0 45 14q22 12 45 41v364zM277 738h155l-148 -145h-101z" />
    <glyph glyph-name="ucircumflex" unicode="&#xfb;" 
d="M347 530h140v-530h-128v90h-6q-19 -31 -34.5 -50t-47 -36t-71.5 -17q-131 0 -131 141v402h140v-345q0 -74 48 -74q21 0 45 14q22 12 45 41v364zM341 738l114 -145h-113l-64 82l-63 -82h-114l115 145h125z" />
    <glyph glyph-name="udieresis" unicode="&#xfc;" 
d="M347 530h140v-530h-128v90h-6q-19 -31 -34.5 -50t-47 -36t-71.5 -17q-131 0 -131 141v402h140v-345q0 -74 48 -74q21 0 45 14q22 12 45 41v364zM117 602v116h127v-116h-127zM312 602v116h127v-116h-127z" />
    <glyph glyph-name="yacute" unicode="&#xfd;" horiz-adv-x="500" 
d="M28 530h139l76 -261h8l65 261h137l-132 -491q-35 -130 -81.5 -172t-133.5 -42q-35 0 -69 7v118l51 -6q50 0 73 36q12 19 15 32t3 40zM249 738h155l-148 -145h-101z" />
    <glyph glyph-name="thorn" unicode="&#xfe;" 
d="M67 -173v907h141v-260h9q26 36 52 51q34 21 78 21q101 0 126 -103q11 -45 11 -202q0 -97 -4 -131.5t-22 -62.5q-34 -52 -110 -52q-82 0 -133 78h-7v-246h-141zM208 384v-239q50 -39 79 -39q14 0 23.5 3t16 12.5t9.5 17.5t4.5 28.5t2 35t0.5 45.5q0 95 -4 121
q-3 23 -13.5 36t-19 15t-20.5 2q-42 0 -78 -38z" />
    <glyph glyph-name="ydieresis" unicode="&#xff;" horiz-adv-x="500" 
d="M28 530h139l76 -261h8l65 261h137l-132 -491q-35 -130 -81.5 -172t-133.5 -42q-35 0 -69 7v118l51 -6q50 0 73 36q12 19 15 32t3 40zM89 602v116h127v-116h-127zM284 602v116h127v-116h-127z" />
    <glyph glyph-name="dotlessi" unicode="&#x131;" horiz-adv-x="278" 
d="M70 0v530h138v-530h-138z" />
    <glyph glyph-name="Lslash" unicode="&#x141;" horiz-adv-x="611" 
d="M414 494v-102l-174 -79v-176h323v-137h-487v259l-76 -35v102l76 35v373h164v-319z" />
    <glyph glyph-name="lslash" unicode="&#x142;" horiz-adv-x="278" 
d="M278 448v-104l-68 -28v-316h-141v278l-69 -28v104l69 28v352h141v-314z" />
    <glyph glyph-name="OE" unicode="&#x152;" horiz-adv-x="944" 
d="M421 263v228q0 25 -2.5 42t-10.5 35.5t-25.5 28t-45.5 9.5q-27 0 -47.5 -9t-32 -29t-19 -38.5t-10.5 -51.5t-3.5 -52t-0.5 -56q0 -132 20.5 -185t85.5 -53q26 0 44.5 9t27 20t13.5 32t5.5 34t0.5 36zM903 140v-135h-560q-32 0 -53.5 1.5t-54 8t-60.5 22t-51 40.5
q-27 29 -40.5 70.5t-15.5 67.5t-2 69v207q0 128 68 190q59 53 165 53h576v-129h-295v-159h191v-132h-191v-174h323z" />
    <glyph glyph-name="oe" unicode="&#x153;" horiz-adv-x="778" 
d="M703 126l15 -106q-89 -33 -169 -33q-96 0 -144 71h-7q-16 -20 -29.5 -32t-48 -25t-79.5 -13q-96 0 -145 63q-29 37 -37.5 87.5t-8.5 142.5q0 76 9 120.5t37 79.5q22 28 57 43.5t52 17.5t30 2q82 0 131 -41q9 -6 20 -17q4 -5 8 -1q10 10 14 15q11 13 43 28t75 15
q81 0 130 -43.5t58 -121.5q6 -48 6 -147h-257q0 -23 0.5 -37t6 -37t16 -35.5t33 -23t54.5 -10.5q60 0 130 38zM262 96q20 0 33.5 8.5t20 19t10 33t4 37.5t0.5 46q0 131 -10 160q-18 33 -60 35q-44 0 -57 -38t-13 -137t14.5 -131.5t57.5 -32.5zM461 310h136q0 34 -0.5 50
t-4 37.5t-11 30.5t-21 16t-34.5 7q-42 0 -60 -47q-5 -13 -5 -94z" />
    <glyph glyph-name="Scaron" unicode="&#x160;" horiz-adv-x="611" 
d="M546 617l-121 -80q-18 35 -52 58.5t-75 23.5q-29 0 -48.5 -9.5t-26.5 -24t-9 -22.5t-2 -15q0 -35 25 -54.5t68 -34.5l93 -34q85 -31 125 -86q41 -55 41 -129q0 -131 -104 -194q-61 -37 -141 -37q-101 0 -162 31.5t-109 117.5l125 83q44 -100 139 -100q35 0 66.5 19
t31.5 64q0 39 -25 57t-115 53q-49 19 -80.5 35.5t-63.5 44t-47.5 66.5t-15.5 91q0 93 64 150.5t175 57.5q154 0 244 -132zM369 797h-125l-115 145h114l63 -82l64 82h113z" />
    <glyph glyph-name="scaron" unicode="&#x161;" horiz-adv-x="444" 
d="M388 490l-60 -87q-63 43 -103 43q-25 0 -39.5 -11t-14.5 -30q0 -20 16.5 -32.5t54.5 -28.5q37 -17 58.5 -29t49 -34.5t41 -54t13.5 -71.5q0 -48 -19.5 -83t-49 -52.5t-58 -25.5t-53.5 -8q-98 0 -178 66l63 96q18 -19 30 -29t34.5 -20.5t47.5 -10.5q28 0 41.5 14.5
t13.5 32.5q0 11 -3 18.5t-13.5 15t-18 11.5t-28.5 14q-89 42 -127.5 83.5t-38.5 102.5q0 93 75 138q43 26 107 26q46 0 90.5 -16.5t68.5 -37.5zM285 593h-125l-115 145h114l63 -82l64 82h113z" />
    <glyph glyph-name="Ydieresis" unicode="&#x178;" horiz-adv-x="667" 
d="M420 0h-162v290l-232 444h173l93 -183q6 -12 42 -90h5l42 88l89 185h171l-221 -438v-296zM173 806v116h127v-116h-127zM368 806v116h127v-116h-127z" />
    <glyph glyph-name="Zcaron" unicode="&#x17d;" horiz-adv-x="611" 
d="M74 600v134h488v-130l-314 -467h314v-137h-512v133l324 467h-300zM369 797h-125l-115 145h114l63 -82l64 82h113z" />
    <glyph glyph-name="zcaron" unicode="&#x17e;" horiz-adv-x="444" 
d="M37 0v97l208 330h-199v103h357v-97l-204 -328h208v-105h-370zM285 593h-125l-115 145h114l63 -82l64 82h113z" />
    <glyph glyph-name="florin" unicode="&#x192;" 
d="M118 373v106h96q18 118 22 131q17 61 58 98t105 37q58 0 130 -31l-31 -103q-23 15 -33.5 19t-31.5 4q-37 0 -50 -30t-28 -125h120v-106h-128l-47 -366q-6 -48 -24.5 -82.5t-37.5 -51t-48 -25.5t-43.5 -10t-36.5 -1q-54 0 -112 20l29 115q18 -25 58 -25q18 0 31 6t20 13
t12.5 25.5t7 30t5.5 39.5l39 312h-82z" />
    <glyph glyph-name="circumflex" unicode="&#x2c6;" horiz-adv-x="278" 
d="M202 738l114 -145h-113l-64 82l-63 -82h-114l115 145h125z" />
    <glyph glyph-name="caron" unicode="&#x2c7;" horiz-adv-x="278" 
d="M202 593h-125l-115 145h114l63 -82l64 82h113z" />
    <glyph glyph-name="uni02C9" unicode="&#x2c9;" horiz-adv-x="278" 
d="M-34 624v74h346v-74h-346z" />
    <glyph glyph-name="breve" unicode="&#x2d8;" horiz-adv-x="278" 
d="M-29 738h65q6 -30 25.5 -46.5t37 -19.5t42.5 -3q31 0 51.5 6.5t30 19.5t13 21t6.5 22h65q-6 -70 -58 -112q-41 -33 -122 -33q-57 0 -93 25q-52 35 -63 120z" />
    <glyph glyph-name="dotaccent" unicode="&#x2d9;" horiz-adv-x="278" 
d="M70 595v128h139v-128h-139z" />
    <glyph glyph-name="ring" unicode="&#x2da;" horiz-adv-x="278" 
d="M62 660q0 32 23 55t55 23q33 0 56 -23t23 -55q0 -33 -23 -56t-56 -23q-32 0 -55 23t-23 56zM174 661q0 14 -9.5 24t-23.5 10t-23 -10t-9 -24q0 -15 9 -25t23 -10t23.5 10.5t9.5 24.5z" />
    <glyph glyph-name="ogonek" unicode="&#x2db;" horiz-adv-x="278" 
d="M243 -131v-52q-45 -45 -113 -45q-49 0 -86 25t-37 71q0 36 35.5 66t120.5 66h80q-149 -88 -149 -138q0 -16 14.5 -27.5t39.5 -11.5q43 0 95 46z" />
    <glyph glyph-name="tilde" unicode="&#x2dc;" horiz-adv-x="278" 
d="M123 713l46 -17q29 -11 39 -11q40 0 49 42h65q-2 -17 -8.5 -35.5t-18.5 -39t-34.5 -33.5t-51.5 -13q-15 0 -72 17l-39 12q-22 6 -34 6q-36 0 -45 -41h-63q16 71 45.5 96.5t74.5 25.5q23 0 47 -9z" />
    <glyph glyph-name="hungarumlaut" unicode="&#x2dd;" horiz-adv-x="278" 
d="M112 738h125l-120 -145h-81zM309 738h126l-120 -145h-82z" />
    <glyph glyph-name="uni03A9" unicode="&#x3a9;" horiz-adv-x="700" 
d="M170 108v4q-51 53 -85.5 130t-34.5 169q0 143 85 242.5t218 99.5q92 0 161 -52t101 -126t32 -155q0 -95 -35 -175.5t-86 -132.5v-4h135v-108h-262v79q49 35 82 113.5t33 197.5q0 105 -43 177.5t-120 72.5q-76 0 -122 -71.5t-46 -184.5q0 -109 33.5 -191t81.5 -114v-79
h-262v108h134z" />
    <glyph glyph-name="uni03BC" unicode="&#x3bc;" horiz-adv-x="576" 
d="M403 0v72h-2q-21 -38 -54 -61t-72 -23q-61 0 -95 48l-2 -2q5 -75 5 -82v-144h-140v722h140v-333q0 -52 26.5 -82.5t75.5 -30.5q52 0 85 39t33 90v317h140v-530h-140z" />
    <glyph glyph-name="pi" unicode="&#x3c0;" horiz-adv-x="604" 
d="M581 443h-70v-290q0 -99 13 -153h-126q-18 34 -18 149v294h-135q-4 -98 -22 -230.5t-43 -212.5h-126q25 92 42.5 223t19.5 220q-61 0 -96 -10l-15 89q45 35 165 35h420z" />
    <glyph glyph-name="endash" unicode="&#x2013;" horiz-adv-x="500" 
d="M-1 313h501v-93h-501v93z" />
    <glyph glyph-name="emdash" unicode="&#x2014;" horiz-adv-x="1000" 
d="M875 313v-93h-750v93h750z" />
    <glyph glyph-name="quoteleft" unicode="&#x2018;" horiz-adv-x="278" 
d="M151 553h67v-150h-155v168l84 163h72z" />
    <glyph glyph-name="quoteright" unicode="&#x2019;" horiz-adv-x="278" 
d="M127 584h-67v150h155v-168l-84 -163h-72z" />
    <glyph glyph-name="quotesinglbase" unicode="&#x201a;" horiz-adv-x="278" 
d="M127 181h-67v150h155v-168l-84 -163h-72z" />
    <glyph glyph-name="quotedblleft" unicode="&#x201c;" 
d="M151 553h67v-150h-155v168l84 163h72zM418 553h67v-150h-155v168l84 163h72z" />
    <glyph glyph-name="quotedblright" unicode="&#x201d;" 
d="M138 584h-67v150h155v-168l-84 -163h-72zM405 584h-67v150h155v-168l-84 -163h-72z" />
    <glyph glyph-name="quotedblbase" unicode="&#x201e;" 
d="M127 18h-67v150h155v-168l-84 -163h-72zM397 18h-67v150h155v-168l-84 -163h-72z" />
    <glyph glyph-name="dagger" unicode="&#x2020;" 
d="M86 470v127l172 -41l-45 199h129l-45 -199l173 41v-125l-173 42q3 -10 15 -58l13 -49q1 -2 5 -14l7.5 -23.5t3.5 -16.5q0 -3 -4 -17.5t-5 -19.5q-10 -51 -14 -100l-22 -245h-38l-10 134q-8 105 -27 214q-1 3 -3 11l-3.5 14.5t-1.5 8.5q0 4 1 6l14 46q14 47 30 111z" />
    <glyph glyph-name="daggerdbl" unicode="&#x2021;" 
d="M86 470v128l172 -44l-43 201h129l-47 -201l173 46v-127l-171 42q16 -77 23 -100q6 -22 8 -26q10 -22 10 -24q0 -1 -3.5 -11.5l-7.5 -22l-5 -14.5q-19 -66 -24 -106l170 45v-128l-169 44l40 -201h-126l41 201l-170 -44v128l173 -45q-11 65 -43 154q28 71 42 150z" />
    <glyph glyph-name="bullet" unicode="&#x2022;" horiz-adv-x="500" 
d="M420 350q0 -70 -50 -120t-120 -50q-71 0 -120.5 49.5t-49.5 120.5q-1 70 49 120t121 50q70 0 120 -50t50 -120z" />
    <glyph glyph-name="ellipsis" unicode="&#x2026;" horiz-adv-x="1000" 
d="M90 0v157h153v-157h-153zM424 0v157h153v-157h-153zM758 0v157h153v-157h-153z" />
    <glyph glyph-name="perthousand" unicode="&#x2030;" horiz-adv-x="1000" 
d="M161 646q-26 0 -45 -18.5t-19 -45.5t18.5 -45t45.5 -18t45.5 18t18.5 45t-19 45.5t-45 18.5zM8 586q0 62 45 105.5t108 43.5t108 -44.5t45 -106.5t-44.5 -108.5t-108.5 -46.5q-62 0 -107.5 44.5t-45.5 112.5zM459 206q-26 0 -44.5 -18.5t-18.5 -45.5t18.5 -45t44.5 -18
q27 0 45.5 18t18.5 45t-19 45.5t-45 18.5zM307 146q0 62 44.5 105.5t107.5 43.5q64 0 108.5 -44.5t44.5 -106.5t-44 -107.5t-109 -45.5q-62 0 -107 43.5t-45 111.5zM832 206q-26 0 -44.5 -18.5t-18.5 -45.5t18 -45t45 -18t45.5 18t18.5 45t-19 45.5t-45 18.5zM679 146
q0 62 45 105.5t108 43.5q64 0 108.5 -44.5t44.5 -106.5t-44 -107.5t-109 -45.5q-62 0 -107.5 43.5t-45.5 111.5zM36 -20l479 765h71l-478 -765h-72z" />
    <glyph glyph-name="guilsinglleft" unicode="&#x2039;" horiz-adv-x="333" 
d="M149 426h125l-125 -156l129 -154h-126l-129 154z" />
    <glyph glyph-name="guilsinglright" unicode="&#x203a;" horiz-adv-x="333" 
d="M59 426h125l126 -156l-129 -154h-126l129 154z" />
    <glyph glyph-name="fraction" unicode="&#x2044;" horiz-adv-x="167" 
d="M262 748h71l-427 -772h-72z" />
    <glyph glyph-name="Euro" unicode="&#x20ac;" 
d="M512 709v-128q-43 41 -131 41q-123 0 -142 -131h242l-33 -99h-221q0 -4 -0.5 -13.5t-0.5 -14.5q0 -6 0.5 -18t0.5 -16h199l-32 -99h-155q19 -134 143 -134q83 0 130 41v-130q-45 -31 -152 -31q-222 0 -259 254h-83l33 99h40q-2 18 -2 33q0 11 2 29h-73l33 99h48
q40 253 261 253q101 0 152 -35z" />
    <glyph glyph-name="afii61289" unicode="&#x2113;" horiz-adv-x="514" 
d="M445 179l52 -54q-70 -145 -207 -145q-88 0 -132 49t-51 127v12l-53 -43l-32 70q78 68 84 74v270q0 131 51 198.5t130 67.5q69 0 104 -52.5t35 -135.5q0 -166 -194 -365v-50q1 -57 25 -87t63 -30q68 0 125 94zM232 535v-160q115 142 115 248q0 86 -54 86q-16 0 -29 -14
t-22.5 -55t-9.5 -105z" />
    <glyph glyph-name="trademark" unicode="&#x2122;" horiz-adv-x="1000" 
d="M380 700v-90h-112v-322h-120v322h-112v90h344zM630 700l89 -239l89 239h156v-412h-108v270h-2l-91 -270h-88l-91 270h-2v-270h-108v412h156z" />
    <glyph glyph-name="Omega" unicode="&#x2126;" horiz-adv-x="700" 
d="M170 108v4q-51 53 -85.5 130t-34.5 169q0 143 85 242.5t218 99.5q92 0 161 -52t101 -126t32 -155q0 -95 -35 -175.5t-86 -132.5v-4h135v-108h-262v79q49 35 82 113.5t33 197.5q0 105 -43 177.5t-120 72.5q-76 0 -122 -71.5t-46 -184.5q0 -109 33.5 -191t81.5 -114v-79
h-262v108h134z" />
    <glyph glyph-name="estimated" unicode="&#x212e;" horiz-adv-x="927" 
d="M890 350h-691q-6 0 -6 -5v-209q0 -14 9 -24q110 -113 262 -113q81 0 152.5 33.5t122.5 93.5h61q-58 -69 -147 -109t-191 -40q-176 0 -301 112t-125 271q0 160 125 272.5t301 112.5q178 0 303 -112.5t125 -272.5v-10zM733 377v211q0 15 -10 25q-111 109 -259 109
q-150 0 -261 -113q-10 -10 -10 -26v-206q0 -7 6 -7h530q4 0 4 7z" />
    <glyph glyph-name="partialdiff" unicode="&#x2202;" horiz-adv-x="579" 
d="M105 666l-36 101q77 60 184 60q117 0 196.5 -104.5t79.5 -298.5q0 -205 -74.5 -324t-207.5 -119q-66 0 -115 39t-71 94.5t-22 116.5q0 127 63 203.5t155 76.5q52 0 89.5 -25.5t53.5 -53.5h1q1 8 1 35q0 101 -47 175t-120 74q-69 0 -130 -50zM260 93h1q51 0 86 69t43 157
q-9 30 -38 57t-70 27q-50 0 -82 -53t-32 -124q0 -58 25 -95.5t67 -37.5z" />
    <glyph glyph-name="Delta" unicode="&#x2206;" horiz-adv-x="656" 
d="M27 0v78l228 679h154l219 -676v-81h-601zM160 107h331l-106 305q-7 27 -29 97.5t-27 95.5h-4q-4 -21 -24.5 -86t-27.5 -91z" />
    <glyph glyph-name="product" unicode="&#x220f;" horiz-adv-x="727" 
d="M700 620h-101v-722h-129v722h-214v-722h-130v722h-100v121h674v-121z" />
    <glyph glyph-name="summation" unicode="&#x2211;" horiz-adv-x="559" 
d="M540 -103h-516v87l242 337l-234 327v93h492v-112h-318v-4l206 -281l-230 -319v-3h358v-125z" />
    <glyph glyph-name="minus" unicode="&#x2212;" horiz-adv-x="600" 
d="M552 193h-504v120h504v-120z" />
    <glyph glyph-name="uni2215" unicode="&#x2215;" horiz-adv-x="167" 
d="M262 748h71l-427 -772h-72z" />
    <glyph glyph-name="uni2219" unicode="&#x2219;" horiz-adv-x="278" 
d="M58 329q0 32 23.5 56t57.5 24q33 0 57 -24t24 -56q0 -33 -24 -56.5t-57 -23.5q-34 0 -57.5 23.5t-23.5 56.5z" />
    <glyph glyph-name="radical" unicode="&#x221a;" horiz-adv-x="600" 
d="M605 891l-224 -1038h-104l-148 464l-75 -30l-21 76l174 70l101 -329q3 -15 10.5 -49t9.5 -46l2 -1q9 67 15 102l171 781h89z" />
    <glyph glyph-name="infinity" unicode="&#x221e;" horiz-adv-x="801" 
d="M751 307v-1q0 -81 -49.5 -130.5t-116.5 -49.5q-48 0 -91 26t-92 91q-46 -57 -90 -87t-101 -30q-66 0 -114 49.5t-48 125.5q0 78 48.5 127.5t122.5 49.5q54 0 97.5 -29t87.5 -85q2 3 7 8q21 24 34 37.5t37 32t50.5 27.5t57.5 9q69 -1 114.5 -48t45.5 -123zM221 199h1
q27 0 54 16.5t43.5 33.5t42.5 48q-49 65 -71 82q-33 28 -74 28q-43 0 -68.5 -30t-25.5 -78q0 -42 28 -71t70 -29zM584 407h-1q-15 0 -30.5 -5.5t-26.5 -12t-26 -20.5t-21 -20.5t-21 -24.5t-17 -20q49 -60 79 -82.5t68 -22.5q40 0 64.5 32t24.5 69q0 47 -25.5 77t-67.5 30z
" />
    <glyph glyph-name="integral" unicode="&#x222b;" horiz-adv-x="410" 
d="M383 905l-13 -92q-20 8 -36 8q-32 0 -50 -27q-27 -34 -27 -178q0 -84 7 -248t7 -262q0 -143 -36 -213q-39 -76 -133 -76q-52 0 -78 17l16 95q28 -11 43 -11q29 0 44 21q27 40 27 165q0 99 -7.5 267t-7.5 257q0 93 14 148.5t47 91.5q43 49 121 49q33 0 62 -12z" />
    <glyph glyph-name="approxequal" unicode="&#x2248;" horiz-adv-x="554" 
d="M468 475l46 -42q-24 -49 -59.5 -78.5t-77.5 -29.5q-46 0 -112 41q-54 35 -87 35q-21 0 -39.5 -12.5t-28 -24.5t-25.5 -37l-47 41q23 48 62 77.5t85 29.5q14 0 26.5 -2t25.5 -7.5t19.5 -8.5t20 -10.5t15.5 -8.5l12.5 -8l12 -7.5l10 -6t11 -6l9.5 -4t10.5 -3.5t10 -2
t10.5 -1q27 0 46.5 18t43.5 57zM468 282l46 -41q-24 -49 -59.5 -78.5t-77.5 -29.5q-48 0 -112 41q-54 35 -87 35q-21 0 -40 -13.5t-27 -24t-26 -37.5l-47 42q23 48 62 77.5t84 29.5q12 0 24 -2t20 -4.5t19 -7t16 -7.5l15.5 -9t12.5 -7l18.5 -11t18 -10.5l15.5 -8t17.5 -6.5
t17.5 -2q28 0 47.5 18t42.5 56z" />
    <glyph glyph-name="notequal" unicode="&#x2260;" horiz-adv-x="554" 
d="M408 538l-39 -91h136v-77h-163l-60 -139h223v-77h-252l-49 -115l-60 23l40 92h-135v77h164l59 139h-223v77h251l49 114z" />
    <glyph glyph-name="lessequal" unicode="&#x2264;" horiz-adv-x="554" 
d="M502 105l-448 232v83l448 231v-90l-374 -181v-3l374 -182v-90zM507 -12h-457v78h457v-78z" />
    <glyph glyph-name="greaterequal" unicode="&#x2265;" horiz-adv-x="554" 
d="M56 651l448 -232v-83l-447 -231v90l373 182v3l-374 181v90zM505 -12h-454v78h454v-78z" />
    <glyph glyph-name="lozenge" unicode="&#x25ca;" horiz-adv-x="598" 
d="M548 370l-199 -421h-106l-192 421l199 422h105zM432 367l-111 248q-14 42 -19 67h-3q-8 -35 -20 -67l-112 -242l112 -252q11 -36 17 -64h5q7 39 17 62z" />
    </font>
</defs>
</svg>
